<?xml version="1.0" encoding="UTF-8" standalone="no"?>
<!DOCTYPE svg PUBLIC "-//W3C//DTD SVG 1.1//EN" "http://www.w3.org/Graphics/SVG/1.1/DTD/svg11.dtd">
<svg width="100%" height="100%" viewBox="0 0 800 300" version="1.1" xmlns="http://www.w3.org/2000/svg" xmlns:xlink="http://www.w3.org/1999/xlink" xml:space="preserve" xmlns:serif="http://www.serif.com/" style="fill-rule:evenodd;clip-rule:evenodd;stroke-linejoin:round;stroke-miterlimit:2;">
    <g transform="matrix(0.460416,0,0,0.460416,243.38,-36.8413)">
        <g transform="matrix(1,0,0,1,-179.73,-81.0654)">
            <path d="M727.673,818.935C699.439,814.151 672.285,810.043 646.213,806.611L656.52,786.627C653.045,785.42 637.775,796.864 637.775,796.864L651.301,738.856C633.822,740.964 624.934,800.194 624.934,800.194L605.405,780.168L614.86,802.682C535.064,793.285 466.15,789.8 408.184,789.675L417.006,772.571C413.531,771.364 398.261,782.808 398.261,782.808L411.787,724.8C394.308,726.908 385.42,786.137 385.42,786.137L365.891,766.112L375.905,789.958C336.19,790.614 296.535,793.307 257.096,798.028C266.019,771.383 296.33,746.042 296.33,746.042C273.182,752.927 261.039,764.463 254.694,775.219C254.127,720.243 263.269,665.595 281.698,613.796C300.127,561.998 233.851,717.916 239.956,787.805L240.687,800.215C200.123,806.023 179.73,812.066 179.73,812.066L727.673,818.935Z" style="fill:rgb(63,63,63);fill-rule:nonzero;"/>
        </g>
        <g transform="matrix(1,0,0,1,-179.73,-81.0654)">
            <path d="M524.436,681.065L524.436,679.065C528.412,679.064 532.449,678.982 536.435,678.823L536.515,680.821C532.503,680.982 528.439,681.064 524.436,681.065ZM512.361,680.834C508.363,680.677 504.306,680.438 500.304,680.123L500.462,678.128C504.438,678.443 508.468,678.68 512.439,678.835L512.361,680.834ZM548.572,680.096L548.412,678.102C552.381,677.785 556.398,677.381 560.35,676.904L560.59,678.89C556.611,679.371 552.568,679.776 548.572,680.096L548.572,680.096ZM488.284,678.93C484.297,678.453 480.272,677.889 476.322,677.255L476.639,675.281C480.563,675.911 484.561,676.47 488.522,676.944L488.284,678.93ZM572.55,677.202L572.23,675.227C576.153,674.593 580.124,673.868 584.034,673.073L584.432,675.032C580.496,675.834 576.498,676.563 572.55,677.202L572.55,677.202ZM464.437,675.099C460.501,674.302 456.535,673.415 452.649,672.463L453.124,670.52C456.985,671.466 460.925,672.347 464.834,673.138L464.437,675.099ZM596.218,672.382L595.74,670.441C599.612,669.488 603.512,668.444 607.33,667.337L607.887,669.259C604.042,670.373 600.116,671.423 596.218,672.382L596.218,672.382ZM440.976,669.352C437.12,668.239 433.239,667.034 429.44,665.77L430.072,663.872C433.845,665.128 437.7,666.325 441.531,667.43L440.976,669.352ZM619.418,665.663L618.784,663.766C622.559,662.504 626.361,661.148 630.085,659.733L630.796,661.602C627.047,663.027 623.219,664.393 619.418,665.663L619.418,665.663ZM418.028,661.711C414.276,660.289 410.496,658.769 406.794,657.192L407.578,655.352C411.255,656.919 415.01,658.428 418.737,659.839L418.028,661.711ZM641.968,657.098L641.182,655.258C644.839,653.697 648.51,652.042 652.093,650.337L652.952,652.144C649.345,653.859 645.648,655.526 641.968,657.098L641.968,657.098ZM395.756,652.223C392.123,650.499 388.481,648.678 384.931,646.812L385.862,645.043C389.388,646.895 393.005,648.704 396.613,650.417L395.756,652.223ZM663.732,646.749L662.801,644.979C666.323,643.126 669.851,641.177 673.287,639.19L674.289,640.92C670.83,642.921 667.278,644.882 663.732,646.749L663.732,646.749ZM374.337,640.969C370.852,638.955 367.371,636.847 363.991,634.706L365.061,633.016C368.418,635.143 371.876,637.237 375.338,639.239L374.337,640.969ZM684.606,634.67L683.536,632.981C686.888,630.857 690.251,628.631 693.529,626.365L694.666,628.009C691.366,630.292 687.981,632.533 684.606,634.67L684.606,634.67ZM353.907,628.033C350.6,625.748 347.301,623.369 344.102,620.961L345.304,619.364C348.482,621.754 351.759,624.118 355.044,626.388L353.907,628.033ZM704.454,620.949L703.251,619.351C706.422,616.966 709.596,614.477 712.687,611.952L713.953,613.5C710.842,616.043 707.645,618.548 704.454,620.949L704.454,620.949ZM334.59,613.502C331.485,610.965 328.389,608.331 325.387,605.67L326.714,604.174C329.696,606.816 332.771,609.434 335.856,611.954L334.59,613.502ZM723.148,605.675L721.822,604.179C724.802,601.539 727.768,598.801 730.639,596.044L732.024,597.488C729.135,600.262 726.148,603.017 723.148,605.675L723.148,605.675ZM316.507,597.479C313.622,594.708 310.748,591.834 307.964,588.94L309.406,587.553C312.171,590.429 315.027,593.284 317.893,596.036L316.507,597.479ZM740.568,588.948L739.127,587.561C741.884,584.694 744.623,581.728 747.269,578.745L748.765,580.073C746.101,583.075 743.344,586.061 740.568,588.948L740.568,588.948ZM299.771,580.069C297.104,577.063 294.47,573.97 291.94,570.876L293.489,569.611C296.001,572.684 298.618,575.756 301.267,578.741L299.771,580.069ZM756.602,570.875L755.053,569.609C757.581,566.519 760.075,563.341 762.468,560.165L764.065,561.368C761.657,564.566 759.145,567.764 756.602,570.875L756.602,570.875ZM284.486,561.382C282.076,558.182 279.698,554.891 277.42,551.599L279.065,550.46C281.328,553.731 283.689,557 286.084,560.179L284.486,561.382ZM771.142,551.566L769.498,550.429C771.769,547.144 774.002,543.775 776.132,540.416L777.821,541.486C775.677,544.868 773.43,548.259 771.142,551.566L771.142,551.566ZM270.754,541.543C268.611,538.164 266.506,534.694 264.498,531.229L266.229,530.227C268.223,533.668 270.314,537.115 272.442,540.471L270.754,541.543ZM784.092,531.143L782.361,530.141C784.363,526.681 786.317,523.141 788.17,519.621L789.939,520.552C788.075,524.096 786.107,527.66 784.092,531.143ZM258.665,520.673C256.802,517.135 254.985,513.509 253.264,509.896L255.07,509.037C256.779,512.626 258.584,516.227 260.435,519.742L258.665,520.673ZM795.356,509.731L793.55,508.872C795.262,505.27 796.925,501.583 798.491,497.911L800.331,498.696C798.754,502.392 797.08,506.105 795.356,509.731ZM248.304,498.916C246.728,495.232 245.211,491.474 243.792,487.746L245.661,487.035C247.071,490.737 248.578,494.47 250.142,498.128L248.304,498.916ZM804.856,487.463L802.986,486.754C804.404,483.013 805.763,479.2 807.024,475.421L808.921,476.054C807.652,479.859 806.284,483.697 804.856,487.463ZM239.726,476.371C238.452,472.569 237.241,468.689 236.124,464.84L238.045,464.284C239.154,468.106 240.358,471.959 241.622,475.736L239.726,476.371ZM812.511,464.518L810.589,463.963C811.692,460.147 812.734,456.248 813.686,452.372L815.628,452.848C814.67,456.751 813.621,460.677 812.511,464.518ZM232.993,453.173C232.032,449.279 231.139,445.315 230.337,441.39L232.297,440.99C233.093,444.888 233.98,448.827 234.934,452.695L232.993,453.173ZM818.27,441.063L816.309,440.665C817.1,436.769 817.823,432.797 818.458,428.861L820.432,429.179C819.794,433.142 819.066,437.14 818.27,441.063ZM228.161,429.508C227.52,425.56 226.95,421.537 226.466,417.549L228.451,417.309C228.932,421.27 229.498,425.266 230.136,429.188L228.161,429.508ZM822.114,417.215L820.128,416.977C820.603,413.018 821.005,409.001 821.319,405.039L823.313,405.197C822.996,409.187 822.593,413.23 822.114,417.215L822.114,417.215ZM225.254,405.533C224.931,401.538 224.685,397.481 224.522,393.475L226.52,393.394C226.682,397.374 226.927,401.403 227.247,405.372L225.254,405.533ZM824.032,393.142L822.034,393.063C822.19,389.077 822.27,385.041 822.27,381.066L822.269,380.403L824.269,380.403L824.27,381.062C824.27,385.067 824.19,389.129 824.032,393.142ZM226.27,381.397L224.27,381.397L224.27,381.062C224.27,377.16 224.346,373.209 224.496,369.323L226.494,369.4C226.345,373.261 226.27,377.186 226.27,381.066L226.27,381.397ZM822.006,368.41C821.841,364.438 821.593,360.409 821.266,356.433L823.261,356.27C823.588,360.272 823.838,364.329 824.004,368.327L822.006,368.41ZM227.195,357.422L225.201,357.266C225.515,353.261 225.914,349.217 226.387,345.245L228.373,345.481C227.904,349.427 227.507,353.444 227.195,357.422L227.195,357.422ZM820.05,344.497C819.567,340.552 818.997,336.556 818.352,332.62L820.327,332.297C820.974,336.26 821.55,340.283 822.034,344.254L820.05,344.497ZM230.03,333.599L228.055,333.282C228.689,329.322 229.412,325.323 230.205,321.396L232.165,321.792C231.378,325.692 230.659,329.665 230.03,333.599L230.03,333.599ZM816.177,320.82C815.374,316.912 814.482,312.975 813.526,309.118L815.468,308.637C816.431,312.52 817.328,316.483 818.136,320.417L816.177,320.82ZM234.776,310.081L232.833,309.606C233.784,305.714 234.829,301.786 235.939,297.932L237.861,298.485C236.759,302.313 235.721,306.215 234.776,310.081ZM810.404,297.533C809.291,293.713 808.084,289.861 806.814,286.084L808.711,285.448C809.988,289.25 811.204,293.128 812.324,296.974L810.404,297.533ZM241.412,287.024L239.514,286.394C240.78,282.585 242.143,278.745 243.567,274.98L245.438,275.687C244.024,279.427 242.669,283.242 241.412,287.024ZM802.762,274.791C801.341,271.07 799.829,267.339 798.268,263.701L800.106,262.913C801.678,266.576 803.2,270.332 804.631,274.077L802.762,274.791ZM249.92,264.525L248.079,263.742C249.651,260.047 251.321,256.332 253.042,252.702L254.849,253.558C253.139,257.165 251.481,260.855 249.92,264.525ZM793.329,252.797C791.617,249.212 789.808,245.613 787.953,242.099L789.72,241.165C791.59,244.703 793.411,248.326 795.134,251.936L793.329,252.797ZM260.218,242.803L258.447,241.874C260.311,238.321 262.275,234.755 264.283,231.276L266.015,232.276C264.02,235.732 262.07,239.274 260.218,242.803ZM782.146,231.622C780.146,228.179 778.053,224.735 775.922,221.384L777.609,220.311C779.755,223.684 781.862,227.152 783.876,230.617L782.146,231.622ZM272.232,221.996L270.541,220.926C272.687,217.534 274.93,214.14 277.209,210.839L278.855,211.975C276.591,215.254 274.363,218.626 272.232,221.996ZM769.288,211.401C767.019,208.132 764.654,204.864 762.259,201.69L763.854,200.485C766.266,203.681 768.647,206.97 770.93,210.261L769.288,211.401ZM285.874,202.231L284.276,201.03C286.686,197.822 289.193,194.621 291.728,191.514L293.278,192.779C290.76,195.864 288.269,199.044 285.874,202.231ZM754.844,192.267C752.321,189.189 749.7,186.12 747.055,183.146L748.55,181.816C751.213,184.811 753.85,187.9 756.39,190.999L754.844,192.267ZM301.053,183.632L299.555,182.307C302.211,179.307 304.965,176.318 307.742,173.422L309.186,174.807C306.427,177.683 303.691,180.653 301.053,183.632L301.053,183.632ZM738.907,174.34C736.139,171.469 733.281,168.618 730.41,165.867L731.794,164.423C734.683,167.192 737.561,170.062 740.347,172.953L738.907,174.34ZM317.663,166.315L316.277,164.874C319.162,162.097 322.146,159.339 325.144,156.676L326.472,158.171C323.494,160.817 320.53,163.557 317.663,166.315L317.663,166.315ZM721.581,157.739C718.593,155.097 715.514,152.482 712.43,149.969L713.694,148.419C716.798,150.949 719.897,153.581 722.905,156.241L721.581,157.739ZM335.598,150.388L334.331,148.841C337.434,146.3 340.627,143.791 343.822,141.382L345.026,142.979C341.852,145.371 338.68,147.864 335.598,150.388ZM702.972,142.571C699.782,140.177 696.502,137.817 693.225,135.557L694.36,133.911C697.659,136.186 700.961,138.561 704.174,140.972L702.972,142.571ZM354.741,135.953L353.602,134.31C356.899,132.025 360.281,129.78 363.655,127.638L364.727,129.326C361.376,131.454 358.016,133.684 354.742,135.953L354.741,135.953ZM683.201,128.939C679.829,126.809 676.369,124.719 672.916,122.729L673.916,120.996C677.39,123 680.874,125.104 684.269,127.248L683.201,128.939ZM374.969,123.108L373.965,121.377C377.423,119.372 380.973,117.407 384.515,115.539L385.449,117.307C381.93,119.164 378.404,121.115 374.969,123.108L374.969,123.108ZM662.388,116.937C658.855,115.086 655.236,113.282 651.63,111.574L652.485,109.767C656.116,111.485 659.761,113.302 663.315,115.165L662.388,116.937ZM396.15,111.937L395.289,110.131C398.895,108.412 402.589,106.741 406.268,105.165L407.055,107.003C403.401,108.568 399.732,110.228 396.15,111.937L396.15,111.937ZM640.66,106.651C636.984,105.09 633.228,103.584 629.496,102.175L630.203,100.304C633.96,101.723 637.742,103.239 641.441,104.81L640.66,106.651ZM418.148,102.516L417.436,100.646C421.178,99.22 425.004,97.85 428.808,96.574L429.444,98.47C425.666,99.737 421.866,101.099 418.148,102.516L418.148,102.516ZM618.155,98.156C614.376,96.902 610.519,95.709 606.692,94.61L607.245,92.688C611.098,93.795 614.979,94.996 618.784,96.257L618.155,98.156ZM440.895,94.885L440.337,92.965C444.183,91.846 448.108,90.791 452.002,89.827L452.482,91.769C448.614,92.726 444.716,93.774 440.895,94.885ZM595.095,91.533C591.234,90.591 587.293,89.715 583.383,88.928L583.777,86.967C587.714,87.759 591.681,88.642 595.569,89.59L595.095,91.533ZM464.185,89.126L463.784,87.167C467.704,86.364 471.702,85.629 475.664,84.983L475.986,86.957C472.05,87.599 468.079,88.329 464.185,89.126ZM571.575,86.799C567.642,86.172 563.643,85.617 559.69,85.149L559.926,83.163C563.905,83.634 567.93,84.193 571.889,84.825L571.575,86.799ZM487.864,85.267L487.622,83.281C491.6,82.797 495.643,82.386 499.638,82.062L499.801,84.055C495.832,84.378 491.816,84.785 487.864,85.267ZM547.75,83.977C543.785,83.668 539.755,83.435 535.771,83.284L535.847,81.285C539.857,81.437 543.914,81.672 547.905,81.983L547.75,83.977ZM511.778,83.322L511.696,81.324C515.695,81.159 519.758,81.072 523.772,81.065L523.775,83.065C519.787,83.072 515.751,83.159 511.778,83.322Z" style="fill:rgb(63,63,63);fill-rule:nonzero;"/>
        </g>
        <g transform="matrix(1,0,0,1,-179.73,-81.0654)">
            <path d="M430.423,494.719C430.423,494.719 422.289,529.581 429.261,529.581C436.234,529.581 450.179,513.312 450.179,513.312L450.179,504.015L430.423,494.719Z" style="fill:rgb(115,115,115);fill-rule:nonzero;"/>
        </g>
        <path d="M267.544,382.858L246.627,415.396L261.734,415.396L267.544,382.858Z" style="fill:rgb(207,207,207);fill-rule:nonzero;"/>
        <rect x="254.761" y="666.406" width="27.89" height="23.242" style="fill:rgb(115,115,115);"/>
        <path d="M344.242,662.92L350.052,689.648L379.104,682.675L372.132,659.434L344.242,662.92Z" style="fill:rgb(115,115,115);fill-rule:nonzero;"/>
        <g transform="matrix(1,0,0,1,-179.73,-81.0654)">
            <path d="M436.815,503.434C436.815,503.434 427.518,508.082 426.356,529C425.194,549.918 429.842,604.535 429.842,604.535C429.842,604.535 425.194,628.939 429.842,651.019C434.491,673.098 425.194,753.282 431.005,753.282C436.815,753.282 467.029,756.768 468.191,753.282C469.353,749.796 470.515,697.502 470.515,697.502C470.515,697.502 479.812,670.774 470.515,654.505C470.515,654.505 491.433,671.936 491.433,676.585C491.433,681.233 513.512,753.282 523.971,754.444C534.43,755.606 563.482,753.282 557.672,742.823C551.861,732.365 537.916,684.719 537.916,684.719C537.916,684.719 527.457,649.857 508.864,634.75L518.161,560.376C518.161,560.376 537.916,510.407 526.295,503.434C514.675,496.462 436.815,503.434 436.815,503.434Z" style="fill:rgb(48,48,48);fill-rule:nonzero;"/>
        </g>
        <circle cx="291.948" cy="202.735" r="30.214" style="fill:rgb(115,115,115);"/>
        <g transform="matrix(1,0,0,1,-179.73,-81.0654)">
            <path d="M456.57,302.394C456.57,302.394 468.191,340.742 464.705,345.391C461.219,350.039 501.892,319.825 501.892,319.825C501.892,319.825 486.785,309.366 492.595,294.259L456.57,302.394Z" style="fill:rgb(115,115,115);fill-rule:nonzero;"/>
        </g>
        <g transform="matrix(1,0,0,1,-179.73,-81.0654)">
            <path d="M505.378,316.339C505.378,316.339 491.433,320.987 484.46,329.122C477.488,337.256 461.219,338.418 461.219,338.418C461.219,338.418 446.837,346.518 441.463,360.498C435.736,375.397 439.065,396.374 441.463,401.171C446.112,410.467 446.112,433.709 446.112,433.709L440.301,487.165C440.301,487.165 419.384,506.92 435.653,509.245C451.922,511.569 480.974,508.083 498.405,509.245C515.837,510.407 535.592,512.731 529.782,501.11C523.971,489.489 516.999,481.355 523.971,458.113C529.427,439.926 529.191,371.926 528.83,343.21C528.729,335.2 524.472,327.793 517.602,323.673L505.378,316.339Z" style="fill:rgb(207,207,207);fill-rule:nonzero;"/>
        </g>
        <g transform="matrix(1,0,0,1,-179.73,-81.0654)">
            <path d="M460.057,494.137C460.057,494.137 454.77,505.778 454.246,512.731C450.179,566.768 479.812,512.731 479.812,512.731L479.812,503.434L460.057,494.137Z" style="fill:rgb(115,115,115);fill-rule:nonzero;"/>
        </g>
        <g transform="matrix(1,0,0,1,-179.73,-81.0654)">
            <path d="M541.402,761.417C541.402,761.417 523.971,748.634 523.971,755.606C523.971,762.579 504.216,790.469 504.216,790.469C504.216,790.469 471.677,813.71 498.405,813.71C525.133,813.71 536.754,809.062 536.754,809.062L564.644,790.469C564.644,790.469 571.617,782.334 569.292,773.037C566.968,763.741 558.834,750.958 558.834,750.958C558.834,750.958 549.537,763.741 541.402,761.417Z" style="fill:rgb(48,48,48);fill-rule:nonzero;"/>
        </g>
        <g transform="matrix(1,0,0,1,-179.73,-81.0654)">
            <path d="M439.139,764.903C439.139,764.903 436.815,753.282 428.68,759.092C420.546,764.903 398.466,782.334 398.466,782.334C398.466,782.334 357.793,791.631 383.359,803.252C408.925,814.872 467.029,798.603 467.029,798.603C467.029,798.603 469.353,761.417 467.029,762.579C464.705,763.741 440.301,767.227 439.139,764.903Z" style="fill:rgb(48,48,48);fill-rule:nonzero;"/>
        </g>
        <path d="M308.798,271.879L312.284,342.766L278.503,411.185L272.773,409.005L307.636,345.09L308.798,271.879Z" style="fill-opacity:0.1;fill-rule:nonzero;"/>
        <g transform="matrix(1,0,0,1,-179.73,-81.0654)">
            <path d="M515.837,331.446L524.552,329.703C524.552,329.703 550.699,348.877 542.565,387.226C534.43,425.575 498.405,483.679 498.405,483.679C498.405,483.679 490.271,494.137 487.947,496.462C485.622,498.786 480.974,496.462 483.298,499.948C485.622,503.434 479.812,505.758 479.812,505.758C479.812,505.758 454.246,505.758 456.57,496.462C458.895,487.165 498.405,420.926 498.405,420.926L492.595,359.336C492.595,359.336 487.947,329.122 515.837,331.446Z" style="fill:rgb(207,207,207);fill-rule:nonzero;"/>
        </g>
        <path d="M347.147,357.873L347.147,349.738L307.636,414.815L347.147,357.873Z" style="fill-opacity:0.1;fill-rule:nonzero;"/>
        <g transform="matrix(1,0,0,1,-179.73,-81.0654)">
            <path d="M450.238,255.811L445.243,253.811C445.243,253.811 455.687,242.313 470.218,243.313L466.131,238.814C466.131,238.814 476.121,234.814 485.203,245.313C489.977,250.832 495.5,257.319 498.944,264.626L504.293,264.626L502.06,269.542L509.874,274.458L501.854,273.575C502.614,277.819 502.354,282.183 501.096,286.306L501.311,290.192C501.311,290.192 492.014,275.808 492.014,273.808L492.014,278.808C492.014,278.808 487.019,274.308 487.019,271.309L484.294,274.808L482.932,269.309L466.131,274.808L468.856,270.309L458.412,271.809L462.498,266.309C462.498,266.309 450.692,272.808 450.238,278.308C449.784,283.807 443.881,290.806 443.881,290.806L441.157,285.806C441.157,285.806 437.07,263.31 450.238,255.811Z" style="fill:rgb(48,48,48);fill-rule:nonzero;"/>
        </g>
        <rect x="409.664" y="163.816" width="430.876" height="85.07" style="fill:rgb(133,133,133);"/>
        <rect x="409.664" y="263.249" width="430.876" height="85.07" style="fill:rgb(230,230,230);"/>
        <circle cx="454.961" cy="205.798" r="25.411" style="fill:white;"/>
        <rect x="515.726" y="195.855" width="250.792" height="5.524" style="fill:white;"/>
        <rect x="515.726" y="210.218" width="250.792" height="5.524" style="fill:white;"/>
        <circle cx="454.961" cy="306.336" r="25.411" style="fill:white;"/>
        <rect x="515.726" y="296.393" width="250.792" height="5.524" style="fill:white;"/>
        <rect x="515.726" y="310.756" width="250.792" height="5.524" style="fill:white;"/>
        <rect x="515.726" y="296.393" width="250.792" height="5.524" style="fill:white;"/>
        <rect x="515.726" y="310.756" width="250.792" height="5.524" style="fill:white;"/>
        <rect x="409.664" y="360.927" width="430.876" height="85.07" style="fill:rgb(230,230,230);"/>
        <circle cx="454.961" cy="404.015" r="25.411" style="fill:white;"/>
        <rect x="515.726" y="394.071" width="250.792" height="5.524" style="fill:white;"/>
        <rect x="515.726" y="408.434" width="250.792" height="5.524" style="fill:white;"/>
        <rect x="515.726" y="394.071" width="250.792" height="5.524" style="fill:white;"/>
        <rect x="515.726" y="408.434" width="250.792" height="5.524" style="fill:white;"/>
        <path d="M452.646,215.405L443.545,203.271L445.701,201.654L453.115,211.539L482.305,187.657L484.011,189.743L452.646,215.405Z" style="fill:rgb(133,133,133);fill-rule:nonzero;"/>
    </g>
</svg>
