<?xml version="1.0" encoding="UTF-8" standalone="no"?>
<!DOCTYPE svg PUBLIC "-//W3C//DTD SVG 1.1//EN" "http://www.w3.org/Graphics/SVG/1.1/DTD/svg11.dtd">
<svg width="100%" height="100%" viewBox="0 0 800 300" version="1.1" xmlns="http://www.w3.org/2000/svg" xmlns:xlink="http://www.w3.org/1999/xlink" xml:space="preserve" xmlns:serif="http://www.serif.com/" style="fill-rule:evenodd;clip-rule:evenodd;stroke-linejoin:round;stroke-miterlimit:2;">
    <g transform="matrix(1,0,0,1,-20.7074,4.33077)">
        <g transform="matrix(0.474406,0,0,0.464744,263.943,-15.9811)">
            <circle cx="137.032" cy="553.164" r="14.92" style="fill:rgb(133,133,133);fill-opacity:0.4;"/>
        </g>
        <g transform="matrix(0.474406,0,0,0.464744,263.943,-15.9811)">
            <circle cx="109.419" cy="560.29" r="10.466" style="fill:rgb(133,133,133);fill-opacity:0.4;"/>
        </g>
        <g transform="matrix(0.474406,0,0,0.464744,117.804,-73.6094)">
            <path d="M364.092,470.81C400.95,566.274 493.584,634 602.048,634C703.826,634 791.665,574.366 832.562,488.139L364.092,470.81Z" style="fill:rgb(242,242,242);fill-rule:nonzero;"/>
        </g>
        <g transform="matrix(0.474406,0,0,0.464744,263.943,-15.9811)">
            <circle cx="106" cy="112" r="12" style="fill:rgb(63,63,63);"/>
        </g>
        <g transform="matrix(0.474406,0,0,0.464744,263.943,-15.9811)">
            <circle cx="538" cy="252" r="12" style="fill:rgb(133,133,133);"/>
        </g>
        <g transform="matrix(0.474406,0,0,0.464744,263.943,-15.9811)">
            <rect x="105" y="339" width="20" height="20" style="fill:rgb(133,133,133);"/>
        </g>
        <g transform="matrix(0.474406,0,0,0.464744,117.804,-73.6094)">
            <path d="M576.048,317C576.048,317 609.048,302.621 624.548,317.81C640.048,333 583.048,328 576.048,317Z" style="fill:rgb(63,63,63);fill-rule:nonzero;"/>
        </g>
        <g transform="matrix(0.474406,0,0,0.464744,117.804,-73.6094)">
            <path d="M633.03,248.805C621.94,230.066 600,229.193 600,229.193C600,229.193 578.62,226.459 564.905,254.998C552.122,281.598 534.479,307.282 562.065,313.509L567.048,298L570.134,314.663C574.061,314.946 578.002,315.013 581.937,314.865C611.479,313.911 639.613,315.144 638.707,304.543C637.503,290.451 643.701,266.835 633.03,248.805Z" style="fill:rgb(48,48,48);fill-rule:nonzero;"/>
        </g>
        <g transform="matrix(0.474406,0,0,0.464744,263.943,-15.9811)">
            <ellipse cx="294.5" cy="398" rx="56" ry="13" style="fill:rgb(63,63,63);"/>
        </g>
        <g transform="matrix(0.473114,-0.0342729,0.0349855,0.463479,94.6576,-51.4752)">
            <rect x="593.474" y="683.5" width="54.148" height="2" style="fill:rgb(48,48,48);"/>
        </g>
        <g transform="matrix(0.228625,-0.407216,0.415682,0.223969,-25.7837,321.473)">
            <rect x="566.548" y="669.587" width="2" height="22.825" style="fill:rgb(48,48,48);"/>
        </g>
        <g transform="matrix(0.474406,0,0,0.464744,263.943,-15.9811)">
            <rect x="288.5" y="543.5" width="18" height="2" style="fill:rgb(48,48,48);"/>
        </g>
        <g transform="matrix(0.474406,0,0,0.464744,263.943,-15.9811)">
            <path d="M241.498,650.568L239.502,650.432L254.502,418.432L256.498,418.568L241.498,650.568Z" style="fill:rgb(48,48,48);fill-rule:nonzero;"/>
        </g>
        <g transform="matrix(0.474406,0,0,0.464744,263.943,-15.9811)">
            <path d="M315.501,650.549L305.501,422.549L307.499,422.451L317.499,650.451L315.501,650.549Z" style="fill:rgb(48,48,48);fill-rule:nonzero;"/>
        </g>
        <g transform="matrix(0.472796,-0.0382606,0.0390561,0.463167,93.0961,-47.6212)">
            <rect x="651.048" y="544.108" width="2" height="230.783" style="fill:rgb(48,48,48);"/>
        </g>
        <g transform="matrix(0.474406,0,0,0.464744,117.804,-73.6094)">
            <path d="M648.548,588.5C648.548,588.5 634.548,614.5 625.548,614.5C616.548,614.5 617.548,631.5 619.548,635.5C621.548,639.5 626.548,648.5 618.548,661.5C615.753,666.041 616.253,671.192 618.087,675.973C623.225,689.368 643.211,685.309 642.573,670.977C642.566,670.819 642.558,670.66 642.548,670.5C641.548,654.5 649.548,629.5 657.548,623.5C665.548,617.5 672.548,601.5 672.548,601.5L648.548,588.5Z" style="fill:rgb(203,203,203);fill-rule:nonzero;"/>
        </g>
        <g transform="matrix(0.474406,0,0,0.464744,117.804,-73.6094)">
            <path d="M552.548,582.5C552.548,582.5 566.548,608.5 575.548,608.5C584.548,608.5 583.548,625.5 581.548,629.5C579.548,633.5 574.548,642.5 582.548,655.5C585.342,660.041 584.842,665.192 583.009,669.973C577.871,683.368 557.885,679.309 558.522,664.977C558.529,664.819 558.538,664.66 558.548,664.5C559.548,648.5 551.548,623.5 543.548,617.5C535.548,611.5 528.548,595.5 528.548,595.5L552.548,582.5Z" style="fill:rgb(203,203,203);fill-rule:nonzero;"/>
        </g>
        <g transform="matrix(0.474406,0,0,0.464744,117.804,-73.6094)">
            <path d="M563.548,454.5L557.548,467.5C557.548,467.5 469.548,496.5 477.548,530.5C485.548,564.5 524.548,617.5 530.548,615.5C536.548,613.5 568.548,607.5 569.548,590.5C570.548,573.5 546.548,543.5 546.548,543.5L579.548,513.5L627.568,512.5L668.548,543.5C668.548,543.5 625.548,581.5 644.548,596.5C663.548,611.5 691.548,621.5 695.548,615.5C699.548,609.5 744.548,520.5 737.548,512.5C730.548,504.5 659.548,474.5 659.548,474.5L640.548,447.5L566.548,443.5L563.548,454.5Z" style="fill:rgb(48,48,48);fill-rule:nonzero;"/>
        </g>
        <g transform="matrix(0.474406,0,0,0.464744,117.804,-73.6094)">
            <path d="M581.548,289.5C581.548,289.5 586.548,322.5 576.548,326.5C566.548,330.5 596.548,347.5 596.548,347.5L613.548,347.5L624.548,324.5C624.548,324.5 614.548,306.5 620.548,289.5C626.548,272.5 581.548,289.5 581.548,289.5Z" style="fill:rgb(203,203,203);fill-rule:nonzero;"/>
        </g>
        <g transform="matrix(0.474406,0,0,0.464744,117.804,-73.6094)">
            <path d="M581.548,289.5C581.548,289.5 586.548,322.5 576.548,326.5C566.548,330.5 596.548,347.5 596.548,347.5L613.548,347.5L624.548,324.5C624.548,324.5 614.548,306.5 620.548,289.5C626.548,272.5 581.548,289.5 581.548,289.5Z" style="fill-opacity:0.1;fill-rule:nonzero;"/>
        </g>
        <g transform="matrix(0.474406,0,0,0.464744,117.804,-73.6094)">
            <path d="M574.548,317.5C574.548,317.5 585.548,329.5 587.548,331.5C589.548,333.5 598.548,344.5 617.548,328.5C636.548,312.5 638.548,331.5 638.548,331.5L638.548,451.5C638.548,451.5 622.548,444.5 609.548,451.5C596.548,458.5 569.548,449.5 569.548,449.5L564.548,325.5L574.548,317.5Z" style="fill:rgb(207,207,207);fill-rule:nonzero;"/>
        </g>
        <g transform="matrix(0.474406,0,0,0.464744,117.804,-73.6094)">
            <path d="M581.893,317.5C581.893,317.5 572.548,313.5 564.548,317.5C556.548,321.5 528.548,341.5 530.548,350.5C532.548,359.5 558.548,422.5 540.548,452.5C522.548,482.5 519.548,490.5 519.548,490.5L563.548,467.5C563.548,467.5 597.548,446.5 594.548,433.5C591.548,420.5 581.893,317.5 581.893,317.5Z" style="fill:rgb(63,63,63);fill-rule:nonzero;"/>
        </g>
        <g transform="matrix(0.474406,0,0,0.464744,117.804,-73.6094)">
            <path d="M621.56,317.5C621.56,317.5 642.548,319.5 643.548,321.5C644.548,323.5 675.048,332 673.048,341C671.048,350 643.548,430.5 655.548,445.5C667.548,460.5 687.548,481.5 680.548,483.5C673.548,485.5 661.548,480.5 649.548,483.5C637.548,486.5 609.548,461.5 612.548,434.5C615.548,407.5 612.571,324.5 621.56,317.5Z" style="fill:rgb(63,63,63);fill-rule:nonzero;"/>
        </g>
        <g transform="matrix(0.474406,0,0,0.464744,117.804,-73.6094)">
            <path d="M571.548,508.5L571.548,518.5C571.548,518.5 566.548,541.5 582.548,540.5C598.548,539.5 588.548,512.5 588.548,512.5L587.548,503.5L571.548,508.5Z" style="fill:rgb(203,203,203);fill-rule:nonzero;"/>
        </g>
        <g transform="matrix(0.474406,0,0,0.464744,117.804,-73.6094)">
            <path d="M616.548,509.5C616.548,509.5 605.548,532.5 616.548,534.5C627.548,536.5 635.548,521.5 635.548,517.5C635.548,513.5 616.548,509.5 616.548,509.5Z" style="fill:rgb(203,203,203);fill-rule:nonzero;"/>
        </g>
        <g transform="matrix(0.474406,0,0,0.464744,263.943,-15.9811)">
            <path d="M272.5,650.524L270.5,650.476L276.5,420.476L278.5,420.524L272.5,650.524Z" style="fill:rgb(48,48,48);fill-rule:nonzero;"/>
        </g>
        <g transform="matrix(0.474406,0,0,0.464744,263.943,-15.9811)">
            <ellipse cx="323" cy="152" rx="2" ry="4" style="fill:rgb(203,203,203);"/>
        </g>
        <g transform="matrix(0.474406,0,0,0.464744,263.943,-15.9811)">
            <ellipse cx="264" cy="152" rx="2" ry="4" style="fill:rgb(203,203,203);"/>
        </g>
        <g transform="matrix(0.474406,0,0,0.464744,117.804,-73.6094)">
            <path d="M648.548,330.5C648.548,330.5 673.548,330.5 672.548,340.5C671.548,350.5 638.548,522.5 638.548,522.5C638.548,522.5 624.548,509.5 612.548,512.5L648.548,330.5Z" style="fill:rgb(63,63,63);fill-rule:nonzero;"/>
        </g>
        <g transform="matrix(0.474406,0,0,0.464744,117.804,-73.6094)">
            <path d="M551.548,333.5C551.548,333.5 526.548,338.5 526.548,353.5C526.548,368.5 562.548,512.5 567.548,512.5C572.548,512.5 591.548,509.5 591.548,504.5C591.548,499.5 551.548,333.5 551.548,333.5Z" style="fill:rgb(63,63,63);fill-rule:nonzero;"/>
        </g>
        <g transform="matrix(0.474406,0,0,0.464744,117.804,-73.6094)">
            <path d="M557.048,363L579.548,450.991C579.548,450.991 569.048,374 557.048,363Z" style="fill-opacity:0.2;fill-rule:nonzero;"/>
        </g>
        <g transform="matrix(0.474406,0,0,0.464744,117.804,-73.6094)">
            <path d="M644.565,350.636L621.809,465.68C621.809,465.68 629.082,357.272 644.565,350.636Z" style="fill-opacity:0.2;fill-rule:nonzero;"/>
        </g>
        <g transform="matrix(0.474406,0,0,0.464744,263.943,-15.9811)">
            <circle cx="293.5" cy="152.5" r="29" style="fill:rgb(203,203,203);"/>
        </g>
        <g transform="matrix(0.474406,0,0,0.464744,263.943,-15.9811)">
            <path d="M320.079,122.998L298.403,111.644L268.47,116.289L262.277,143.642L277.693,143.049L282,133L282,142.884L289.114,142.61L293.242,126.611L295.823,143.642L321.112,143.126L320.079,122.998Z" style="fill:rgb(48,48,48);fill-rule:nonzero;"/>
        </g>
        <g transform="matrix(0.474406,0,0,0.464744,263.943,-15.9811)">
            <rect x="10" y="650" width="546" height="2" style="fill:rgb(48,48,48);"/>
        </g>
        <g transform="matrix(0.474406,0,0,0.464744,117.804,-73.6094)">
            <path d="M772.631,774.02L770.631,773.98C771.404,751.743 773.777,729.59 777.73,707.693C786.379,660.813 800.76,630.023 820.474,616.182L821.622,617.818C775.57,650.152 772.654,772.784 772.631,774.02Z" style="fill:rgb(48,48,48);fill-rule:nonzero;"/>
        </g>
        <g transform="matrix(0.474406,0,0,0.464744,117.804,-73.6094)">
            <path d="M797.631,773.541L795.631,773.502C795.674,771.287 796.924,719.088 817.474,704.66L818.622,706.297C798.901,720.143 797.641,773.009 797.631,773.541Z" style="fill:rgb(48,48,48);fill-rule:nonzero;"/>
        </g>
        <g transform="matrix(0.474406,0,0,0.464744,263.943,-15.9811)">
            <circle cx="525" cy="483" r="10" style="fill:rgb(133,133,133);"/>
        </g>
        <g transform="matrix(0.474406,0,0,0.464744,263.943,-15.9811)">
            <circle cx="520" cy="570" r="10" style="fill:rgb(133,133,133);"/>
        </g>
        <g transform="matrix(0.474406,0,0,0.464744,117.804,-73.6094)">
            <path d="M792.97,623.995C794.849,635.999 789.951,646.735 789.951,646.735C789.951,646.735 782.005,638.009 780.126,626.005C778.247,614.001 783.145,603.265 783.145,603.265C783.145,603.265 791.09,611.991 792.97,623.995Z" style="fill:rgb(48,48,48);fill-rule:nonzero;"/>
        </g>
        <g transform="matrix(0.474406,0,0,0.464744,117.804,-73.6094)">
            <path d="M825.657,653.148C814.164,657.091 802.738,654.138 802.738,654.138C802.738,654.138 809.946,644.794 821.439,640.852C832.932,636.909 844.358,639.862 844.358,639.862C844.358,639.862 837.15,649.206 825.657,653.148Z" style="fill:rgb(48,48,48);fill-rule:nonzero;"/>
        </g>
        <g transform="matrix(0.474406,0,0,0.464744,117.804,-73.6094)">
            <path d="M826.026,729.31C820.825,730.943 815.285,731.182 809.962,730.003C816.854,721.229 828.307,717.3 839.134,719.997C835.656,724.195 831.135,727.407 826.026,729.31Z" style="fill:rgb(48,48,48);fill-rule:nonzero;"/>
        </g>
        <g transform="matrix(0.474406,0,0,0.464744,263.943,-15.9811)">
            <path d="M2,192L0,192L0,62L128,62L128,64L2,64L2,192Z" style="fill:rgb(48,48,48);fill-rule:nonzero;"/>
        </g>
        <g transform="matrix(0.474406,0,0,0.464744,263.943,-15.9811)">
            <path d="M583.904,192L581.904,192L581.904,64L455.904,64L455.904,62L583.904,62L583.904,192Z" style="fill:rgb(48,48,48);fill-rule:nonzero;"/>
        </g>
        <g transform="matrix(0.474406,0,0,0.464744,263.943,-15.9811)">
            <path d="M2,302L0,302L0,432L128,432L128,430L2,430L2,302Z" style="fill:rgb(48,48,48);fill-rule:nonzero;"/>
        </g>
        <g transform="matrix(0.474406,0,0,0.464744,263.943,-15.9811)">
            <path d="M583.904,302L581.904,302L581.904,430L455.904,430L455.904,432L583.904,432L583.904,302Z" style="fill:rgb(48,48,48);fill-rule:nonzero;"/>
        </g>
        <g transform="matrix(0.474406,0,0,0.464744,263.943,-15.9811)">
            <rect x="36" y="123" width="140" height="2" style="fill:rgb(63,63,63);"/>
        </g>
        <g transform="matrix(0.474406,0,0,0.464744,263.943,-15.9811)">
            <rect x="74" y="105" width="2" height="18.5" style="fill:rgb(63,63,63);"/>
        </g>
        <g transform="matrix(0.474406,0,0,0.464744,263.943,-15.9811)">
            <rect x="135" y="105" width="2" height="18.5" style="fill:rgb(63,63,63);"/>
        </g>
        <g transform="matrix(0.474406,0,0,0.464744,263.943,-15.9811)">
            <rect x="414" y="264" width="140" height="2" style="fill:rgb(63,63,63);"/>
        </g>
        <g transform="matrix(0.474406,0,0,0.464744,263.943,-15.9811)">
            <rect x="452" y="246" width="2" height="18.5" style="fill:rgb(63,63,63);"/>
        </g>
        <g transform="matrix(0.474406,0,0,0.464744,263.943,-15.9811)">
            <rect x="513" y="246" width="2" height="18.5" style="fill:rgb(63,63,63);"/>
        </g>
        <g transform="matrix(0.474406,0,0,0.464744,263.943,-15.9811)">
            <rect x="45" y="358" width="140" height="2" style="fill:rgb(63,63,63);"/>
        </g>
        <g transform="matrix(0.474406,0,0,0.464744,263.943,-15.9811)">
            <rect x="83" y="340" width="2" height="18.5" style="fill:rgb(63,63,63);"/>
        </g>
        <g transform="matrix(0.474406,0,0,0.464744,263.943,-15.9811)">
            <rect x="144" y="340" width="2" height="18.5" style="fill:rgb(63,63,63);"/>
        </g>
    </g>
    <g>
        <g transform="matrix(0.460416,0,0,0.460416,160.629,-74.1652)">
            <path d="M524.436,681.065L524.436,679.065C528.412,679.064 532.449,678.982 536.435,678.823L536.515,680.821C532.503,680.982 528.439,681.064 524.436,681.065ZM512.361,680.834C508.363,680.677 504.306,680.438 500.304,680.123L500.462,678.128C504.438,678.443 508.468,678.68 512.439,678.835L512.361,680.834ZM548.572,680.096L548.412,678.102C552.381,677.785 556.398,677.381 560.35,676.904L560.59,678.89C556.611,679.371 552.568,679.776 548.572,680.096L548.572,680.096ZM488.284,678.93C484.297,678.453 480.272,677.889 476.322,677.255L476.639,675.281C480.563,675.911 484.561,676.47 488.522,676.944L488.284,678.93ZM572.55,677.202L572.23,675.227C576.153,674.593 580.124,673.868 584.034,673.073L584.432,675.032C580.496,675.834 576.498,676.563 572.55,677.202L572.55,677.202ZM464.437,675.099C460.501,674.302 456.535,673.415 452.649,672.463L453.124,670.52C456.985,671.466 460.925,672.347 464.834,673.138L464.437,675.099ZM596.218,672.382L595.74,670.441C599.612,669.488 603.512,668.444 607.33,667.337L607.887,669.259C604.042,670.373 600.116,671.423 596.218,672.382L596.218,672.382ZM440.976,669.352C437.12,668.239 433.239,667.034 429.44,665.77L430.072,663.872C433.845,665.128 437.7,666.325 441.531,667.43L440.976,669.352ZM619.418,665.663L618.784,663.766C622.559,662.504 626.361,661.148 630.085,659.733L630.796,661.602C627.047,663.027 623.219,664.393 619.418,665.663L619.418,665.663ZM418.028,661.711C414.276,660.289 410.496,658.769 406.794,657.192L407.578,655.352C411.255,656.919 415.01,658.428 418.737,659.839L418.028,661.711ZM641.968,657.098L641.182,655.258C644.839,653.697 648.51,652.042 652.093,650.337L652.952,652.144C649.345,653.859 645.648,655.526 641.968,657.098L641.968,657.098ZM395.756,652.223C392.123,650.499 388.481,648.678 384.931,646.812L385.862,645.043C389.388,646.895 393.005,648.704 396.613,650.417L395.756,652.223ZM663.732,646.749L662.801,644.979C666.323,643.126 669.851,641.177 673.287,639.19L674.289,640.92C670.83,642.921 667.278,644.882 663.732,646.749L663.732,646.749ZM374.337,640.969C370.852,638.955 367.371,636.847 363.991,634.706L365.061,633.016C368.418,635.143 371.876,637.237 375.338,639.239L374.337,640.969ZM684.606,634.67L683.536,632.981C686.888,630.857 690.251,628.631 693.529,626.365L694.666,628.009C691.366,630.292 687.981,632.533 684.606,634.67L684.606,634.67ZM353.907,628.033C350.6,625.748 347.301,623.369 344.102,620.961L345.304,619.364C348.482,621.754 351.759,624.118 355.044,626.388L353.907,628.033ZM704.454,620.949L703.251,619.351C706.422,616.966 709.596,614.477 712.687,611.952L713.953,613.5C710.842,616.043 707.645,618.548 704.454,620.949L704.454,620.949ZM334.59,613.502C331.485,610.965 328.389,608.331 325.387,605.67L326.714,604.174C329.696,606.816 332.771,609.434 335.856,611.954L334.59,613.502ZM723.148,605.675L721.822,604.179C724.802,601.539 727.768,598.801 730.639,596.044L732.024,597.488C729.135,600.262 726.148,603.017 723.148,605.675L723.148,605.675ZM316.507,597.479C313.622,594.708 310.748,591.834 307.964,588.94L309.406,587.553C312.171,590.429 315.027,593.284 317.893,596.036L316.507,597.479ZM740.568,588.948L739.127,587.561C741.884,584.694 744.623,581.728 747.269,578.745L748.765,580.073C746.101,583.075 743.344,586.061 740.568,588.948L740.568,588.948ZM299.771,580.069C297.104,577.063 294.47,573.97 291.94,570.876L293.489,569.611C296.001,572.684 298.618,575.756 301.267,578.741L299.771,580.069ZM756.602,570.875L755.053,569.609C757.581,566.519 760.075,563.341 762.468,560.165L764.065,561.368C761.657,564.566 759.145,567.764 756.602,570.875L756.602,570.875ZM284.486,561.382C282.076,558.182 279.698,554.891 277.42,551.599L279.065,550.46C281.328,553.731 283.689,557 286.084,560.179L284.486,561.382ZM771.142,551.566L769.498,550.429C771.769,547.144 774.002,543.775 776.132,540.416L777.821,541.486C775.677,544.868 773.43,548.259 771.142,551.566L771.142,551.566ZM270.754,541.543C268.611,538.164 266.506,534.694 264.498,531.229L266.229,530.227C268.223,533.668 270.314,537.115 272.442,540.471L270.754,541.543ZM784.092,531.143L782.361,530.141C784.363,526.681 786.317,523.141 788.17,519.621L789.939,520.552C788.075,524.096 786.107,527.66 784.092,531.143ZM258.665,520.673C256.802,517.135 254.985,513.509 253.264,509.896L255.07,509.037C256.779,512.626 258.584,516.227 260.435,519.742L258.665,520.673ZM795.356,509.731L793.55,508.872C795.262,505.27 796.925,501.583 798.491,497.911L800.331,498.696C798.754,502.392 797.08,506.105 795.356,509.731ZM248.304,498.916C246.728,495.232 245.211,491.474 243.792,487.746L245.661,487.035C247.071,490.737 248.578,494.47 250.142,498.128L248.304,498.916ZM804.856,487.463L802.986,486.754C804.404,483.013 805.763,479.2 807.024,475.421L808.921,476.054C807.652,479.859 806.284,483.697 804.856,487.463ZM239.726,476.371C238.452,472.569 237.241,468.689 236.124,464.84L238.045,464.284C239.154,468.106 240.358,471.959 241.622,475.736L239.726,476.371ZM812.511,464.518L810.589,463.963C811.692,460.147 812.734,456.248 813.686,452.372L815.628,452.848C814.67,456.751 813.621,460.677 812.511,464.518ZM232.993,453.173C232.032,449.279 231.139,445.315 230.337,441.39L232.297,440.99C233.093,444.888 233.98,448.827 234.934,452.695L232.993,453.173ZM818.27,441.063L816.309,440.665C817.1,436.769 817.823,432.797 818.458,428.861L820.432,429.179C819.794,433.142 819.066,437.14 818.27,441.063ZM228.161,429.508C227.52,425.56 226.95,421.537 226.466,417.549L228.451,417.309C228.932,421.27 229.498,425.266 230.136,429.188L228.161,429.508ZM822.114,417.215L820.128,416.977C820.603,413.018 821.005,409.001 821.319,405.039L823.313,405.197C822.996,409.187 822.593,413.23 822.114,417.215L822.114,417.215ZM225.254,405.533C224.931,401.538 224.685,397.481 224.522,393.475L226.52,393.394C226.682,397.374 226.927,401.403 227.247,405.372L225.254,405.533ZM824.032,393.142L822.034,393.063C822.19,389.077 822.27,385.041 822.27,381.066L822.269,380.403L824.269,380.403L824.27,381.062C824.27,385.067 824.19,389.129 824.032,393.142ZM226.27,381.397L224.27,381.397L224.27,381.062C224.27,377.16 224.346,373.209 224.496,369.323L226.494,369.4C226.345,373.261 226.27,377.186 226.27,381.066L226.27,381.397ZM822.006,368.41C821.841,364.438 821.593,360.409 821.266,356.433L823.261,356.27C823.588,360.272 823.838,364.329 824.004,368.327L822.006,368.41ZM227.195,357.422L225.201,357.266C225.515,353.261 225.914,349.217 226.387,345.245L228.373,345.481C227.904,349.427 227.507,353.444 227.195,357.422L227.195,357.422ZM820.05,344.497C819.567,340.552 818.997,336.556 818.352,332.62L820.327,332.297C820.974,336.26 821.55,340.283 822.034,344.254L820.05,344.497ZM230.03,333.599L228.055,333.282C228.689,329.322 229.412,325.323 230.205,321.396L232.165,321.792C231.378,325.692 230.659,329.665 230.03,333.599L230.03,333.599ZM816.177,320.82C815.374,316.912 814.482,312.975 813.526,309.118L815.468,308.637C816.431,312.52 817.328,316.483 818.136,320.417L816.177,320.82ZM234.776,310.081L232.833,309.606C233.784,305.714 234.829,301.786 235.939,297.932L237.861,298.485C236.759,302.313 235.721,306.215 234.776,310.081ZM810.404,297.533C809.291,293.713 808.084,289.861 806.814,286.084L808.711,285.448C809.988,289.25 811.204,293.128 812.324,296.974L810.404,297.533ZM241.412,287.024L239.514,286.394C240.78,282.585 242.143,278.745 243.567,274.98L245.438,275.687C244.024,279.427 242.669,283.242 241.412,287.024ZM802.762,274.791C801.341,271.07 799.829,267.339 798.268,263.701L800.106,262.913C801.678,266.576 803.2,270.332 804.631,274.077L802.762,274.791ZM249.92,264.525L248.079,263.742C249.651,260.047 251.321,256.332 253.042,252.702L254.849,253.558C253.139,257.165 251.481,260.855 249.92,264.525ZM793.329,252.797C791.617,249.212 789.808,245.613 787.953,242.099L789.72,241.165C791.59,244.703 793.411,248.326 795.134,251.936L793.329,252.797ZM260.218,242.803L258.447,241.874C260.311,238.321 262.275,234.755 264.283,231.276L266.015,232.276C264.02,235.732 262.07,239.274 260.218,242.803ZM782.146,231.622C780.146,228.179 778.053,224.735 775.922,221.384L777.609,220.311C779.755,223.684 781.862,227.152 783.876,230.617L782.146,231.622ZM272.232,221.996L270.541,220.926C272.687,217.534 274.93,214.14 277.209,210.839L278.855,211.975C276.591,215.254 274.363,218.626 272.232,221.996ZM769.288,211.401C767.019,208.132 764.654,204.864 762.259,201.69L763.854,200.485C766.266,203.681 768.647,206.97 770.93,210.261L769.288,211.401ZM285.874,202.231L284.276,201.03C286.686,197.822 289.193,194.621 291.728,191.514L293.278,192.779C290.76,195.864 288.269,199.044 285.874,202.231ZM754.844,192.267C752.321,189.189 749.7,186.12 747.055,183.146L748.55,181.816C751.213,184.811 753.85,187.9 756.39,190.999L754.844,192.267ZM301.053,183.632L299.555,182.307C302.211,179.307 304.965,176.318 307.742,173.422L309.186,174.807C306.427,177.683 303.691,180.653 301.053,183.632L301.053,183.632ZM738.907,174.34C736.139,171.469 733.281,168.618 730.41,165.867L731.794,164.423C734.683,167.192 737.561,170.062 740.347,172.953L738.907,174.34ZM317.663,166.315L316.277,164.874C319.162,162.097 322.146,159.339 325.144,156.676L326.472,158.171C323.494,160.817 320.53,163.557 317.663,166.315L317.663,166.315ZM721.581,157.739C718.593,155.097 715.514,152.482 712.43,149.969L713.694,148.419C716.798,150.949 719.897,153.581 722.905,156.241L721.581,157.739ZM335.598,150.388L334.331,148.841C337.434,146.3 340.627,143.791 343.822,141.382L345.026,142.979C341.852,145.371 338.68,147.864 335.598,150.388ZM702.972,142.571C699.782,140.177 696.502,137.817 693.225,135.557L694.36,133.911C697.659,136.186 700.961,138.561 704.174,140.972L702.972,142.571ZM354.741,135.953L353.602,134.31C356.899,132.025 360.281,129.78 363.655,127.638L364.727,129.326C361.376,131.454 358.016,133.684 354.742,135.953L354.741,135.953ZM683.201,128.939C679.829,126.809 676.369,124.719 672.916,122.729L673.916,120.996C677.39,123 680.874,125.104 684.269,127.248L683.201,128.939ZM374.969,123.108L373.965,121.377C377.423,119.372 380.973,117.407 384.515,115.539L385.449,117.307C381.93,119.164 378.404,121.115 374.969,123.108L374.969,123.108ZM662.388,116.937C658.855,115.086 655.236,113.282 651.63,111.574L652.485,109.767C656.116,111.485 659.761,113.302 663.315,115.165L662.388,116.937ZM396.15,111.937L395.289,110.131C398.895,108.412 402.589,106.741 406.268,105.165L407.055,107.003C403.401,108.568 399.732,110.228 396.15,111.937L396.15,111.937ZM640.66,106.651C636.984,105.09 633.228,103.584 629.496,102.175L630.203,100.304C633.96,101.723 637.742,103.239 641.441,104.81L640.66,106.651ZM418.148,102.516L417.436,100.646C421.178,99.22 425.004,97.85 428.808,96.574L429.444,98.47C425.666,99.737 421.866,101.099 418.148,102.516L418.148,102.516ZM618.155,98.156C614.376,96.902 610.519,95.709 606.692,94.61L607.245,92.688C611.098,93.795 614.979,94.996 618.784,96.257L618.155,98.156ZM440.895,94.885L440.337,92.965C444.183,91.846 448.108,90.791 452.002,89.827L452.482,91.769C448.614,92.726 444.716,93.774 440.895,94.885ZM595.095,91.533C591.234,90.591 587.293,89.715 583.383,88.928L583.777,86.967C587.714,87.759 591.681,88.642 595.569,89.59L595.095,91.533ZM464.185,89.126L463.784,87.167C467.704,86.364 471.702,85.629 475.664,84.983L475.986,86.957C472.05,87.599 468.079,88.329 464.185,89.126ZM571.575,86.799C567.642,86.172 563.643,85.617 559.69,85.149L559.926,83.163C563.905,83.634 567.93,84.193 571.889,84.825L571.575,86.799ZM487.864,85.267L487.622,83.281C491.6,82.797 495.643,82.386 499.638,82.062L499.801,84.055C495.832,84.378 491.816,84.785 487.864,85.267ZM547.75,83.977C543.785,83.668 539.755,83.435 535.771,83.284L535.847,81.285C539.857,81.437 543.914,81.672 547.905,81.983L547.75,83.977ZM511.778,83.322L511.696,81.324C515.695,81.159 519.758,81.072 523.772,81.065L523.775,83.065C519.787,83.072 515.751,83.159 511.778,83.322Z" style="fill:rgb(63,63,63);fill-rule:nonzero;"/>
        </g>
        <g transform="matrix(0.460416,0,0,0.460416,243.38,-36.8413)">
            <rect x="409.664" y="163.816" width="430.876" height="85.07" style="fill:rgb(133,133,133);"/>
            <rect x="409.664" y="263.249" width="430.876" height="85.07" style="fill:rgb(230,230,230);"/>
            <g>
                <circle cx="454.961" cy="205.798" r="25.411" style="fill:white;"/>
                <rect x="515.726" y="195.855" width="250.792" height="5.524" style="fill:white;"/>
                <rect x="515.726" y="210.218" width="250.792" height="5.524" style="fill:white;"/>
            </g>
            <g transform="matrix(1,0,0,1,-2.18013,99.0541)">
                <rect x="409.664" y="163.816" width="430.876" height="85.07" style="fill:rgb(133,133,133);"/>
            </g>
            <circle cx="454.961" cy="306.336" r="25.411" style="fill:white;"/>
            <g transform="matrix(1,0,0,1,0,105.044)">
                <path d="M452.646,215.405L443.545,203.271L445.701,201.654L453.115,211.539L482.305,187.657L484.011,189.743L452.646,215.405Z" style="fill:rgb(133,133,133);fill-rule:nonzero;"/>
            </g>
            <rect x="515.726" y="296.393" width="250.792" height="5.524" style="fill:white;"/>
            <rect x="515.726" y="310.756" width="250.792" height="5.524" style="fill:white;"/>
            <rect x="515.726" y="296.393" width="250.792" height="5.524" style="fill:white;"/>
            <rect x="515.726" y="310.756" width="250.792" height="5.524" style="fill:white;"/>
            <g>
                <rect x="409.664" y="360.927" width="430.876" height="85.07" style="fill:rgb(230,230,230);"/>
                <g transform="matrix(1,0,0,1,-2.18013,195.409)">
                    <rect x="409.664" y="163.816" width="430.876" height="85.07" style="fill:rgb(133,133,133);"/>
                </g>
                <circle cx="454.961" cy="404.015" r="25.411" style="fill:white;"/>
                <g transform="matrix(1,0,0,1,0,200.3)">
                    <path d="M452.646,215.405L443.545,203.271L445.701,201.654L453.115,211.539L482.305,187.657L484.011,189.743L452.646,215.405Z" style="fill:rgb(133,133,133);fill-rule:nonzero;"/>
                </g>
                <rect x="515.726" y="394.071" width="250.792" height="5.524" style="fill:white;"/>
                <rect x="515.726" y="408.434" width="250.792" height="5.524" style="fill:white;"/>
                <rect x="515.726" y="394.071" width="250.792" height="5.524" style="fill:white;"/>
                <rect x="515.726" y="408.434" width="250.792" height="5.524" style="fill:white;"/>
            </g>
            <path d="M452.646,215.405L443.545,203.271L445.701,201.654L453.115,211.539L482.305,187.657L484.011,189.743L452.646,215.405Z" style="fill:rgb(133,133,133);fill-rule:nonzero;"/>
        </g>
    </g>
</svg>
