<?xml version="1.0" encoding="UTF-8" standalone="no"?>
<!DOCTYPE svg PUBLIC "-//W3C//DTD SVG 1.1//EN" "http://www.w3.org/Graphics/SVG/1.1/DTD/svg11.dtd">
<svg width="100%" height="100%" viewBox="0 0 991 638" version="1.1" xmlns="http://www.w3.org/2000/svg" xmlns:xlink="http://www.w3.org/1999/xlink" xml:space="preserve" xmlns:serif="http://www.serif.com/" style="fill-rule:evenodd;clip-rule:evenodd;stroke-miterlimit:10;">
    <g id="_2" serif:id="2">
        <g transform="matrix(1,0,0,1,-19.0239,-134.012)">
            <path d="M761.232,728.364C761.232,728.364 733.797,750.745 719.357,750.023C704.917,749.301 702.751,764.463 719.357,766.629C735.963,768.795 785.78,769.517 790.112,766.629C794.444,763.741 793,733.417 790.112,732.695C787.224,731.974 761.232,728.364 761.232,728.364Z" style="fill:rgb(242,242,242);fill-rule:nonzero;"/>
        </g>
        <g transform="matrix(0.952016,-0.306048,0.306048,0.952016,-78.123,254.191)">
            <path d="M776.187,158.439C770.67,156.006 771.021,147.063 772.907,141.914C772.38,141.966 776.37,139.718 777.158,137.415C778.586,133.241 779.325,132.395 782.596,128.905C787.018,124.188 793.422,119.577 801.635,116.81C809.752,114.074 815.516,115.583 820.353,117.282C824.946,119.976 823.3,118.525 828.953,122.314C833.089,125.087 833.181,127.384 836.628,131.077C838.376,132.56 839.957,137.321 842.901,139.879C846.138,142.691 845.219,143.883 854.374,142.689C854.799,143.78 857.45,142.775 857.988,142.905L857.91,142.262C867.562,141.162 872.457,146.05 876.949,151.378C878.469,155.492 880.317,171.425 878.503,168.489C875.712,163.975 878.488,177.117 876.64,172.893C875.4,170.06 873.781,170.477 874.125,173.897C869.751,175.802 869.834,165.639 870.557,175.737C870.622,176.638 868.001,174.435 868.158,175.37C868.32,176.332 867.625,176.782 867.438,177.055C866.772,178.025 865.018,175.436 864.201,173.813C862.817,171.06 865.917,165.169 865.246,160.132C864.449,154.147 860.057,149.235 859.255,148.973C855.081,146.451 850.447,145.236 848.279,146.94C847.581,147.489 847.18,148.067 847.066,149.241C852.101,154.643 853.034,160.866 852.171,166.786C852.646,167.829 853.072,168.734 853.355,169.145C854.741,171.153 854.817,173.131 854.361,174.748C853.951,176.198 853.109,177.487 852.479,176.099C852.623,175.98 851.45,175.383 850.066,174.651C847.599,181.231 844.041,186.598 843.551,188.726C845.478,192.686 847.688,196.501 850.165,200.142C853.327,198.673 855.451,197.736 855.451,197.736L857.033,202.722C860.3,204.635 859.43,208.889 859.43,208.889C864.926,210.668 874.642,225.195 874.642,225.195C897.451,248.513 847.879,375.895 840.161,380.986C834.258,384.88 834.239,389.787 833.337,392.505C833.465,397.748 832.355,399.068 830.7,404.045C828.415,410.917 827.278,409.77 823.155,414.034C817.742,419.631 810.899,425.549 807.911,426.705C807.911,426.705 775.663,486.729 783.64,497.013C787.208,501.613 786.406,542.377 791.15,557.41C791.15,557.41 801.265,590.347 793.233,591.531C793.233,591.531 799.548,602.024 804.176,611.206C807.417,617.636 803.571,604.73 804.176,611.206C805.064,620.718 784.752,623.885 774.521,626.32C743.809,633.63 748.724,628.503 748.066,629.085L737.361,621.068C738.75,619.582 765.873,605.566 758.275,594.12C740.516,567.366 749.438,511.029 743.569,498.072C737.338,493.681 738.325,475.391 755.547,433.207C762.724,415.625 762.614,413.911 757.776,424.22C753.266,433.832 725.756,466.205 725.766,467.366C725.866,478.782 711.343,584.41 706.797,586.733C702.25,589.056 696.228,605.32 696.228,605.32C696.076,605.361 695.929,605.389 695.778,605.428C695.787,612.275 689.206,634.558 684.851,635.787C679.84,637.201 655.228,595.379 664.696,592.103C664.357,591.249 664.314,590.669 664.59,590.528C666.408,589.599 679.564,502.989 681.829,474.885C684.094,446.781 685.355,442.155 685.355,442.155C688.769,423.255 735.178,389.968 747.575,371.503C747.506,369.106 756.543,367.191 758.786,363.832C758.426,356.482 758.256,337.745 765.289,330.954C767.586,328.737 770.982,323.122 774.891,315.758C765.127,310.783 757.971,306.802 756.623,306.143C755.881,305.78 755.715,304.939 755.949,303.794C752.764,302.901 748.824,301.741 744.847,300.431L742.667,302.727C742.234,303.218 741.609,303.5 740.955,303.5C740.258,303.5 739.598,303.181 739.165,302.636L732.734,295.809C727.453,293.35 724.183,290.831 726.104,288.77L701.625,262.782C701.058,262.227 700.737,261.465 700.737,260.671C700.737,259.848 701.081,259.061 701.686,258.501L726.393,246.791C727.363,246.119 728.698,246.285 729.473,247.175L757.587,275.487C760.931,275.551 764.266,275.864 767.564,276.425C768.522,275.244 769.133,274.525 769.133,274.525C769.133,274.525 779.663,278.324 791.308,282.08C797.938,267.839 803.989,254.473 807.26,248.162C811.349,240.183 815.917,232.459 820.941,225.033C820.423,222.116 820.891,219.108 822.271,216.486C820.84,211.867 818.995,207.385 816.759,203.097C815.215,203.35 813.654,203.477 812.089,203.477C796.251,203.477 783.219,190.445 783.219,174.607C783.219,172.193 783.521,169.789 784.12,167.45L784.119,167.451C784.119,167.451 783.951,167.768 779.123,163.928C776.992,162.234 776.329,160.571 776.187,158.439Z" style="fill:rgb(242,242,242);fill-rule:nonzero;"/>
        </g>
    </g>
    <g id="Flower">
        <g>
            <g transform="matrix(1,0,0,1,-104.915,-130.966)">
                <path d="M1072.09,624.808C1065.63,621.519 1057.84,622.164 1052.01,626.469C1043.42,633.012 1042.12,645.815 1045.35,656.119C1048.58,666.423 1055.34,675.176 1060.63,684.588C1067.74,697.23 1072.32,711.695 1071.14,726.151C1069.96,740.607 1062.37,754.946 1049.72,762.042C1037.98,768.628 1023.76,768.376 1010.31,767.948" style="fill:none;fill-rule:nonzero;stroke:rgb(178,178,178);stroke-width:1px;"/>
            </g>
            <g transform="matrix(0.503481,-0.864007,0.864007,0.503481,-113.369,1116.03)">
                <ellipse cx="1080.74" cy="630.853" rx="7.083" ry="14.583" style="fill:rgb(205,205,205);stroke:rgb(178,178,178);stroke-width:1px;stroke-linejoin:round;stroke-miterlimit:2;"/>
            </g>
            <g transform="matrix(0.503481,-0.864007,0.864007,0.503481,-159.942,1127.37)">
                <ellipse cx="1067.32" cy="677.047" rx="7.083" ry="14.583" style="fill:rgb(205,205,205);stroke:rgb(178,178,178);stroke-width:1px;stroke-linejoin:round;stroke-miterlimit:2;"/>
            </g>
            <g transform="matrix(0.503481,-0.864007,0.864007,0.503481,-167.256,1100.76)">
                <ellipse cx="1040.51" cy="670.101" rx="7.083" ry="14.583" style="fill:rgb(205,205,205);stroke:rgb(178,178,178);stroke-width:1px;stroke-linejoin:round;stroke-miterlimit:2;"/>
            </g>
            <g transform="matrix(0.503481,-0.864007,0.864007,0.503481,-206.536,1142.04)">
                <ellipse cx="1056.79" cy="724.92" rx="7.083" ry="14.583" style="fill:rgb(205,205,205);stroke:rgb(178,178,178);stroke-width:1px;stroke-linejoin:round;stroke-miterlimit:2;"/>
            </g>
            <g transform="matrix(0.503481,-0.864007,0.864007,0.503481,-206.711,1171.11)">
                <ellipse cx="1081.99" cy="739.605" rx="7.083" ry="14.583" style="fill:rgb(205,205,205);stroke:rgb(178,178,178);stroke-width:1px;stroke-linejoin:round;stroke-miterlimit:2;"/>
            </g>
        </g>
        <g>
            <g transform="matrix(1,0,0,1,-104.915,-130.966)">
                <path d="M991.482,613.28C984.248,613.689 977.841,618.168 974.974,624.822C970.846,634.801 976.161,646.521 984.14,653.798C992.119,661.074 1002.37,665.233 1011.68,670.7C1024.19,678.042 1035.43,688.235 1041.69,701.319C1047.94,714.404 1048.61,730.611 1041.25,743.111C1034.42,754.713 1022.01,761.657 1010.17,768.061" style="fill:none;fill-rule:nonzero;stroke:rgb(178,178,178);stroke-width:1px;"/>
            </g>
            <ellipse cx="897.083" cy="483.183" rx="14.583" ry="7.083" style="fill:rgb(106,161,102);stroke:rgb(42,180,22);stroke-width:1px;stroke-linejoin:round;stroke-miterlimit:2;"/>
            <ellipse cx="908.75" cy="529.85" rx="14.583" ry="7.083" style="fill:rgb(106,161,102);stroke:rgb(42,180,22);stroke-width:1px;stroke-linejoin:round;stroke-miterlimit:2;"/>
            <ellipse cx="882.083" cy="537.35" rx="14.583" ry="7.083" style="fill:rgb(106,161,102);stroke:rgb(42,180,22);stroke-width:1px;stroke-linejoin:round;stroke-miterlimit:2;"/>
            <ellipse cx="923.75" cy="576.516" rx="14.583" ry="7.083" style="fill:rgb(106,161,102);stroke:rgb(42,180,22);stroke-width:1px;stroke-linejoin:round;stroke-miterlimit:2;"/>
            <ellipse cx="952.917" cy="576.516" rx="14.583" ry="7.083" style="fill:rgb(106,161,102);stroke:rgb(42,180,22);stroke-width:1px;stroke-linejoin:round;stroke-miterlimit:2;"/>
        </g>
    </g>
    <g id="tablet">
        <g id="right" transform="matrix(0.00481538,0,0,0.00481538,449.415,239.519)">
            <g transform="matrix(-72.4727,0,0,72.4727,85521,-32711.4)">
                <path d="M572,537C564.3,547.4 587.7,563.1 601,558C597.2,537.6 616.9,524.5 610,511C605.1,516.6 599.6,524.1 594,527C586.7,530.3 581.9,538.6 573,538L572,537Z" style="fill:rgb(152,99,75);fill-rule:nonzero;stroke:rgb(152,99,75);stroke-width:0.96px;stroke-linecap:round;stroke-linejoin:round;stroke-miterlimit:4;"/>
            </g>
            <g transform="matrix(-72.4727,0,0,72.4727,85521,-32711.4)">
                <path d="M676,573L678,573C679.7,573 683.9,571.2 682,567C678.8,566.6 672.7,567 672,568L672,570C675.2,569.9 676.5,573.4 676,573Z" style="fill:rgb(149,91,76);fill-rule:nonzero;stroke:rgb(149,91,76);stroke-width:0.96px;stroke-linecap:round;stroke-linejoin:round;stroke-miterlimit:4;"/>
            </g>
            <g transform="matrix(-72.4727,0,0,72.4727,85521,-32711.4)">
                <path d="M608.052,553.824C624.713,551.782 632.995,543.026 635.195,539.426C628.495,540.326 631.2,534 628,532L627,532C621.4,515.4 644.8,518.1 653,511C654.1,509.45 653.165,511.322 653.42,512.157C653.675,512.993 655.12,512.792 653.82,513.742C666.72,524.842 661.489,526.227 670.799,521.69C679.464,516.418 677.332,519.816 674.632,515.716C674.632,515.716 674.112,513.524 665.012,505.924C661.536,504.467 652.793,501.51 651.993,502.31C648.818,501.178 644.1,503.5 644,502C629.3,501.8 613.1,502 610,511C616.9,524.5 597.2,537.6 601,558L608.052,553.824Z" style="fill:rgb(190,122,100);fill-rule:nonzero;stroke:rgb(190,122,100);stroke-width:0.96px;stroke-linecap:round;stroke-linejoin:round;stroke-miterlimit:4;"/>
            </g>
            <g transform="matrix(-72.4727,0,0,72.4727,85521,-32711.4)">
                <path d="M421,568L424,568C431.7,565.4 436.3,559.7 443,556C439.9,556.9 429.8,552.8 435,545C420.3,541.8 409.2,534.1 401,523C397.9,522.3 397.3,526.8 396,525C396.2,523 393.9,519.7 392,520C387.7,520.5 388.6,525.6 389,525C389,531.5 392,533.7 390,540C390,548.6 392.8,558.1 393,567C404.4,565.7 411.9,561 421,568Z" style="fill:rgb(156,106,85);fill-rule:nonzero;stroke:rgb(156,106,85);stroke-width:0.96px;stroke-linecap:round;stroke-linejoin:round;stroke-miterlimit:4;"/>
            </g>
            <g transform="matrix(-72.4727,0,0,72.4727,85521,-32711.4)">
                <path d="M632.405,543.005C640.922,532.862 675.914,528.588 663.014,517.488L658,514C651.5,523.2 630.4,520 628,532C631.2,534 625.705,543.905 632.405,543.005Z" style="fill:rgb(97,38,24);fill-rule:nonzero;stroke:rgb(97,38,24);stroke-width:0.96px;stroke-linecap:round;stroke-linejoin:round;stroke-miterlimit:4;"/>
            </g>
            <g transform="matrix(-72.4727,0,0,72.4727,85521,-32711.4)">
                <path d="M627,532L628,532C630.4,520 653.98,520.288 662.94,520.182L666.719,518.167C675.839,512.058 650.809,507.926 651.009,507.026C642.809,514.126 621.4,515.4 627,532Z" style="fill:rgb(151,83,63);fill-rule:nonzero;stroke:rgb(151,83,63);stroke-width:0.96px;stroke-linecap:round;stroke-linejoin:round;stroke-miterlimit:4;"/>
            </g>
        </g>
        <g transform="matrix(1,0,0,1,-104.915,-130.966)">
            <path d="M691.223,406.581L739.21,432.94C739.585,433.189 740.025,433.322 740.475,433.322C741.383,433.322 742.208,432.781 742.571,431.949L754.326,407.377C754.784,405.936 754.112,404.36 752.754,403.694L712.912,383.158C711.901,382.55 710.579,382.802 709.864,383.741L689.963,402.49C689.715,402.931 689.585,403.429 689.585,403.936C689.585,405.055 690.221,406.082 691.223,406.581Z" style="fill:rgb(47,46,65);fill-rule:nonzero;"/>
        </g>
        <path d="M589.51,271.985L634.498,297.699L646.469,276.122L607.876,255.135L589.51,271.985Z" style="fill:rgb(63,61,86);fill-rule:nonzero;"/>
        <g transform="matrix(0.767819,-0.640666,0.640666,0.767819,-187.983,430.137)">
            <ellipse cx="732.604" cy="395.157" rx="0.565" ry="0.662" style="fill:rgb(242,242,242);"/>
        </g>
        <g transform="matrix(0.767819,-0.640666,0.640666,0.767819,-206.003,424.561)">
            <ellipse cx="715.901" cy="417.232" rx="0.376" ry="0.442" style="fill:rgb(242,242,242);"/>
        </g>
    </g>
    <g id="man">
        <g id="_1" serif:id="1">
            <g transform="matrix(1,0,0,1,-104.915,-130.966)">
                <path d="M898.412,690.82C898.412,690.82 911.407,721.866 904.188,727.642C896.968,733.418 898.412,744.247 903.466,744.247C908.52,744.247 920.071,734.139 926.569,721.866C931.41,712.722 939.456,694.364 943.245,685.594C943.502,684.998 943.635,684.357 943.635,683.708C943.635,681.623 942.262,679.769 940.267,679.161L919.349,672.77L898.412,690.82Z" style="fill:rgb(5,4,7);fill-rule:nonzero;"/>
            </g>
            <g transform="matrix(1,0,0,1,-104.915,-130.966)">
                <path d="M761.232,728.364C761.232,728.364 733.797,750.745 719.357,750.023C704.917,749.301 702.751,764.463 719.357,766.629C735.963,768.795 785.78,769.517 790.112,766.629C794.444,763.741 793,733.417 790.112,732.695C787.224,731.974 761.232,728.364 761.232,728.364Z" style="fill:rgb(5,4,7);fill-rule:nonzero;"/>
            </g>
            <g transform="matrix(1,0,0,1,-104.915,-130.966)">
                <path d="M854.37,498.047C854.37,498.047 854.37,520.429 842.818,529.815C842.818,529.815 829.1,599.848 841.374,604.18C853.648,608.512 909.241,646.056 914.295,664.828L926.569,674.214C926.569,674.214 904.188,696.596 899.856,696.596C895.524,696.596 852.926,638.114 814.66,627.284C814.66,627.284 790.834,621.508 791.556,590.462C792.278,559.417 820.436,477.109 820.436,477.109L852.926,477.109L854.37,498.047Z" style="fill:rgb(47,46,65);fill-rule:nonzero;"/>
            </g>
            <g transform="matrix(1,0,0,1,-104.915,-130.966)">
                <path d="M854.37,498.047C854.37,498.047 854.37,520.429 842.818,529.815C842.818,529.815 829.1,599.848 841.374,604.18C853.648,608.512 909.241,646.056 914.295,664.828L926.569,674.214C926.569,674.214 904.188,696.596 899.856,696.596C895.524,696.596 852.926,638.114 814.66,627.284C814.66,627.284 790.834,621.508 791.556,590.462C792.278,559.417 820.436,477.109 820.436,477.109L852.926,477.109L854.37,498.047Z" style="fill-opacity:0.1;fill-rule:nonzero;"/>
            </g>
            <g transform="matrix(1,0,0,1,-104.915,-130.966)">
                <path d="M779.282,482.885C779.282,482.885 757.622,550.753 761.232,577.466C761.232,577.466 752.568,602.736 759.066,630.172C765.564,657.608 758.344,728.364 756.9,729.808C755.456,731.251 772.784,746.413 791.556,734.14C791.556,734.14 792.278,716.812 795.888,713.202C799.498,709.592 799.498,633.782 795.888,622.952C792.278,612.122 834.876,533.425 834.876,533.425C834.876,533.425 857.98,512.487 849.316,501.657C840.652,490.827 850.038,469.167 850.038,469.167L784.336,473.499L779.282,482.885Z" style="fill:rgb(47,46,65);fill-rule:nonzero;"/>
            </g>
        </g>
        <g>
            <g transform="matrix(1,0,0,1,-104.915,-130.966)">
                <path d="M777.838,481.441C777.838,481.441 772.062,498.769 776.394,498.047C780.726,497.325 780.726,487.939 785.78,487.939C790.834,487.939 793.722,479.997 793.722,479.997L777.838,481.441Z" style="fill:rgb(0,43,246);fill-rule:nonzero;"/>
            </g>
            <g transform="matrix(1,0,0,1,-104.915,-130.966)">
                <path d="M814.66,482.885C814.66,482.885 831.266,518.985 852.204,515.375L856.292,513.623C859.805,512.12 861.74,508.266 860.849,504.551C858.854,496.235 855.187,482.885 852.204,482.885L814.66,482.885Z" style="fill:rgb(0,43,246);fill-rule:nonzero;"/>
            </g>
        </g>
        <g>
            <g>
                <g>
                    <g transform="matrix(1,0,0,1,-104.915,-130.966)">
                        <path d="M814.66,315.382C814.66,315.382 785.058,323.324 798.776,348.594C798.776,348.594 821.158,392.636 811.772,395.524C802.386,398.411 759.066,396.968 759.066,396.968C759.066,396.968 748.958,421.515 754.012,422.237C759.066,422.959 839.93,439.565 848.594,423.681C857.258,407.797 848.594,339.208 848.594,339.208C848.594,339.208 836.32,305.274 814.66,315.382Z" style="fill:rgb(46,134,248);fill-rule:nonzero;"/>
                    </g>
                    <g transform="matrix(1,0,0,1,-104.915,-130.966)">
                        <path d="M814.66,315.382C814.66,315.382 785.058,323.324 798.776,348.594C798.776,348.594 821.158,392.636 811.772,395.524C802.386,398.411 759.066,396.968 759.066,396.968C759.066,396.968 748.958,421.515 754.012,422.237C759.066,422.959 839.93,439.565 848.594,423.681C857.258,407.797 848.594,339.208 848.594,339.208C848.594,339.208 836.32,305.274 814.66,315.382Z" style="fill-opacity:0.1;fill-rule:nonzero;"/>
                    </g>
                </g>
                <g transform="matrix(1,0,0,1,-104.915,-130.966)">
                    <path d="M824.768,306.718C824.768,306.718 824.046,300.22 817.548,301.664C811.05,303.108 793.722,331.988 793.722,331.988C790.894,341.209 788.723,350.618 787.224,360.146C784.336,377.474 778.56,441.009 772.784,451.839C767.008,462.669 777.838,487.939 777.838,487.939C777.838,487.939 784.336,480.719 805.274,485.051C826.212,489.383 853.648,493.715 855.814,491.549C857.98,489.383 853.648,483.607 859.424,476.387C865.2,469.167 873.142,332.71 844.262,317.548C844.262,317.548 830.544,306.718 824.768,306.718Z" style="fill:rgb(46,134,248);fill-rule:nonzero;"/>
                </g>
                <g transform="matrix(1,0,0,1,-104.915,-130.966)">
                    <path d="M817.548,328.378C817.548,328.378 787.946,336.32 801.664,361.59C801.664,361.59 824.046,405.632 814.66,408.52C805.274,411.407 761.954,409.964 761.954,409.964C761.954,409.964 757.261,425.486 762.315,426.208C767.369,426.93 842.818,452.561 851.482,436.677C860.146,420.793 851.482,352.204 851.482,352.204C851.482,352.204 839.208,318.27 817.548,328.378Z" style="fill-opacity:0.1;fill-rule:nonzero;"/>
                </g>
            </g>
            <g id="left" transform="matrix(0.0034859,-0.000628771,0.000628771,0.0034859,481.232,269.351)">
                <g transform="matrix(-72.4727,0,0,72.4727,85521,-32711.4)">
                    <path d="M525,605C515.7,607.6 514.335,638.302 530.035,633.802C531.635,628.002 519.7,606.1 525,610L525,605Z" style="fill:rgb(250,220,171);fill-rule:nonzero;stroke:rgb(250,220,171);stroke-width:0.96px;stroke-linecap:round;stroke-linejoin:round;stroke-miterlimit:4;"/>
                </g>
                <g transform="matrix(-72.4727,0,0,72.4727,85521,-32711.4)">
                    <path d="M537,648C528.8,653.9 537.446,661.045 539.046,659.645C549.946,657.945 539.9,659.5 549,655L546,655C545.6,652.3 542.8,650.8 542,646C539.6,645.6 537.8,648.5 537,648Z" style="fill:rgb(222,168,136);fill-rule:nonzero;stroke:rgb(222,168,136);stroke-width:0.96px;stroke-linecap:round;stroke-linejoin:round;stroke-miterlimit:4;"/>
                </g>
                <g transform="matrix(-72.4727,0,0,72.4727,85521,-32711.4)">
                    <path d="M646,570C649.2,569.2 663.5,574.4 662,567C653.5,567.6 647.2,565.7 642,567L642,568C646.3,566.7 647.5,570.2 646,570Z" style="fill:rgb(245,203,169);fill-rule:nonzero;stroke:rgb(245,203,169);stroke-width:0.96px;stroke-linecap:round;stroke-linejoin:round;stroke-miterlimit:4;"/>
                </g>
                <g transform="matrix(-72.4727,0,0,72.4727,85521,-32711.4)">
                    <path d="M619,573C628.2,572.5 641.5,576.4 642,568L642,567C631.2,562.4 618.6,558.7 603,558C597.5,572.1 614.8,567.9 619,573Z" style="fill:rgb(247,232,204);fill-rule:nonzero;stroke:rgb(247,232,204);stroke-width:0.96px;stroke-linecap:round;stroke-linejoin:round;stroke-miterlimit:4;"/>
                </g>
                <g transform="matrix(-72.4727,0,0,72.4727,85521,-32711.4)">
                    <path d="M546,655L552,655C558.1,653.3 568.6,651.4 576,649C580.3,648.5 584.5,647.5 588,646C596.4,645.7 602.6,643.3 609,641L609,637C603.1,638.2 600.1,642.1 592,641C596.1,618.6 569.9,596.1 547,609C553.8,613.7 567.7,639.6 554,642C551.3,645.1 544.8,643.8 542,646C542.8,650.8 545.6,652.3 546,655Z" style="fill:rgb(240,181,149);fill-rule:nonzero;stroke:rgb(240,181,149);stroke-width:0.96px;stroke-linecap:round;stroke-linejoin:round;stroke-miterlimit:4;"/>
                </g>
                <g transform="matrix(-72.4727,0,0,72.4727,85521,-32711.4)">
                    <path d="M525,650C527.2,651.6 529,648.2 532,649C525,638.9 531.9,618.2 525,610C519.7,606.1 526.6,644.2 525,650Z" style="fill:rgb(249,215,171);fill-rule:nonzero;stroke:rgb(249,215,171);stroke-width:0.96px;stroke-linecap:round;stroke-linejoin:round;stroke-miterlimit:4;"/>
                </g>
                <g transform="matrix(-72.4727,0,0,72.4727,85521,-32711.4)">
                    <path d="M532,649C534.7,649.8 536.4,646.8 537,648C538.1,646.8 542.3,646.3 542,646C544.8,643.8 551.3,645.1 554,642C554,629.1 552.8,614 545,609C543.8,604.7 542,600.6 538,597C534.6,598.1 533.1,600.8 529,601C528,602.2 525.6,605.1 525,605L525,610C531.9,618.2 525,638.9 532,649Z" style="fill:rgb(247,200,162);fill-rule:nonzero;stroke:rgb(247,200,162);stroke-width:0.96px;stroke-linecap:round;stroke-linejoin:round;stroke-miterlimit:4;"/>
                </g>
                <g transform="matrix(-72.4727,0,0,72.4727,85521,-32711.4)">
                    <path d="M554,642C567.7,639.6 553.8,613.7 547,609L545,609C552.8,614 554,629.1 554,642Z" style="fill:rgb(245,192,157);fill-rule:nonzero;stroke:rgb(245,192,157);stroke-width:0.96px;stroke-linecap:round;stroke-linejoin:round;stroke-miterlimit:4;"/>
                </g>
                <g transform="matrix(-72.4727,0,0,72.4727,85521,-32711.4)">
                    <path d="M592,641C600.1,642.1 603.1,638.2 609,637C603.1,628.4 614.3,625.8 621,627C628.9,621.2 635.9,609.3 645,608L646,606C648.6,597.5 669.751,601.249 675.251,597.849C676.251,592.249 676,590 672,588C659.8,578.2 682.5,586.5 672,570L672,568L668,569C667.9,567.6 663.3,566.6 662,567C663.5,574.4 649.2,569.2 646,570C648.8,566.9 642.4,568.6 642,568C641.5,576.4 628.2,572.5 619,573C614.8,567.9 597.5,572.1 603,558L601,558C587.7,563.1 576.1,572.8 565,579C561.2,581.3 558.7,584.8 554,586C550.2,591 542.1,594.4 538,597C542,600.6 543.8,604.7 545,609L547,609C569.9,596.1 596.1,618.6 592,641Z" style="fill:rgb(239,175,145);fill-rule:nonzero;stroke:rgb(239,175,145);stroke-width:0.96px;stroke-linecap:round;stroke-linejoin:round;stroke-miterlimit:4;"/>
                </g>
                <g transform="matrix(-72.4727,0,0,72.4727,85521,-32711.4)">
                    <path d="M609,641C625,641.2 638.1,628.8 657,633C661.7,634.7 668.4,630.7 673,633L677,632C678.3,631 684,631.6 682,630L682,628L680,628C671.2,627.3 661.4,624 651,624C638.7,623 631.3,629.5 621,628L621,627C614.3,625.8 603.1,628.4 609,637L609,641Z" style="fill:rgb(196,138,114);fill-rule:nonzero;stroke:rgb(196,138,114);stroke-width:0.96px;stroke-linecap:round;stroke-linejoin:round;stroke-miterlimit:4;"/>
                </g>
                <g transform="matrix(-72.4727,0,0,72.4727,85521,-32711.4)">
                    <path d="M682,630L691,630C692.6,628.4 701.1,629.7 702,626C696.2,627.3 688.5,629.5 682,628L682,630Z" style="fill:rgb(217,154,130);fill-rule:nonzero;stroke:rgb(217,154,130);stroke-width:0.96px;stroke-linecap:round;stroke-linejoin:round;stroke-miterlimit:4;"/>
                </g>
                <g transform="matrix(-72.4727,0,0,72.4727,85521,-32711.4)">
                    <path d="M621,628C631.3,629.5 638.7,623 651,624C652.3,619.1 648.4,616 655,615C651.4,613.5 640.3,616.1 645,608C635.9,609.3 628.9,621.2 621,627L621,628Z" style="fill:rgb(233,168,140);fill-rule:nonzero;stroke:rgb(233,168,140);stroke-width:0.96px;stroke-linecap:round;stroke-linejoin:round;stroke-miterlimit:4;"/>
                </g>
                <g transform="matrix(-72.4727,0,0,72.4727,85521,-32711.4)">
                    <path d="M680,628L682,628C688.5,629.5 696.2,627.3 702,626C702.5,626.6 706.1,617.2 699,619L698,619C696,617.4 687.1,619.1 686,617L682,617L668,617C666.9,614.4 657.4,616.6 655,615C648.4,616 652.3,619.1 651,624C661.4,624 671.2,627.3 680,628Z" style="fill:rgb(221,157,132);fill-rule:nonzero;stroke:rgb(221,157,132);stroke-width:0.96px;stroke-linecap:round;stroke-linejoin:round;stroke-miterlimit:4;"/>
                </g>
                <g transform="matrix(-72.4727,0,0,72.4727,85521,-32711.4)">
                    <path d="M646,606C653.9,602.2 669.8,605.9 678,604C677.9,602.2 672.1,602 673,599C667.5,602.4 648.6,597.5 646,606Z" style="fill:rgb(162,105,83);fill-rule:nonzero;stroke:rgb(162,105,83);stroke-width:0.96px;stroke-linecap:round;stroke-linejoin:round;stroke-miterlimit:4;"/>
                </g>
                <g transform="matrix(-72.4727,0,0,72.4727,85521,-32711.4)">
                    <path d="M686,606L687,606C693.6,598.2 696.7,603.3 705,601C695.2,597.6 691.2,584.5 684,578L682,578C682.2,576.4 678.3,574.7 678,573L676,573C676.6,571.3 672.7,570.4 672,570C682.5,586.5 659.8,578.2 672,588C676,590 674,593.4 673,599C672.1,602 677.9,602.2 678,604L680,605C679.7,606.3 687,604.1 686,606Z" style="fill:rgb(238,192,160);fill-rule:nonzero;stroke:rgb(238,192,160);stroke-width:0.96px;stroke-linecap:round;stroke-linejoin:round;stroke-miterlimit:4;"/>
                </g>
                <g transform="matrix(-72.4727,0,0,72.4727,85521,-32711.4)">
                    <path d="M703,614C706.4,614.4 709.7,609.5 711,605L709,605L708,601L705,601C696.7,603.3 679.445,592.024 672.845,599.824C673.579,600.21 673.773,604.861 677.779,604.456C685.402,603.686 693.141,609.632 694,610C698.1,611.2 701.5,612 703,614Z" style="fill:rgb(189,128,109);fill-rule:nonzero;stroke:rgb(189,128,109);stroke-width:0.96px;stroke-linecap:round;stroke-linejoin:round;stroke-miterlimit:4;"/>
                </g>
            </g>
            <g transform="matrix(1,0,0,1,-104.915,-130.966)">
                <path d="M817.548,324.046C817.548,324.046 787.946,331.988 801.664,357.258C801.664,357.258 824.046,401.3 814.66,404.188C805.274,407.076 761.954,405.632 761.954,405.632C761.954,405.632 751.846,430.179 756.9,430.901C761.954,431.623 842.818,448.229 851.482,432.345C860.146,416.461 851.482,347.872 851.482,347.872C851.482,347.872 839.208,313.938 817.548,324.046Z" style="fill:rgb(46,134,248);fill-rule:nonzero;"/>
            </g>
        </g>
        <g transform="matrix(1,0,0,1,-104.915,-130.966)">
            <path d="M787.946,275.672C787.946,275.672 811.05,302.386 816.826,303.108C822.602,303.83 797.962,331.764 797.962,331.764C797.962,331.764 784.336,311.772 774.95,309.606C765.564,307.44 787.946,275.672 787.946,275.672Z" style="fill:rgb(204,131,103);fill-rule:nonzero;"/>
        </g>
        <g transform="matrix(1,0,0,1,-104.915,-130.966)">
            <path d="M821.158,302.386L817.548,297.332C817.548,297.332 792.672,319.508 791.753,325.387C791.134,328.685 791.842,332.097 793.722,334.876L808.162,328.378L815.382,313.938L821.158,302.386Z" style="fill:rgb(0,43,246);fill-rule:nonzero;"/>
        </g>
    </g>
    <g transform="matrix(1.0381,0,0,1.0381,-23.4977,-3.7857)">
        <g transform="matrix(0.904915,0,0,0.863375,-36.0338,-98.4347)">
            <path d="M740.357,290.481C740.357,290.481 741.453,296.486 748.9,303.477C759.434,313.366 765.985,300.084 772.091,300.964C783.885,302.662 802.918,289.335 810.395,299.919C814.891,306.283 819.15,307.654 818.428,303.322C818.285,302.466 818.121,307.245 817.302,304.534C816.664,302.424 817.304,297.554 815.088,294.528C806.711,283.092 803.736,258.233 789.868,248.801C772.42,236.935 766.91,241.714 755.456,243.905C740.205,246.822 727.809,272.835 731.419,281.499C735.029,290.163 728.743,286.502 734.519,288.668C740.295,290.834 740.357,290.481 740.357,290.481Z" style="fill:rgb(17,17,17);fill-rule:nonzero;"/>
        </g>
        <g id="head" transform="matrix(0.25706,-0.08829,0.08829,0.25706,448.277,174.291)">
            <g transform="matrix(1.05211,0,0,1.05211,-39.7004,-17.9273)">
                <g transform="matrix(-1,0,0,1,1133,-2.84217e-14)">
                    <path d="M370,338C379,338.3 385.7,336.4 388,330L385,330C383.7,326.1 382.1,330.1 376,329C372.7,322.6 353.8,328.7 370,338Z" style="fill:rgb(161,102,73);fill-rule:nonzero;stroke:rgb(161,102,73);stroke-width:0.96px;stroke-linecap:round;stroke-linejoin:round;stroke-miterlimit:4;"/>
                </g>
                <g transform="matrix(-1,0,0,1,1133,-2.84217e-14)">
                    <path d="M338,331L339,331C340.4,322.8 347.7,332.7 353,330C350.9,324.8 349.7,321 342,317L338,317C338.7,314.3 332.5,315 331,315L330,317C328.6,324.4 338,324.9 338,331Z" style="fill:rgb(161,102,73);fill-rule:nonzero;stroke:rgb(161,102,73);stroke-width:0.96px;stroke-linecap:round;stroke-linejoin:round;stroke-miterlimit:4;"/>
                </g>
            </g>
            <g transform="matrix(-1,0,0,1,1133,0)">
                <path d="M329,335L330,335L333,333L329,333C328.6,328.3 324.6,324.1 324,321L322,321C321.2,316.9 317.1,311.9 315,309C317.8,318.3 325.9,325.8 329,335Z" style="fill:rgb(143,90,67);fill-rule:nonzero;stroke:rgb(143,90,67);stroke-width:0.96px;stroke-linecap:round;stroke-linejoin:round;stroke-miterlimit:4;"/>
            </g>
            <g transform="matrix(-1,0,0,1,1133,0)">
                <path d="M366.149,336.002C367.349,321.102 374.4,330.5 376,329C382,313.1 365.3,318 361,303C354.1,299.7 349.7,311 340,307C345.8,308.9 341.1,314.9 342,317C349.7,321 348.544,324.39 350.644,329.59C353.244,332.29 364.749,334.002 366.149,336.002Z" style="fill:rgb(134,91,67);fill-rule:nonzero;"/>
            </g>
            <g transform="matrix(-1,0,0,1,1133,0)">
                <path d="M329,333L333,333C333.6,331.8 337.9,331.3 338,331C338,324.9 328.6,324.4 330,317C326.7,316.9 325.8,322.1 324,321C324.6,324.1 328.6,328.3 329,333Z" style="fill:rgb(142,90,67);fill-rule:nonzero;stroke:rgb(142,90,67);stroke-width:0.96px;stroke-linecap:round;stroke-linejoin:round;stroke-miterlimit:4;"/>
            </g>
            <g transform="matrix(-1,0,0,1,1133,0)">
                <path d="M385,330L388,330C393,326.6 391.6,316.6 397,313L396,313C386.7,306.7 387.1,290 376,284C371.2,283.6 367.6,278.1 362,279C366.5,287.1 359.8,294.1 361,303C365.3,318 382,313.1 376,329C382.1,330.1 383.7,326.1 385,330Z" style="fill:rgb(161,102,73);fill-rule:nonzero;stroke:rgb(161,102,73);stroke-width:0.96px;stroke-linecap:round;stroke-linejoin:round;stroke-miterlimit:4;"/>
            </g>
            <g transform="matrix(-1,0,0,1,1133,0)">
                <path d="M322,321L324,321C325.8,322.1 326.7,316.9 330,317L331,315C332.4,308 338.1,307.7 340,307C349.7,311 354.1,299.7 361,303C359.8,294.1 366.5,287.1 362,279C357.4,271.7 336.496,257.181 330.596,263.681C325.096,274.281 336.509,298.111 324.509,300.311C328.009,304.811 322.089,308.367 320.689,308.667L317.653,315.047C319.753,317.947 321.2,316.9 322,321Z" style="fill:rgb(152,95,67);fill-rule:nonzero;stroke:rgb(152,95,67);stroke-width:0.96px;stroke-linecap:round;stroke-linejoin:round;stroke-miterlimit:4;"/>
            </g>
            <g transform="matrix(-1,0,0,1,1133,0)">
                <path d="M338,317L342,317C341.1,314.9 345.8,308.9 340,307C338.1,307.7 332.4,308 331,315C332.5,315 338.7,314.3 338,317Z" style="fill:rgb(175,111,80);fill-rule:nonzero;"/>
            </g>
            <g transform="matrix(-1,0,0,1,1133,0)">
                <path d="M396,313L397,313C404.7,309.1 410.9,303.3 416,297L414,297C417.9,296.6 414.6,289 420,290C422.1,290 423.3,286 423,285L421,285C422.7,282.2 418.2,281.6 419,280C416.1,282.5 413.1,287.7 410,288C411,285.2 400.4,287.1 398,285L396,285C395.7,275.9 383.1,284.8 376,284C387.1,290 386.7,306.7 396,313Z" style="fill:rgb(173,112,83);fill-rule:nonzero;stroke:rgb(173,112,83);stroke-width:0.96px;stroke-linecap:round;stroke-linejoin:round;stroke-miterlimit:4;"/>
            </g>
            <g transform="matrix(-1,0,0,1,1133,0)">
                <path d="M315,308C316.4,307.7 315.45,309.886 311.95,305.386L316,303C311.8,297.7 308.6,298.9 303,293L304,297C305.2,297.2 309.1,298.9 308,302L315,308Z" style="fill:rgb(166,105,79);fill-rule:nonzero;stroke:rgb(166,105,79);stroke-width:0.96px;stroke-linecap:round;stroke-linejoin:round;stroke-miterlimit:4;"/>
            </g>
            <g transform="matrix(-1,0,0,1,1133,0)">
                <path d="M316,303L317,303C329,300.8 321.566,292.669 327.066,282.069C321.466,274.769 329.2,246.6 330,240C312.1,225.9 295.7,250.1 277,254C285.6,268.1 295.6,279.6 303,293C308.6,298.9 311.8,297.7 316,303Z" style="fill:rgb(204,131,103);fill-rule:nonzero;stroke:rgb(204,131,103);stroke-width:0.96px;stroke-linecap:round;stroke-linejoin:round;stroke-miterlimit:4;"/>
            </g>
            <g transform="matrix(-1,0,0,1,1133,0)">
                <path d="M414,297L416,297C417.8,295.2 421.1,292.4 420,290C414.6,289 417.9,296.6 414,297Z" style="fill:rgb(173,118,93);fill-rule:nonzero;stroke:rgb(173,118,93);stroke-width:0.96px;stroke-linecap:round;stroke-linejoin:round;stroke-miterlimit:4;"/>
            </g>
            <g transform="matrix(-1,0,0,1,1133,0)">
                <path d="M302,293L303,293C295.6,279.6 285.6,268.1 277,254L276,258C277.3,258.2 278.9,262.3 280,263C283.5,268.1 289.4,274.5 293,280C296.3,281.4 295.1,286.9 298,288C299.2,287.8 300.7,291.9 302,293Z" style="fill:rgb(206,132,105);fill-rule:nonzero;stroke:rgb(206,132,105);stroke-width:0.96px;stroke-linecap:round;stroke-linejoin:round;stroke-miterlimit:4;"/>
            </g>
            <g transform="matrix(-1,0,0,1,1133,0)">
                <path d="M410,288C413.1,287.7 416.1,282.5 419,280C420.6,279.1 419.6,271.6 425,271C411.1,263.5 429.4,246.6 434,239C425.9,233.6 408.3,217.2 435,219C426.5,216.4 418.7,193.2 433,191C442.6,184.6 450.1,175.8 457,167L452,167C443.6,179.9 432.6,192.6 417,198L415,196C410.3,198.6 406.7,201.8 401,203C398.9,206.1 393.7,209.1 393,212C390.3,222.9 385.8,234.8 378,239C383,257.9 393.3,265.1 398,285C400.4,287.1 411,285.2 410,288Z" style="fill:rgb(212,137,107);fill-rule:nonzero;stroke:rgb(212,137,107);stroke-width:0.96px;stroke-linecap:round;stroke-linejoin:round;stroke-miterlimit:4;"/>
            </g>
            <g transform="matrix(-1,0,0,1,1133,0)">
                <path d="M396,285L398,285C393.3,265.1 383,257.9 378,239C375.9,239.7 371.8,241.2 370,240C365.3,236.9 371.601,233.83 373.301,227.93C371.901,227.03 362.8,216.9 362,216C361.2,213.1 357.6,212.4 354,210C342.1,204.8 350.3,218.9 340,219C339.4,216.8 336.719,208.647 333.419,209.047C331.119,212.647 326.7,219.7 322,219C323.9,222.2 325.7,226.8 325,228C330.9,231.6 348.3,241.3 330,240C329.2,246.6 329.112,257.76 340.707,282.123C350.438,302.568 378.822,313.476 384.679,333.562C386.309,339.155 395.279,321.029 387.089,308.605C382.596,301.789 378.212,303.728 377.915,289.576C385.015,290.376 395.7,275.9 396,285Z" style="fill:rgb(193,122,94);fill-rule:nonzero;stroke:rgb(193,122,94);stroke-width:0.96px;stroke-linecap:round;stroke-linejoin:round;stroke-miterlimit:4;"/>
            </g>
            <g transform="matrix(-1,0,0,1,1133,0)">
                <path d="M421,285L423,285C426.8,282.2 437,282.6 442,282L441,279L438,276C432.1,276.8 429.2,273.6 425,271C419.6,271.6 420.6,279.1 419,280C418.2,281.6 422.7,282.2 421,285Z" style="fill:rgb(112,46,34);fill-rule:nonzero;stroke:rgb(112,46,34);stroke-width:0.96px;stroke-linecap:round;stroke-linejoin:round;stroke-miterlimit:4;"/>
            </g>
            <g transform="matrix(-1,0,0,1,1133,0)">
                <path d="M442,282C446,283.9 449.3,281.6 448,280L446,280C447,277.6 440.1,279.7 441,279L442,282Z" style="fill:rgb(186,114,94);fill-rule:nonzero;stroke:rgb(186,114,94);stroke-width:0.96px;stroke-linecap:round;stroke-linejoin:round;stroke-miterlimit:4;"/>
            </g>
            <g transform="matrix(-1,0,0,1,1133,0)">
                <path d="M446,280L448,280C449.2,275.4 440.6,276.7 438,276L441,279C443.2,278.6 447.5,279.1 446,280Z" style="fill:rgb(183,112,91);fill-rule:nonzero;stroke:rgb(183,112,91);stroke-width:0.96px;stroke-linecap:round;stroke-linejoin:round;stroke-miterlimit:4;"/>
            </g>
            <g transform="matrix(-1,0,0,1,1133,0)">
                <path d="M448,280C454.1,278.2 448,269.3 450,264L448,264L447,263L443,263C442.4,258.6 438.5,256.5 447,257C447.1,253.8 446.8,247.4 450,249C448.4,240.1 454.2,238.1 455,231C446.7,232.4 443,238.2 434,239C429.4,246.6 411.1,263.5 425,271C429.2,273.6 432.1,276.8 438,276C440.6,276.7 449.2,275.4 448,280Z" style="fill:rgb(235,162,134);fill-rule:nonzero;stroke:rgb(235,162,134);stroke-width:0.96px;stroke-linecap:round;stroke-linejoin:round;stroke-miterlimit:4;"/>
            </g>
            <g transform="matrix(-1,0,0,1,1133,0)">
                <path d="M448,264L450,264L450,249C446.8,247.4 447.1,253.8 447,257L447,263L448,264Z" style="fill:rgb(241,182,156);fill-rule:nonzero;stroke:rgb(241,182,156);stroke-width:0.96px;stroke-linecap:round;stroke-linejoin:round;stroke-miterlimit:4;"/>
            </g>
            <g transform="matrix(-1,0,0,1,1133,0)">
                <path d="M443,263L447,263L447,257C438.5,256.5 442.4,258.6 443,263Z" style="fill:rgb(244,184,158);fill-rule:nonzero;stroke:rgb(244,184,158);stroke-width:0.96px;stroke-linecap:round;stroke-linejoin:round;stroke-miterlimit:4;"/>
            </g>
            <g transform="matrix(-1,0,0,1,1133,0)">
                <path d="M245.492,272.599L276,258L277.401,264.348C296.101,260.448 304.1,216.9 322,231C340.3,232.3 330.9,231.6 325,228L322,231C319.3,228.8 315.9,223.2 312,222L308,222C304.757,237.775 282.773,236.269 273.215,244.743C271.867,245.938 270.766,247.331 270,249C253.629,250.194 246.492,267.699 245.492,272.599Z" style="fill:rgb(152,90,65);fill-rule:nonzero;stroke:rgb(152,90,65);stroke-width:0.96px;stroke-linecap:round;stroke-linejoin:round;stroke-miterlimit:4;"/>
            </g>
            <g transform="matrix(-1,0,0,1,1133,0)">
                <path d="M254.629,255.865L270,249C276.2,235.5 304.3,240 308,222C295.9,231.2 276.2,232.9 262,240C261.4,243.7 255.929,250.965 254.629,255.865Z" style="fill:rgb(98,53,34);fill-rule:nonzero;stroke:rgb(98,53,34);stroke-width:0.96px;stroke-linecap:round;stroke-linejoin:round;stroke-miterlimit:4;"/>
            </g>
            <g transform="matrix(-1,0,0,1,1133,0)">
                <path d="M262,240C276.2,232.9 295.9,231.2 308,222L312,222C315.8,219.9 317.4,217.3 317,214C315.4,210 316.6,198.9 316,194C302.4,198.2 305.1,215.8 290,218C283.4,225.9 262.3,227.5 262,240Z" style="fill:rgb(56,24,14);fill-rule:nonzero;stroke:rgb(56,24,14);stroke-width:0.96px;stroke-linecap:round;stroke-linejoin:round;stroke-miterlimit:4;"/>
            </g>
            <g transform="matrix(-1,0,0,1,1133,0)">
                <path d="M370,240C371.8,241.2 375.9,239.7 378,239C385.8,234.8 390.3,222.9 393,212L389,212C383.5,215.5 385.1,226.5 376,227C377.6,219.4 369.3,224.1 366,223L371.666,228.853C369.966,234.753 365.3,236.9 370,240Z" style="fill:rgb(117,63,43);fill-rule:nonzero;stroke:rgb(117,63,43);stroke-width:0.96px;stroke-linecap:round;stroke-linejoin:round;stroke-miterlimit:4;"/>
            </g>
            <g transform="matrix(-1,0,0,1,1133,0)">
                <path d="M434,239C443,238.2 446.7,232.4 455,231C456.5,229.7 458.9,226.1 459,225C458.4,223.4 455.3,221.3 456,219C452.4,218.1 443.4,221.2 435,219C408.3,217.2 425.9,233.6 434,239Z" style="fill:rgb(128,76,53);fill-rule:nonzero;stroke:rgb(128,76,53);stroke-width:0.96px;stroke-linecap:round;stroke-linejoin:round;stroke-miterlimit:4;"/>
            </g>
            <g transform="matrix(-1,0,0,1,1133,0)">
                <path d="M322,231L325,228C325.7,226.8 323.9,222.2 322,219L320,221C320.7,217.9 318.4,214.6 317,214C317.4,217.3 315.8,219.9 312,222C315.9,223.2 319.3,228.8 322,231Z" style="fill:rgb(134,68,46);fill-rule:nonzero;stroke:rgb(134,68,46);stroke-width:0.96px;stroke-linecap:round;stroke-linejoin:round;stroke-miterlimit:4;"/>
            </g>
            <g transform="matrix(-1,0,0,1,1133,0)">
                <path d="M376,227C385.1,226.5 383.5,215.5 389,212C382.7,212.1 383.6,219.9 376,219C371.2,215.5 374.7,211.1 370,205C367,202.2 362.5,195.1 358,190C361.2,195.5 353.5,205.5 354,210C357.6,212.4 361.2,213.1 362,216C365.7,216.4 367.2,221.3 366,223C369.3,224.1 377.6,219.4 376,227Z" style="fill:rgb(93,43,26);fill-rule:nonzero;stroke:rgb(93,43,26);stroke-width:0.96px;stroke-linecap:round;stroke-linejoin:round;stroke-miterlimit:4;"/>
            </g>
            <g transform="matrix(-1,0,0,1,1133,0)">
                <path d="M363,225L366,223C367.2,221.3 365.7,216.4 362,216C362.8,216.9 361.6,224.1 363,225Z" style="fill:rgb(147,86,62);fill-rule:nonzero;stroke:rgb(147,86,62);stroke-width:0.96px;stroke-linecap:round;stroke-linejoin:round;stroke-miterlimit:4;"/>
            </g>
            <g transform="matrix(-1,0,0,1,1133,0)">
                <path d="M459,225C461.2,225.3 462,221.4 461,221L457,221L456,219C455.3,221.3 458.4,223.4 459,225Z" style="fill:rgb(221,150,118);fill-rule:nonzero;stroke:rgb(221,150,118);stroke-width:0.96px;stroke-linecap:round;stroke-linejoin:round;stroke-miterlimit:4;"/>
            </g>
            <g transform="matrix(-1,0,0,1,1133,0)">
                <path d="M320,221L322,219C326.7,219.7 331.758,214.46 334.058,210.86C329.158,210.86 321.257,210.599 323.757,206.299C324.292,200.596 350.379,201.759 358.147,193.606C361.837,189.732 354.763,176.292 350.947,173.497C345.939,169.829 338.609,170.311 332.58,172.895C331.489,173.639 327.111,175.375 323.431,179.797C319.693,184.288 316.655,191.48 316,194C316.6,198.9 315.4,210 317,214C318.4,214.6 320.7,217.9 320,221Z" style="fill:rgb(172,96,73);fill-rule:nonzero;stroke:rgb(172,96,73);stroke-width:0.96px;stroke-linecap:round;stroke-linejoin:round;stroke-miterlimit:4;"/>
            </g>
            <g transform="matrix(-1,0,0,1,1133,0)">
                <path d="M457,221L461,221C468,204.9 473.5,185.9 475,167C473.1,170.7 462.4,166.6 461,168C461.1,164.7 458.2,166.9 457,167C450.1,175.8 442.6,184.6 433,191C418.7,193.2 426.5,216.4 435,219C443.4,221.2 452.4,218.1 456,219L457,221Z" style="fill:rgb(220,150,117);fill-rule:nonzero;stroke:rgb(220,150,117);stroke-width:0.96px;stroke-linecap:round;stroke-linejoin:round;stroke-miterlimit:4;"/>
            </g>
            <g transform="matrix(-1,0,0,1,1133,0)">
                <path d="M340,219C350.3,218.9 342.1,204.8 354,210C353.5,205.5 359.958,195.925 356.758,190.425C357.658,177.025 341.78,166.384 329.778,178.334C339.368,171.525 327.277,179.547 324.744,188.643C323.94,191.531 322.374,189.659 322.539,193.557C322.614,195.345 321.927,196.338 321.68,197.79C321.286,200.097 322.66,205.501 322.308,206.107C321.452,207.579 323.294,212.484 325.185,212.292C328.135,211.992 330.947,207.342 330.964,212.742C330.967,213.453 333.904,209.675 334.509,209.675C337.809,209.275 339.4,216.8 340,219Z" style="fill:rgb(127,62,42);fill-rule:nonzero;stroke:rgb(127,62,42);stroke-width:0.96px;stroke-linecap:round;stroke-linejoin:round;stroke-miterlimit:4;"/>
            </g>
            <g transform="matrix(-1,0,0,1,1133,0)">
                <path d="M376,219C383.6,219.9 382.7,212.1 389,212L393,212C393.7,209.1 398.9,206.1 401,203C389.7,201.4 377.3,215.9 370,205C374.7,211.1 371.2,215.5 376,219Z" style="fill:rgb(42,16,10);fill-rule:nonzero;stroke:rgb(42,16,10);stroke-width:0.96px;stroke-linecap:round;stroke-linejoin:round;stroke-miterlimit:4;"/>
            </g>
            <g transform="matrix(-1,0,0,1,1133,0)">
                <path d="M417,198C432.6,192.6 443.6,179.9 452,167L453,164C452.6,159.9 455.3,155.7 450,153C440.3,170.6 431,182.8 415,196L417,198Z" style="fill:rgb(84,46,30);fill-rule:nonzero;stroke:rgb(84,46,30);stroke-width:0.96px;stroke-linecap:round;stroke-linejoin:round;stroke-miterlimit:4;"/>
            </g>
            <g transform="matrix(-1,0,0,1,1133,0)">
                <path d="M461,168C462.4,166.6 473.1,170.7 475,167L475,155C459.4,149.1 464.1,159.8 453,164L452,167L457,167C458.2,166.9 461.1,164.7 461,168Z" style="fill:rgb(170,117,87);fill-rule:nonzero;stroke:rgb(170,117,87);stroke-width:0.96px;stroke-linecap:round;stroke-linejoin:round;stroke-miterlimit:4;"/>
            </g>
            <g transform="matrix(-1,0,0,1,1133,0)">
                <path d="M453,164C464.1,159.8 459.4,149.1 475,155C477.7,153.9 477.7,144.4 475,142L474,142L474,141L471,142C467.2,139.4 462.2,142.9 460,138C455.8,140.3 454,149.2 450,153C455.3,155.7 452.6,159.9 453,164Z" style="fill:rgb(112,75,52);fill-rule:nonzero;stroke:rgb(112,75,52);stroke-width:0.96px;stroke-linecap:round;stroke-linejoin:round;stroke-miterlimit:4;"/>
            </g>
            <g transform="matrix(-1,0,0,1,1133,0)">
                <path d="M474,142L475,142C478.2,142 473.9,135.6 475,133C473.7,132.5 474.5,138.9 474,141L474,142Z" style="fill:rgb(76,56,38);fill-rule:nonzero;stroke:rgb(76,56,38);stroke-width:0.96px;stroke-linecap:round;stroke-linejoin:round;stroke-miterlimit:4;"/>
            </g>
            <g transform="matrix(-1,0,0,1,1133,0)">
                <path d="M466,128C471.9,121.3 469.5,104.2 459,113C458.3,121.6 467.7,119.9 466,128Z" style="fill:rgb(49,34,23);fill-rule:nonzero;stroke:rgb(49,34,23);stroke-width:0.96px;stroke-linecap:round;stroke-linejoin:round;stroke-miterlimit:4;"/>
            </g>
        </g>
        <g transform="matrix(-0.305882,0.0610215,0.0610215,0.305882,763.856,75.1036)">
            <path d="M246.922,227.737C243.417,234.407 243.915,240.501 245.914,245.29C247.705,249.583 250.765,253.224 252.183,248.734C251.083,248.034 269.786,237.287 270.386,233.587C270.686,221.087 283.4,225.9 290,218C305.1,215.8 302.4,198.2 316,194C317.3,189 319.8,182.5 322,181C331.8,165.1 381.014,160.796 375.579,190.963C401.533,193.855 362.337,203.738 377.631,218.91C384.931,229.81 389.7,201.4 401,203C406.7,201.8 425.378,193.341 430.078,190.741C449.177,180.176 443.025,170.647 467.096,169.672C497.226,168.451 492.755,132.615 483.499,114.452C485.134,114.417 472.067,109.001 468.798,102.231C462.876,89.964 460.296,87.642 448.974,78.155C433.668,65.329 412.324,53.563 386.118,48.119C360.219,42.739 343.104,49.499 328.904,56.499C315.817,66.46 320.326,61.4 304.397,75.113C292.744,85.145 293.312,92.224 284.112,104.824C279.301,110.016 276.216,125.199 268.136,134.133C259.252,143.955 260.065,153.352 233.719,145.539C226.383,143.363 224.6,148.4 223,149L223,147C219.663,147.022 216.534,147.25 213.591,147.662C190.081,150.952 178.487,166.002 168,182C164.862,195.178 165.097,244.713 169.574,235.041C176.459,220.164 172.815,261.488 176.917,247.854C179.67,238.707 184.786,239.385 185,250C199.115,254.221 195.098,223.092 196.619,254.321C196.754,257.108 203.973,249.38 203.838,252.307C203.7,255.317 205.996,256.438 206.672,257.206C209.072,259.934 213.493,251.345 215.395,246.066C218.62,237.113 206.933,220.2 207.124,204.507C207.351,185.862 218.999,169.175 221.363,168.074C233.226,158.794 246.984,153.355 254.263,157.776C257.442,159.707 258.964,162.009 259.436,169.004C260.196,180.268 259.566,195.287 254.579,205.921C252.016,211.387 248.694,224.364 246.922,227.737Z" style="fill:rgb(6,3,2);fill-rule:nonzero;stroke:rgb(6,3,2);stroke-width:0.96px;stroke-linecap:round;stroke-linejoin:round;stroke-miterlimit:4;"/>
        </g>
    </g>
    <g>
        <circle cx="17" cy="23.5" r="17" style="fill:rgb(46,134,248);"/>
        <circle cx="22" cy="17.5" r="17" style="fill:none;stroke:rgb(63,61,86);stroke-width:1px;"/>
        <circle cx="224" cy="237.5" r="17" style="fill:rgb(242,242,242);"/>
        <circle cx="229" cy="231.5" r="17" style="fill:none;stroke:rgb(63,61,86);stroke-width:1px;"/>
        <circle cx="356" cy="108.5" r="17" style="fill:rgb(59,143,48);"/>
        <circle cx="361" cy="102.5" r="17" style="fill:none;stroke:rgb(63,61,86);stroke-width:1px;"/>
        <path d="M524.584,174.854C524.584,167.39 518.524,161.33 511.06,161.33L278.079,161.33C270.615,161.33 264.556,167.39 264.556,174.854L264.556,276.976C264.556,284.44 270.615,290.5 278.079,290.5L511.06,290.5C518.524,290.5 524.584,284.44 524.584,276.976L524.584,174.854Z" style="fill:rgb(67,146,39);stroke:rgb(195,255,189);stroke-width:1px;stroke-linejoin:round;stroke-miterlimit:2;"/>
        <path d="M313.944,65.524C313.944,58.06 307.885,52 300.421,52L67.44,52C59.976,52 53.916,58.06 53.916,65.524L53.916,167.646C53.916,175.11 59.976,181.17 67.44,181.17L300.421,181.17C307.885,181.17 313.944,175.11 313.944,167.646L313.944,65.524Z" style="fill:none;stroke:rgb(63,61,86);stroke-width:1px;"/>
        <path d="M539.781,163.878C539.781,156.415 533.721,150.355 526.257,150.355L293.276,150.355C285.812,150.355 279.752,156.415 279.752,163.878L279.752,266.001C279.752,273.465 285.812,279.525 293.276,279.525L526.257,279.525C533.721,279.525 539.781,273.465 539.781,266.001L539.781,163.878Z" style="fill:none;stroke:rgb(63,61,86);stroke-width:1px;"/>
        <g transform="matrix(1,0,0,1,282.227,146.556)">
            <text x="69.969px" y="121.703px" style="font-family:'AndaleMono', 'Andale Mono', monospace;font-size:48px;fill:white;">GREAT!</text>
        </g>
        <path d="M298.748,76.499C298.748,69.035 292.688,62.975 285.224,62.975L52.243,62.975C44.779,62.975 38.719,69.035 38.719,76.499L38.719,178.622C38.719,186.085 44.779,192.145 52.243,192.145L285.224,192.145C292.688,192.145 298.748,186.085 298.748,178.622L298.748,76.499Z"/>
        <g>
            <text x="69.969px" y="96.503px" style="font-family:'AndaleMono', 'Andale Mono', monospace;font-size:12px;fill:rgb(11,255,0);">Security ON!</text>
            <text x="69.969px" y="120.503px" style="font-family:'AndaleMono', 'Andale Mono', monospace;font-size:12px;fill:rgb(11,255,0);">&gt;</text>
        </g>
    </g>
    <g id="heading">
    </g>
    <g id="Layer1">
    </g>
</svg>
