<?xml version="1.0" encoding="utf-8"?>
<!-- Generator: Adobe Illustrator 23.1.1, SVG Export Plug-In . SVG Version: 6.00 Build 0)  -->
<svg version="1.1" id="Layer_1" xmlns="http://www.w3.org/2000/svg" xmlns:xlink="http://www.w3.org/1999/xlink" x="0px" y="0px"
	 viewBox="0 0 104.6 89.8" style="enable-background:new 0 0 104.6 89.8;" xml:space="preserve">
<style type="text/css">
	.st0{fill:#F4DB61;}
	.st1{fill:#F4DB61;fill-opacity:0.9843;}
	.st2{fill:#69B130;}
	.st3{fill-rule:evenodd;clip-rule:evenodd;fill:#000100;}
	.st4{fill-rule:evenodd;clip-rule:evenodd;fill:#F4DB61;}
	.st5{fill:#000100;}
	.st6{fill-rule:evenodd;clip-rule:evenodd;fill:#F4DB61;fill-opacity:0.9843;}
	.st7{fill-rule:evenodd;clip-rule:evenodd;fill:#FFFFFF;}
	.st8{fill-rule:evenodd;clip-rule:evenodd;fill:#FFFFFF;fill-opacity:0.9843;}
	.st9{fill:none;}
	.st10{fill:#FFFFFF;}
	.st11{fill:#498046;}
</style>
<g>
	<g>
		<path class="st0" d="M11.1,55.7v-0.7c0-0.2,0-0.4,0.1-0.5c0.1-0.1,0.2-0.1,0.3-0.1s0.3,0,0.3,0.1c0.1,0.1,0.1,0.3,0.1,0.5v2.6
			c0,0.2,0,0.4-0.1,0.5c-0.1,0.1-0.2,0.2-0.3,0.1c-0.1,0-0.2,0-0.3-0.1c-0.1-0.1-0.1-0.2-0.2-0.4c0-0.6-0.4-1.2-1-1.7
			c-0.8-0.7-1.9-1-3-1c-0.7,0-1.4,0.2-2.1,0.5c-0.5,0.2-0.9,0.5-1.1,0.9C3.4,57,3,57.7,2.7,58.4c-0.2,0.5-0.3,1.1-0.3,1.8v1.6
			c0,1.4,0.5,2.6,1.5,3.7c1,1,2.2,1.6,3.5,1.6c0.8,0,1.5-0.2,2.2-0.5c0.6-0.4,1.3-0.9,1.9-1.6c0.1-0.2,0.3-0.2,0.4-0.2
			c0.1,0,0.2,0,0.3,0.1s0.1,0.2,0.1,0.3c0,0.2-0.2,0.4-0.5,0.8c-0.6,0.7-1.3,1.2-2.1,1.6C9.1,67.8,8.3,68,7.5,68
			c-0.7,0-1.4-0.1-2.1-0.4c-0.5-0.2-1-0.4-1.3-0.7c-0.4-0.3-0.8-0.7-1.3-1.4s-0.9-1.2-1-1.8c-0.2-0.5-0.3-1.1-0.3-1.8V60
			c0-0.9,0.2-1.9,0.7-2.8s1.2-1.7,2-2.2C5.1,54.4,6,54.1,7,54.1C8.6,54.1,9.9,54.7,11.1,55.7z M23.9,61.2h-6.3v5.4h1.3
			c0.2,0,0.4,0,0.5,0.1s0.1,0.2,0.1,0.3c0,0.1,0,0.2-0.1,0.3c-0.1,0.1-0.3,0.1-0.5,0.1h-3.3c-0.2,0-0.4,0-0.5-0.1
			c-0.1-0.1-0.1-0.2-0.1-0.3c0-0.1,0-0.3,0.1-0.3s0.3-0.1,0.5-0.1h1.1V55.4h-0.6c-0.2,0-0.4,0-0.5-0.1s-0.1-0.2-0.1-0.3
			c0-0.1,0-0.3,0.1-0.3c0.1-0.1,0.3-0.1,0.5-0.1h2.8c0.2,0,0.4,0,0.5,0.1c0.1,0.1,0.1,0.2,0.1,0.3c0,0.1,0,0.3-0.1,0.3
			s-0.3,0.1-0.5,0.1h-1.3v4.9h6.3v-4.9h-1.3c-0.2,0-0.4,0-0.5-0.1S22,55.1,22,54.9c0-0.1,0-0.3,0.1-0.3c0.1-0.1,0.3-0.1,0.5-0.1h2.8
			c0.2,0,0.4,0,0.5,0.1c0.1,0.1,0.1,0.2,0.1,0.3c0,0.1,0,0.3-0.1,0.3s-0.3,0.1-0.5,0.1h-0.6v11.3h1.1c0.2,0,0.4,0,0.5,0.1
			c0.1,0.1,0.1,0.2,0.1,0.3c0,0.1,0,0.2-0.1,0.3c-0.1,0.1-0.3,0.1-0.5,0.1h-3.3c-0.2,0-0.4,0-0.5-0.1c-0.1-0.1-0.1-0.2-0.1-0.3
			c0-0.1,0-0.3,0.1-0.3c0.1-0.1,0.3-0.1,0.5-0.1h1.3L23.9,61.2L23.9,61.2z M31.4,61.2v5.4h7.3v-2.8c0-0.2,0-0.4,0.1-0.5
			c0.1-0.1,0.2-0.1,0.3-0.1s0.3,0,0.3,0.1s0.1,0.3,0.1,0.5v3.7H29.2c-0.2,0-0.4,0-0.5-0.1c-0.1-0.1-0.1-0.2-0.1-0.3
			c0-0.1,0-0.3,0.1-0.3s0.3-0.1,0.5-0.1h1.3V55.4h-1.3c-0.2,0-0.4,0-0.5-0.1s-0.1-0.2-0.1-0.3c0-0.1,0-0.3,0.1-0.3
			c0.1-0.1,0.3-0.1,0.5-0.1h9.9v3.2c0,0.2,0,0.4-0.1,0.5c-0.1,0.1-0.2,0.1-0.3,0.1s-0.3,0-0.3-0.1s-0.1-0.3-0.1-0.5v-2.3h-6.8v4.9
			h3.4v-1.1c0-0.2,0-0.4,0.1-0.5c0.1-0.1,0.2-0.2,0.3-0.1c0.1,0,0.3,0.1,0.3,0.1c0.1,0.1,0.1,0.3,0.1,0.5v3.1c0,0.2,0,0.4-0.1,0.5
			c-0.1,0.1-0.2,0.1-0.3,0.1c-0.1,0-0.3,0-0.3-0.1c-0.1-0.1-0.1-0.3-0.1-0.5v-1.1L31.4,61.2L31.4,61.2z M52.9,67.6h-1.2l-7-11.8
			v10.8h1.7c0.2,0,0.4,0,0.5,0.1s0.1,0.2,0.1,0.3c0,0.1,0,0.2-0.1,0.3c-0.1,0.1-0.3,0.1-0.5,0.1H43c-0.2,0-0.4,0-0.5-0.1
			c-0.1-0.1-0.1-0.2-0.1-0.3c0-0.1,0-0.3,0.1-0.3s0.3-0.1,0.5-0.1h0.8V55.4h-1.3c-0.2,0-0.4,0-0.5-0.1s-0.1-0.2-0.1-0.3
			c0-0.1,0-0.3,0.1-0.3c0.1-0.1,0.3-0.1,0.5-0.1H45l7,11.8V55.4h-1.7c-0.2,0-0.4,0-0.5-0.1s-0.1-0.2-0.1-0.3c0-0.1,0-0.3,0.1-0.3
			c0.1-0.1,0.3-0.1,0.5-0.1h3.5c0.2,0,0.4,0,0.5,0.1c0.1,0.1,0.1,0.2,0.1,0.3c0,0.1,0,0.3-0.1,0.3s-0.3,0.1-0.5,0.1h-0.8
			C52.9,55.4,52.9,67.6,52.9,67.6z"/>
	</g>
</g>
<path class="st1" d="M8.3,80.9c-0.1,0-0.3,0.1-0.3,0.2c-0.3,0.4-0.7,0.7-1,0.9c-0.4,0.2-0.8,0.3-1.2,0.3c-0.7,0-1.4-0.3-1.9-0.8
	c-0.5-0.6-0.8-1.2-0.8-2v-0.9c0-0.4,0.1-0.7,0.2-1c0.2-0.4,0.4-0.7,0.6-1.1C4,76.2,4.2,76.1,4.5,76c0.3-0.2,0.7-0.3,1.1-0.3
	c0.6,0,1.1,0.2,1.6,0.5c0.3,0.3,0.5,0.5,0.5,0.9c0,0.1,0.1,0.3,0.1,0.3c0.2,0.2,0.4,0.2,0.5,0c0,0,0,0,0,0c0.1-0.1,0.1-0.2,0.1-0.4
	v-1.5c0-0.2,0-0.3-0.1-0.4c-0.2-0.2-0.4-0.2-0.6,0c0,0,0,0,0,0c-0.1,0.1-0.1,0.2-0.1,0.4v0.1c-0.6-0.5-1.4-0.8-2.1-0.7
	c-0.6,0-1.1,0.2-1.7,0.5c-0.5,0.3-0.9,0.8-1.2,1.3c-0.3,0.6-0.4,1.1-0.4,1.7v1.1c0,0.4,0.1,0.7,0.2,1.1s0.3,0.7,0.6,1
	c0.3,0.4,0.5,0.6,0.8,0.8c0.2,0.2,0.5,0.3,0.8,0.4C5,82.9,5.4,83,5.8,83c0.5,0,0.9-0.1,1.4-0.3c0.5-0.2,0.9-0.5,1.2-0.9
	c0.2-0.2,0.3-0.4,0.3-0.5C8.7,81,8.6,80.9,8.3,80.9C8.3,80.9,8.3,80.9,8.3,80.9z M16.2,75.1h-1.5c-0.2,0-0.3,0-0.4,0.1
	c-0.1,0.1-0.1,0.2-0.1,0.3c0,0.1,0,0.2,0.1,0.3c0.1,0.1,0.2,0.1,0.4,0.1H15l-1.7,2.7l-1.8-2.7h0.3c0.2,0,0.3,0,0.4-0.1
	c0.1-0.1,0.1-0.2,0.1-0.3c0-0.1,0-0.2-0.1-0.3c-0.1-0.1-0.2-0.1-0.4-0.1h-1.5c-0.2,0-0.3,0-0.4,0.1c-0.1,0.1-0.1,0.2-0.1,0.3
	c0,0.1,0,0.2,0.1,0.3c0.1,0.1,0.2,0.1,0.4,0.1h0.2l2.3,3.5V82h-1.3c-0.2,0-0.3,0-0.4,0.1c-0.1,0.1-0.1,0.2-0.1,0.3
	c0,0.1,0,0.2,0.1,0.3c0.1,0.1,0.2,0.1,0.4,0.1H15c0.2,0,0.3,0,0.4-0.1c0.1-0.1,0.1-0.2,0.1-0.3c0-0.1,0-0.2-0.1-0.3
	C15.2,82,15.1,82,15,82h-1.3v-2.7l2.2-3.5h0.2c0.2,0,0.3,0,0.4-0.1c0.1-0.1,0.1-0.2,0.1-0.3s0-0.2-0.1-0.3
	C16.5,75.1,16.4,75.1,16.2,75.1z M22.9,78.7c0.6-0.4,0.9-0.9,0.9-1.6c0-0.6-0.2-1-0.7-1.4c-0.4-0.4-1-0.6-1.7-0.6h-3.4
	c-0.2,0-0.3,0-0.4,0.1c-0.1,0.1-0.1,0.2-0.1,0.3c0,0.1,0,0.2,0.1,0.3c0.1,0.1,0.2,0.1,0.4,0.1h0.6V82h-0.6c-0.2,0-0.3,0-0.4,0.1
	c-0.1,0.1-0.1,0.2-0.1,0.3c0,0.1,0,0.2,0.1,0.3c0.1,0.1,0.2,0.1,0.4,0.1h4c0.4,0,0.8-0.1,1.2-0.3c0.4-0.2,0.6-0.5,0.8-0.8
	s0.3-0.7,0.3-1c0-0.4-0.1-0.8-0.4-1.2C23.8,79.1,23.4,78.9,22.9,78.7z M19.5,78.4v-2.5h2c0.5,0,0.9,0.1,1.1,0.4
	c0.3,0.3,0.4,0.5,0.4,0.8c0,0.2-0.1,0.4-0.2,0.6c-0.1,0.2-0.3,0.4-0.5,0.5c-0.3,0.1-0.7,0.2-1.1,0.2H19.5z M23.6,80.6
	c0,0.2-0.1,0.4-0.2,0.6c-0.1,0.2-0.3,0.4-0.5,0.5c-0.2,0.1-0.5,0.2-0.8,0.2h-2.6v-2.8h1.8c0.6,0,1,0.1,1.3,0.2
	c0.3,0.1,0.6,0.3,0.7,0.5C23.5,80.1,23.6,80.4,23.6,80.6z M31.3,80.2c-0.1,0.1-0.1,0.2-0.1,0.4V82h-3.9v-2.8H29v0.5
	c0,0.2,0,0.3,0.1,0.4c0.2,0.2,0.4,0.2,0.6,0c0,0,0,0,0,0c0.1-0.1,0.1-0.2,0.1-0.4v-1.7c0-0.2,0-0.3-0.1-0.4c-0.2-0.2-0.4-0.2-0.6,0
	c0,0,0,0,0,0C29,77.6,29,77.8,29,77.9v0.5h-1.7v-2.5h3.6V77c0,0.2,0,0.3,0.1,0.4c0.2,0.2,0.4,0.2,0.6,0c0,0,0,0,0,0
	c0.1-0.1,0.1-0.2,0.1-0.4v-2h-5.7c-0.2,0-0.3,0-0.4,0.1c-0.1,0.1-0.1,0.2-0.1,0.3c0,0.1,0,0.2,0.1,0.3c0.1,0.1,0.2,0.1,0.4,0.1h0.6
	V82h-0.6c-0.2,0-0.3,0-0.4,0.1c-0.1,0.1-0.1,0.2-0.1,0.3c0,0.1,0,0.2,0.1,0.3c0.1,0.1,0.2,0.1,0.4,0.1h6v-2.2c0-0.2,0-0.3-0.1-0.4
	C31.7,80,31.4,80,31.3,80.2C31.3,80.2,31.3,80.2,31.3,80.2z M40.2,82h-0.3c-0.6-1-1-1.7-1.3-2c-0.2-0.3-0.5-0.5-0.8-0.8
	c0.6-0.2,1-0.5,1.2-0.8c0.3-0.4,0.5-0.7,0.5-1.2c0-0.6-0.2-1.1-0.7-1.5c-0.5-0.4-1.1-0.7-1.8-0.7h-3.2c-0.2,0-0.3,0-0.4,0.1
	c-0.1,0.1-0.1,0.2-0.1,0.3s0,0.2,0.1,0.3c0.1,0.1,0.2,0.1,0.4,0.1h0.6V82h-0.6c-0.2,0-0.3,0-0.4,0.1c-0.1,0.1-0.1,0.2-0.1,0.3
	c0,0.1,0,0.2,0.1,0.3c0.1,0.1,0.2,0.1,0.4,0.1H36c0.2,0,0.3,0,0.4-0.1c0.1-0.1,0.1-0.2,0.1-0.3c0-0.1,0-0.2-0.1-0.3
	C36.2,82,36.1,82,36,82h-0.9v-2.5h1.5c0.4,0.2,0.9,0.5,1.2,0.9c0.4,0.4,0.9,1.2,1.5,2.4l0,0.1h0.8c0.2,0,0.3,0,0.4-0.1
	c0.1-0.1,0.1-0.2,0.1-0.3c0-0.1,0-0.2-0.1-0.3C40.4,82,40.3,82,40.2,82z M38.7,77.2c0,0.2-0.1,0.4-0.2,0.6c-0.2,0.2-0.4,0.4-0.8,0.6
	c-0.4,0.2-0.8,0.2-1.2,0.2h-1.3v-2.8h1.8c0.5,0,0.9,0.1,1.2,0.4C38.5,76.6,38.7,76.9,38.7,77.2z M46.2,78.8
	c-0.3-0.1-0.8-0.3-1.5-0.4c-0.3,0-0.6-0.1-0.9-0.2c-0.2-0.1-0.4-0.1-0.5-0.2c-0.1-0.1-0.3-0.2-0.3-0.4c-0.1-0.2-0.1-0.3-0.1-0.5
	c0-0.4,0.2-0.7,0.5-1c0.3-0.3,0.8-0.4,1.3-0.4c0.5,0,1,0.1,1.3,0.4c0.3,0.3,0.5,0.5,0.5,0.9c0,0.1,0,0.3,0.1,0.3
	c0.1,0.2,0.4,0.2,0.6,0c0.1-0.1,0.1-0.2,0.1-0.4v-1.4c0-0.2,0-0.3-0.1-0.4c-0.2-0.2-0.4-0.2-0.6,0c0,0,0,0,0,0
	c-0.1,0.1-0.1,0.2-0.1,0.3c-0.5-0.4-1.2-0.6-1.8-0.6c-0.8,0-1.4,0.2-1.9,0.6c-0.5,0.4-0.7,0.9-0.7,1.5c0,0.6,0.2,1.1,0.6,1.4
	c0.4,0.3,1.1,0.6,2,0.7c0.6,0.1,1,0.2,1.2,0.3c0.3,0.1,0.5,0.3,0.6,0.5c0.1,0.2,0.2,0.4,0.2,0.7c0,0.4-0.2,0.8-0.5,1.1
	c-0.4,0.3-0.9,0.5-1.5,0.5c-0.6,0-1.1-0.2-1.5-0.5c-0.4-0.3-0.6-0.6-0.6-1c0-0.1,0-0.3-0.1-0.3c-0.2-0.2-0.4-0.1-0.6,0
	c-0.1,0.1-0.1,0.2-0.1,0.4v1.5c0,0.2,0,0.3,0.1,0.4c0.2,0.2,0.4,0.2,0.6,0c0,0,0,0,0,0c0.1-0.1,0.1-0.2,0.1-0.4v0
	c0.5,0.5,1.3,0.7,2.1,0.7c0.9,0,1.5-0.2,2-0.7c0.5-0.5,0.8-1,0.8-1.7c0-0.4-0.1-0.8-0.3-1.1C46.9,79.2,46.6,79,46.2,78.8z
	 M54.7,80.2c-0.1,0.1-0.1,0.2-0.1,0.4V82h-3.8v-2.8h1.7v0.5c0,0.2,0,0.3,0.1,0.4c0.2,0.2,0.4,0.2,0.6,0c0,0,0,0,0,0
	c0.1-0.1,0.1-0.2,0.1-0.4v-1.7c0-0.2,0-0.3-0.1-0.4c-0.2-0.2-0.4-0.2-0.6,0c0,0,0,0,0,0c-0.1,0.1-0.1,0.2-0.1,0.4v0.5h-1.7v-2.5h3.6
	V77c0,0.2,0,0.3,0.1,0.4c0.2,0.2,0.4,0.2,0.6,0c0,0,0,0,0,0c0.1-0.1,0.1-0.2,0.1-0.4v-2h-5.7c-0.2,0-0.3,0-0.4,0.1
	c-0.1,0.1-0.1,0.2-0.1,0.3c0,0.1,0,0.2,0.1,0.3c0.1,0.1,0.2,0.1,0.4,0.1h0.6V82h-0.6c-0.2,0-0.3,0-0.4,0.1c-0.1,0.1-0.1,0.2-0.1,0.3
	c0,0.1,0,0.2,0.1,0.3c0.1,0.1,0.2,0.1,0.4,0.1h6v-2.2c0-0.2,0-0.3-0.1-0.4C55.1,80,54.8,80,54.7,80.2C54.7,80.2,54.7,80.2,54.7,80.2
	z M62.6,81c-0.3,0.4-0.7,0.7-1,0.9c-0.4,0.2-0.8,0.3-1.2,0.3c-0.7,0-1.4-0.3-1.9-0.8c-0.5-0.6-0.8-1.2-0.8-2v-0.9
	c0-0.4,0.1-0.7,0.2-1c0.2-0.4,0.4-0.7,0.6-1.1c0.1-0.2,0.4-0.3,0.6-0.5c0.3-0.2,0.7-0.3,1.1-0.3c0.6,0,1.1,0.2,1.6,0.5
	c0.3,0.3,0.5,0.5,0.5,0.9c0,0.1,0.1,0.3,0.1,0.3c0.2,0.2,0.4,0.1,0.6,0c0,0,0,0,0,0c0.1-0.1,0.1-0.2,0.1-0.4v-1.5
	c0-0.2,0-0.3-0.1-0.4c-0.1-0.2-0.4-0.2-0.6,0c0,0,0,0,0,0c-0.1,0.1-0.1,0.2-0.1,0.4v0.1c-0.6-0.5-1.4-0.8-2.1-0.7
	c-0.6,0-1.1,0.2-1.7,0.5c-0.5,0.3-0.9,0.8-1.2,1.3c-0.3,0.6-0.4,1.1-0.4,1.7v1.1c0,0.4,0.1,0.7,0.2,1.1c0.1,0.3,0.3,0.7,0.6,1
	c0.3,0.4,0.5,0.6,0.8,0.8c0.2,0.2,0.5,0.3,0.8,0.4c0.4,0.2,0.8,0.2,1.2,0.2c0.5,0,0.9-0.1,1.4-0.3c0.5-0.2,0.9-0.5,1.2-0.9
	c0.2-0.2,0.3-0.4,0.3-0.5c0-0.1,0-0.2-0.1-0.3C63.1,80.8,62.8,80.8,62.6,81z M70.9,75.1h-2c-0.2,0-0.3,0-0.4,0.1
	c-0.1,0.1-0.1,0.2-0.1,0.3s0,0.2,0.1,0.3c0.1,0.1,0.2,0.1,0.4,0.1h0.9v4.3c0,0.4-0.1,0.8-0.3,1.1c-0.2,0.3-0.4,0.6-0.7,0.7
	c-0.3,0.1-0.6,0.2-0.9,0.2c-0.5,0-1-0.2-1.3-0.6c-0.4-0.4-0.6-0.9-0.6-1.4v-4.3h0.9c0.2,0,0.3,0,0.4-0.1c0.1-0.1,0.1-0.2,0.1-0.3
	s0-0.2-0.1-0.3c-0.1-0.1-0.2-0.1-0.4-0.1h-2c-0.2,0-0.3,0-0.4,0.1c-0.1,0.1-0.1,0.2-0.1,0.3c0,0.1,0,0.2,0.1,0.3
	c0.1,0.1,0.2,0.1,0.4,0.1h0.3v4.3c0,0.5,0.1,1,0.4,1.5c0.3,0.4,0.6,0.8,1,1c0.4,0.2,0.8,0.3,1.3,0.3c0.7,0,1.4-0.3,1.9-0.8
	c0.5-0.5,0.8-1.2,0.8-2v-4.3h0.3c0.2,0,0.3,0,0.4-0.1c0.1-0.1,0.1-0.2,0.1-0.3c0-0.1,0-0.2-0.1-0.3C71.2,75.1,71.1,75.1,70.9,75.1z
	 M79.2,82h-0.3c-0.6-1-1-1.7-1.3-2c-0.2-0.3-0.5-0.5-0.8-0.8c0.6-0.2,1-0.5,1.2-0.8c0.3-0.4,0.5-0.7,0.5-1.2c0-0.6-0.2-1.1-0.7-1.5
	c-0.5-0.4-1.1-0.7-1.8-0.7h-3.2c-0.2,0-0.3,0-0.4,0.1c-0.1,0.1-0.1,0.2-0.1,0.3c0,0.1,0,0.2,0.1,0.3c0.1,0.1,0.2,0.1,0.4,0.1h0.6V82
	h-0.6c-0.2,0-0.3,0-0.4,0.1c-0.1,0.1-0.1,0.2-0.1,0.3c0,0.1,0,0.2,0.1,0.3c0.1,0.1,0.2,0.1,0.4,0.1H75c0.2,0,0.3,0,0.4-0.1
	c0.1-0.1,0.1-0.2,0.1-0.3c0-0.1,0-0.2-0.1-0.3C75.2,82,75.1,82,75,82h-0.9v-2.5h1.5c0.4,0.2,0.8,0.5,1.2,0.9
	c0.4,0.4,0.9,1.2,1.5,2.4l0,0.1h0.8c0.2,0,0.3,0,0.4-0.1c0.1-0.1,0.1-0.2,0.1-0.3c0-0.1,0-0.2-0.1-0.3C79.4,82,79.3,82,79.2,82
	L79.2,82z M77.7,77.2c0,0.2-0.1,0.4-0.2,0.6c-0.2,0.2-0.4,0.4-0.8,0.6c-0.4,0.2-0.8,0.2-1.2,0.2h-1.3v-2.8h1.8
	c0.5,0,0.9,0.1,1.2,0.4C77.5,76.6,77.7,76.9,77.7,77.2z M85.6,75.9c0.2,0,0.3,0,0.4-0.1c0.1-0.1,0.1-0.2,0.1-0.3s0-0.2-0.1-0.3
	c-0.1-0.1-0.2-0.1-0.4-0.1h-4.2c-0.2,0-0.3,0-0.4,0.1c-0.1,0.1-0.1,0.2-0.1,0.3c0,0.1,0,0.2,0.1,0.3c0.1,0.1,0.2,0.1,0.4,0.1h1.7V82
	h-1.7c-0.2,0-0.3,0-0.4,0.1c-0.1,0.1-0.1,0.2-0.1,0.3c0,0.1,0,0.2,0.1,0.3c0.1,0.1,0.2,0.1,0.4,0.1h4.2c0.2,0,0.3,0,0.4-0.1
	c0.1-0.1,0.1-0.2,0.1-0.3c0-0.1,0-0.2-0.1-0.3C85.9,82,85.8,82,85.6,82h-1.7v-6.1H85.6L85.6,75.9z M88.2,77.6c0,0.2,0,0.3,0.1,0.4
	c0.1,0.2,0.4,0.2,0.6,0c0,0,0,0,0,0c0.1-0.1,0.1-0.2,0.1-0.4v-1.7h1.9V82h-1.3c-0.2,0-0.3,0-0.4,0.1c-0.1,0.1-0.1,0.2-0.1,0.3
	c0,0.1,0,0.2,0.1,0.3c0.1,0.1,0.2,0.1,0.4,0.1H93c0.2,0,0.3,0,0.4-0.1c0.1-0.1,0.1-0.2,0.1-0.3c0-0.1,0-0.2-0.1-0.3
	C93.2,82,93.1,82,93,82h-1.3v-6.1h1.9v1.7c0,0.2,0,0.3,0.1,0.4c0.1,0.2,0.4,0.2,0.6,0c0.1-0.1,0.1-0.2,0.1-0.4v-2.5h-6.2L88.2,77.6
	L88.2,77.6z M102.4,75.2c-0.1-0.1-0.2-0.1-0.4-0.1h-1.5c-0.2,0-0.3,0-0.4,0.1c-0.1,0.1-0.1,0.2-0.1,0.3c0,0.1,0,0.2,0.1,0.3
	c0.1,0.1,0.2,0.1,0.4,0.1h0.3l-1.7,2.7l-1.8-2.7h0.3c0.2,0,0.3,0,0.4-0.1c0.1-0.1,0.1-0.2,0.1-0.3c0-0.1,0-0.2-0.1-0.3
	c-0.1-0.1-0.2-0.1-0.4-0.1h-1.5c-0.2,0-0.3,0-0.4,0.1c-0.1,0.1-0.1,0.2-0.1,0.3c0,0.1,0,0.2,0.1,0.3c0.1,0.1,0.2,0.1,0.4,0.1h0.2
	l2.3,3.5V82h-1.3c-0.2,0-0.3,0-0.4,0.1C97,82.2,97,82.3,97,82.4c0,0.1,0,0.2,0.1,0.3c0.1,0.1,0.2,0.1,0.4,0.1h3.3
	c0.2,0,0.3,0,0.4-0.1c0.1-0.1,0.1-0.2,0.1-0.3c0-0.1,0-0.2-0.1-0.3c-0.1-0.1-0.2-0.1-0.4-0.1h-1.3v-2.7l2.2-3.5h0.2
	c0.2,0,0.3,0,0.4-0.1c0.1-0.1,0.1-0.2,0.1-0.3C102.5,75.4,102.5,75.3,102.4,75.2L102.4,75.2z"/>
<g>
	<g>
		<path class="st0" d="M68.3,54.9v11.7h3.4c0.2,0,0.4,0,0.5,0.1c0.1,0.1,0.2,0.2,0.2,0.4c0,0.1-0.1,0.3-0.2,0.4
			c-0.1,0.1-0.3,0.1-0.5,0.1H64c-0.2,0-0.4,0-0.5-0.1c-0.1-0.1-0.2-0.2-0.2-0.4c0-0.1,0.1-0.3,0.2-0.4c0.1-0.1,0.3-0.1,0.5-0.1h3.4
			V54.9H64c-0.2,0-0.4,0-0.5-0.1s-0.2-0.2-0.2-0.4c0-0.1,0.1-0.3,0.2-0.4s0.3-0.1,0.5-0.1h7.7c0.2,0,0.4,0,0.5,0.1s0.2,0.2,0.2,0.4
			c0,0.1-0.1,0.3-0.2,0.4s-0.3,0.1-0.5,0.1H68.3z M85.8,54.9v-0.3c0-0.2,0-0.4,0.1-0.5c0.1-0.1,0.2-0.2,0.4-0.2s0.3,0.1,0.4,0.2
			c0.1,0.1,0.1,0.3,0.1,0.5V57c0,0.2,0,0.4-0.1,0.5c-0.1,0.1-0.2,0.2-0.4,0.2c-0.1,0-0.3,0-0.3-0.1c-0.1-0.1-0.1-0.2-0.1-0.5
			c0-0.7-0.4-1.2-1-1.8c-0.6-0.5-1.5-0.8-2.5-0.8c-1.1,0-1.9,0.3-2.6,0.8c-0.6,0.6-1,1.2-1,2c0,0.4,0.1,0.7,0.3,1.1s0.4,0.6,0.7,0.8
			c0.3,0.2,0.6,0.4,1,0.5c0.4,0.1,1,0.2,1.8,0.4c1.3,0.2,2.3,0.4,2.8,0.7c0.7,0.3,1.2,0.7,1.5,1.3c0.3,0.5,0.5,1.2,0.5,1.9
			c0,1.1-0.4,2.1-1.3,2.9S83.8,68,82.3,68c-1.7,0-3.1-0.5-4.1-1.6v0.6c0,0.2,0,0.4-0.1,0.5c-0.1,0.1-0.2,0.2-0.4,0.2
			c-0.1,0-0.3-0.1-0.4-0.2c-0.1-0.1-0.1-0.3-0.1-0.5v-2.7c0-0.2,0-0.4,0.1-0.5c0.1-0.1,0.2-0.2,0.4-0.2c0.1,0,0.3,0,0.3,0.1
			s0.1,0.2,0.1,0.5c0,0.7,0.4,1.4,1.2,2c0.7,0.6,1.7,0.9,2.9,0.9s2.2-0.3,2.9-0.9c0.7-0.6,1.1-1.3,1.1-2.2c0-0.5-0.1-1-0.4-1.4
			s-0.7-0.7-1.2-1c-0.4-0.2-1.2-0.3-2.3-0.6c-1.6-0.3-2.8-0.7-3.5-1.3c-0.7-0.6-1.1-1.4-1.1-2.4c0-1,0.4-1.9,1.2-2.7
			c0.8-0.7,1.9-1.1,3.3-1.1C83.6,53.6,84.8,54,85.8,54.9z M97.1,54.9v11.7h2.6c0.2,0,0.4,0,0.5,0.1c0.1,0.1,0.2,0.2,0.2,0.4
			c0,0.1-0.1,0.3-0.2,0.4c-0.1,0.1-0.3,0.1-0.5,0.1h-6.1c-0.2,0-0.4,0-0.5-0.1c-0.1-0.1-0.2-0.2-0.2-0.4c0-0.1,0.1-0.3,0.2-0.4
			c0.1-0.1,0.3-0.1,0.5-0.1h2.6V54.9h-4v3.4c0,0.2,0,0.4-0.1,0.5c-0.1,0.1-0.2,0.2-0.4,0.2c-0.1,0-0.3-0.1-0.4-0.2
			c-0.1-0.1-0.1-0.3-0.1-0.5v-4.4h11v4.4c0,0.2,0,0.4-0.1,0.5c-0.1,0.1-0.2,0.2-0.4,0.2s-0.3-0.1-0.4-0.2c-0.1-0.1-0.1-0.3-0.1-0.5
			v-3.4L97.1,54.9L97.1,54.9z"/>
	</g>
</g>
<path class="st2" d="M59.7,66.1h3v2.1h-3V66.1z"/>
<g id="g4757" transform="translate(25.689 -18.839)">
	<g id="g4692" transform="translate(44.147 -16.904)">
		<ellipse id="ellipse7" class="st3" cx="-19.9" cy="62.4" rx="25.9" ry="26.1"/>
		<ellipse id="ellipse11" class="st4" cx="-18.4" cy="59.8" rx="22.8" ry="21.9"/>
		<path id="path22_1_" class="st3" d="M-10.5,48.2c0,0-2.9-2.3-6.4-2.8c-2.9-0.4-6.2,0.6-8.3,2.2c-0.9,0.7-2.7,2.2-3.9,4.5
			c-1.5,2.8-1.5,5.5-1.5,7c-0.1,4.1,0.5,3.6,0.3,9.5c-0.2,8.2-8.7,10-8.7,10c8,10.7,25.8,11.5,36,3.2c0,0-2-4-4.2-6.5
			c-2-2.3-7.5-6.4-7.5-6.4s-1.8-1.1-3.3-2.8c-0.9-1.1-2.1-3-1.7-4.9c0.3-1.8,0.7-0.9,1.7-0.9c2.8,0,3.8-0.4,5.1-1
			c1.1-0.5,3-2.5,3-2.5s1.5-1.4,2.1-2.7c0.3-0.6-0.3-1.2-0.3-1.6C-8.2,51.1-10.5,48.2-10.5,48.2z"/>
		<path class="st5" d="M-19.7,87.5c-1.1,0-2.3-0.1-3.4-0.2c-6.7-0.8-12.4-3.9-15.9-8.6c0,0,0,0,0-0.1c0,0,0,0,0,0
			c0,0,2.1-0.5,4.2-1.9c1.9-1.3,4.3-3.8,4.4-8.1c0.1-3.2-0.1-4.5-0.2-5.7c-0.1-1-0.2-1.9-0.1-3.8l0-0.3c0-1.5,0.1-4.1,1.5-6.7
			c1.1-2.1,2.8-3.6,3.9-4.6c2.2-1.7,5.6-2.6,8.3-2.2c3.4,0.5,6.4,2.8,6.4,2.8l0,0c0.2,0.2,0.9,1.2,1.2,1.6c0.8,1.2,1.2,2.1,1.2,2.7
			c0,0.2,0.1,0.3,0.2,0.5c0.2,0.3,0.3,0.7,0.1,1.1c-0.6,1.3-2.1,2.7-2.1,2.7c-0.1,0.1-1.9,2-3,2.5c-1.2,0.6-2.2,1-5,1l-0.2,0
			c-0.3,0-0.5-0.1-0.7-0.1c-0.2-0.1-0.4-0.1-0.5,0c-0.2,0.1-0.3,0.4-0.4,1c-0.3,2.1,1.1,4.1,1.7,4.8c0.9,1.1,2,2.1,3.3,2.8
			c0.1,0,5.5,4.2,7.5,6.4c2.2,2.5,4.2,6.5,4.2,6.5c0,0,0,0,0,0.1C-7.4,85.5-13.4,87.5-19.7,87.5z M-38.9,78.6
			c3.5,4.7,9.1,7.7,15.8,8.5c7.3,0.9,14.8-1.1,20-5.4c-0.2-0.4-2.1-4.1-4.2-6.4c-2-2.2-7.4-6.3-7.5-6.4c0,0-1.8-1.1-3.3-2.9
			c-0.6-0.8-2.1-2.8-1.8-4.9c0.1-0.7,0.2-1,0.4-1.1c0.2-0.1,0.4,0,0.6,0c0.2,0.1,0.4,0.1,0.7,0.1l0.2,0c2.7,0,3.7-0.4,4.9-1
			c1.1-0.5,3-2.5,3-2.5c0,0,1.5-1.4,2.1-2.6c0.2-0.4,0-0.7-0.1-1.1c-0.1-0.2-0.2-0.4-0.2-0.6c-0.1-1.4-2.2-4.1-2.4-4.3
			c-0.1-0.1-3-2.3-6.4-2.8c-2.7-0.4-6,0.5-8.2,2.2c-1.2,0.9-2.8,2.4-3.9,4.5c-1.4,2.6-1.4,5.2-1.5,6.7l0,0.3c-0.1,1.9,0,2.8,0.1,3.8
			c0.1,1.2,0.3,2.5,0.2,5.7c-0.1,4.3-2.5,6.8-4.4,8.1C-36.6,78-38.5,78.5-38.9,78.6z"/>
		
			<ellipse id="ellipse26" transform="matrix(0.1899 -0.9818 0.9818 0.1899 -96.7006 28.4553)" class="st6" cx="-31.1" cy="72.8" rx="4.1" ry="4.3"/>
		<path id="path32" class="st6" d="M-26.5,48.4C-33.2,48-39,52.6-39.3,58.7c-0.3,6,4.9,11.2,11.6,11.6c-1.9-2.7-3.3-6.8-3.1-11.1
			C-30.5,54.8-28.6,50.8-26.5,48.4z"/>
		<path id="path39_1_" class="st7" d="M-23,56.5c0,0-1.9,4.3-0.4,7.6c2.4,5.2,14.2,6.4,18.3,17c0,0-2.9-4.1-5.7-6
			c-2.1-1.4-3.8-1.8-5.6-1.7c-3.1,0.2,3.1-0.9,7.3,6.7c0.9,1.6,0.8,1.7,1.5,4.4c0.7,2.4-0.3,5.9-1.3,7.3c-1.2,1.6,2.3-8.4-6.1-13
			C-25,73.3-26.4,71.5-29,65.6c-2.5-5.6-1.5-11.2,1.1-15.1c3.5-5.2,10-7.4,15.7-2.9c0.4,0.3,0.9,0.7,1.3,1.1c0.6,0.5,1.9,3.6,4.1,5
			c3.4,2.2,6.7,4.9,5.1,3.4c-0.8-0.8-4.4-1.6-5.2-1.6c-1.6,0.1-0.2-1.8-1.4-1.2c-1.7,0.8-1.4,0.9,0,0.9c1.2,0-1.6-1.6-0.7,1.3
			c0.5,1.6,7.3,4.2,3.3,3c-2.3-0.7-2.8-2-4.5-1.9c-2,0.2,0.9-2.7,0-1.7c-3.7,4-7.1,3.8-9.4,2.9C-21.6,57.9-22.8,56.5-23,56.5
			L-23,56.5z"/>
		<path class="st5" d="M-9,92.1C-9.1,92.1-9.1,92.1-9,92.1c-0.2-0.1-0.2-0.3-0.1-1.1c0-1.3,0.1-3.4-0.6-5.7
			c-0.8-2.8-2.6-4.9-5.2-6.4c-10-5.5-11.5-7.3-14.1-13.3c-2.3-5.1-1.8-10.8,1.1-15.1c1.9-2.9,4.8-4.8,7.8-5.2c2.8-0.4,5.6,0.4,8,2.3
			c0.4,0.3,0.9,0.7,1.3,1.2c0.2,0.2,0.4,0.5,0.7,1c0.7,1.2,1.8,3,3.4,4c1.5,0.9,2.9,2,4,2.8c0.5,0.2,0.9,0.4,1.1,0.6
			c0.5,0.5,0.4,0.5,0.4,0.5c-0.1,0.1-0.1,0.1-1.3-0.8l-0.3-0.2c-1.4-0.5-3.4-1-4-0.9c-0.3,0-0.6,0-0.7-0.2c-0.2-0.2-0.2-0.5-0.2-0.7
			c0-0.2,0-0.3-0.1-0.4c-0.1,0-0.2,0-0.4,0.1c-1,0.5-1.2,0.6-1.1,0.7c0,0,0.1,0.1,0.2,0.1c0-0.1,0.1-0.2,0.2-0.3
			c0.3-0.2,0.7-0.1,0.9,0.1c0.1,0.1,0.2,0.2,0.1,0.3c0,0.1-0.1,0.1-0.3,0.1c-0.3,0-0.5,0-0.8,0c-0.1,0.2,0,0.6,0.2,1.2
			c0.3,0.8,2.3,2,3.5,2.6c0.9,0.5,1,0.6,1,0.7c0,0.1-0.1,0.1-1.3-0.3c-1-0.3-1.7-0.7-2.3-1.1c-0.7-0.5-1.3-0.8-2.3-0.7
			c-0.4,0-0.7-0.1-0.8-0.3c-0.1-0.2,0.1-0.6,0.3-0.9c-2.9,2.8-5.9,3.6-8.9,2.3c-1.4-0.6-2.5-1.5-3-2c-0.1-0.1-0.3-0.2-0.3-0.3
			c-0.2,0.5-1.7,4.5-0.3,7.5c1,2.1,3.5,3.6,6.4,5.2c4.2,2.4,9.4,5.5,11.9,11.8c0,0,0,0.1,0,0.1s-0.1,0-0.1,0c0,0-2.9-4.2-5.7-6
			c-2-1.3-3.7-1.8-5.6-1.7c-0.2,0-0.3,0-0.5,0c1.9,0.5,5.3,1.9,7.8,6.6c0.7,1.2,0.8,1.6,1.1,2.9c0.1,0.4,0.2,0.9,0.4,1.5
			c0.6,2.3-0.2,5.8-1.3,7.4C-8.9,92-9,92.1-9,92.1z M-18.7,45.2c-0.5,0-1,0-1.5,0.1c-3,0.5-5.8,2.4-7.7,5.2c-2.9,4.3-3.4,10-1.1,15
			c2.7,6,4.1,7.7,14,13.2C-8.8,82.2-9,88.5-9.1,91c0,0.5,0,1,0,1c0,0,0,0,0.2-0.2c1-1.3,2-4.8,1.3-7.3C-7.7,84-7.8,83.5-8,83
			c-0.3-1.3-0.4-1.7-1.1-2.9c-2.7-4.8-6.1-6.2-8-6.6c-0.1,0-0.2,0-0.2-0.1s0-0.1,0.2-0.1c0.1,0,0.3,0,0.7,0c1.9-0.1,3.6,0.4,5.6,1.7
			c2.3,1.5,4.6,4.6,5.4,5.7c-2.5-6-7.6-8.9-11.7-11.3c-2.9-1.7-5.4-3.2-6.4-5.3c-0.8-1.7-0.7-3.7-0.4-5.1c0.3-1.5,0.7-2.6,0.8-2.6
			c0,0,0,0,0.1,0c0.1,0,0.2,0.1,0.4,0.3c0.6,0.5,1.6,1.3,3,1.9c3.2,1.3,6.3,0.4,9.3-2.8c0.1-0.1,0.2-0.2,0.2-0.2c0,0,0.1,0,0.1,0
			c0,0,0,0-0.2,0.3l0,0c-0.3,0.4-0.8,1-0.6,1.4c0.1,0.2,0.3,0.2,0.7,0.2c1-0.1,1.6,0.3,2.3,0.8c0.6,0.4,1.2,0.8,2.2,1.1
			c0.7,0.2,1,0.3,1.1,0.3c-0.1-0.1-0.5-0.3-0.9-0.5c-1.3-0.7-3.3-1.9-3.6-2.7c-0.2-0.6-0.2-1-0.2-1.3c-0.2,0-0.3-0.1-0.3-0.2
			c0-0.1,0.2-0.3,1.2-0.8c0.3-0.1,0.4-0.1,0.5-0.1c0.1,0.1,0.1,0.3,0.1,0.5c0,0.2,0,0.5,0.1,0.7c0.1,0.1,0.3,0.2,0.6,0.2
			c0.6,0,2.4,0.3,3.7,0.8c-1-0.7-2.3-1.7-3.7-2.5c-1.6-1-2.7-2.8-3.4-4c-0.3-0.5-0.5-0.8-0.7-1c-0.4-0.4-0.9-0.8-1.3-1.1
			C-14.2,46-16.4,45.2-18.7,45.2z M-2.4,56.7c0.4,0.3,0.7,0.5,0.9,0.7c-0.1-0.1-0.1-0.1-0.2-0.2C-1.8,57-2.1,56.8-2.4,56.7z
			 M-9,55.1c0.2,0,0.4,0,0.8,0c0.2,0,0.2,0,0.2-0.1c0,0,0-0.1-0.1-0.1c-0.2-0.1-0.5-0.2-0.8-0.1C-8.9,54.9-9,55-9,55.1z"/>
		<path id="path42_1_" class="st3" d="M-9.9,49.6c0.5-0.7,2.1,2.2,2.8,2.7c1.4,1.1,2.3,1.7,3.4,2.5c1.5,1.1,2.6,2.2,2.7,2.9
			c0.1,0.3-0.6,0.1-0.9,0c-0.9-0.5-4.1-1.1-6.6-1.2c-0.1,0-0.2,0-0.2-0.1l-2.1-1l0.9-3.2"/>
		<path class="st5" d="M-1.1,57.8c-0.2,0-0.5-0.1-0.7-0.2c-0.4-0.2-1.4-0.5-2.7-0.8c-1.3-0.2-2.6-0.4-3.9-0.4c-0.1,0-0.2,0-0.2-0.1
			l-2.1-1l0,0l0.9-3.2c0,0,0,0,0,0s0,0,0,0l-0.9,3.2l2.1,1c0.1,0,0.1,0.1,0.2,0.1c1.2,0,2.6,0.2,3.9,0.4c1.3,0.2,2.3,0.5,2.7,0.8
			c0.2,0.1,0.7,0.2,0.8,0.1c0,0,0-0.1,0-0.1c-0.1-0.3-0.4-0.7-0.8-1.2c-0.5-0.5-1.1-1.1-1.9-1.6c-0.3-0.3-0.7-0.5-1-0.7
			c-0.7-0.5-1.4-1-2.4-1.8c-0.2-0.2-0.6-0.6-1-1.1c-0.6-0.8-1.3-1.7-1.7-1.7h0c-0.1,0-0.1,0-0.2,0.1c0,0,0,0,0,0s0,0,0,0
			c0-0.1,0.1-0.1,0.2-0.1h0c0.4,0,1.1,0.9,1.7,1.7c0.4,0.5,0.7,1,1,1.1c0.9,0.7,1.7,1.3,2.4,1.8c0.3,0.2,0.7,0.5,1,0.7
			c0.7,0.5,1.4,1.1,1.9,1.6c0.5,0.5,0.8,0.9,0.8,1.2c0,0,0,0.1,0,0.1C-1,57.8-1,57.8-1.1,57.8z"/>
		<path id="path46_1_" class="st3" d="M-13.1,58.2c0,0,1.9-0.2,2.7,0.1c1.6,0.5,2.5,1,3.7,1.3c0.5,0.1,2.1,0.6,2.6,0.5
			c0.2,0,0.8-0.2,0.6-0.3c-0.9-0.4-3.1-1.6-4.7-3c-0.1-0.1-0.2-0.2-0.2-0.3c-0.1-0.6-0.5-2.3-1.5-2.3
			C-10.7,54.1-11.3,57.2-13.1,58.2z"/>
		<path class="st5" d="M-4.2,60.1c-0.7,0-2.5-0.5-2.5-0.5c-0.7-0.2-1.3-0.4-1.9-0.7c-0.5-0.2-1.1-0.4-1.7-0.6
			c-0.7-0.3-2.7-0.1-2.7-0.1h0l0,0l0,0c1-0.6,1.6-1.7,2.1-2.7c0.4-0.8,0.7-1.4,1.1-1.4l0,0c0.4,0,0.8,0.4,1.1,1
			c0.2,0.5,0.4,1.1,0.4,1.4c0,0.1,0.1,0.3,0.2,0.3c0.7,0.6,1.6,1.3,2.6,1.9c0.9,0.5,1.6,0.9,2.1,1.1c0,0,0.1,0,0.1,0.1
			c0,0.1-0.5,0.2-0.6,0.2C-4.1,60.1-4.1,60.1-4.2,60.1z M-11.7,58.1c0.5,0,1,0,1.3,0.1c0.7,0.2,1.2,0.4,1.7,0.6
			c0.7,0.3,1.3,0.5,1.9,0.7c0,0,1.8,0.5,2.5,0.5c0,0,0.1,0,0.1,0c0.2,0,0.6-0.1,0.6-0.2c0,0,0,0,0-0.1c-0.7-0.3-1.4-0.7-2.1-1.1
			c-1-0.6-1.9-1.3-2.6-1.9c-0.1-0.1-0.2-0.2-0.2-0.3c-0.1-0.3-0.2-0.9-0.4-1.4c-0.3-0.6-0.6-0.9-1.1-1l0,0c-0.4,0-0.7,0.6-1.1,1.4
			c-0.5,0.9-1.1,2.1-2.1,2.7C-13,58.2-12.4,58.1-11.7,58.1z"/>
		
			<ellipse id="ellipse51" transform="matrix(6.930377e-02 -0.9976 0.9976 6.930377e-02 -68.0457 32.6191)" class="st8" cx="-16.5" cy="52.8" rx="6.1" ry="6.3"/>
		<path id="path53" class="st7" d="M-16.5,46.4h0.2l0,0l0,0l0,0l0,0l0,0l0,0l0,0l0,0l0,0l0,0l0,0l0,0l0,0l0,0l0,0l0,0l0,0l0,0l0,0
			l0,0l0,0l0,0l0,0l0,0l0,0l0,0l0,0l0,0l0,0l0,0l0,0l0,0l0,0l0,0l0,0l0,0l0,0l0,0l0,0l0,0l0,0l0,0l0,0l0,0l0,0l0,0l0,0l0,0l0,0l0,0
			l0,0l0,0l0,0l0,0l0,0l0,0l0,0l0,0l0,0l0,0l0,0l0,0l0,0l0,0l0,0l0,0l0,0l0,0l0,0l0,0l0,0l0,0l0,0l0,0l0,0l0,0l0,0l0,0l0,0l0,0l0,0
			l0,0l0,0l0,0l0,0l0,0l0,0l0,0l0,0l0,0l0,0l0,0l0,0l0,0l0,0l0,0l0,0l0,0l0,0l0,0l0,0l0,0l0,0l0,0l0,0l0,0l0,0l0,0l0,0l0,0l0,0l0,0
			l0,0l0,0l0,0l0,0l0,0l0,0l0,0l0,0l0,0l0,0l0,0l0,0l0,0l0,0l0,0l0,0l0,0l0,0l0,0l0,0l0,0l0,0l0,0l0,0l0,0l0,0l0,0l0,0l0,0l0,0l0,0
			l0,0l0,0l0,0l0,0l0,0l0,0l0,0l0,0l0,0l0,0l0,0l0,0l0,0l0,0l0,0l0,0l0,0l0,0l0,0l0,0l0,0l0,0l0,0l0,0l0,0l0,0l0,0l0,0l0,0l0,0l0,0
			l0,0l0,0l0,0l0,0l0,0l0,0l0,0l0,0l0,0l0,0l0,0l0,0l0,0l0,0l0,0l0,0l0,0l0,0l0,0l0,0l0,0l0,0l0,0l0,0l0,0l0,0l0,0l0,0l0,0l0,0l0,0
			l0,0l0,0l0,0l0,0l0,0l0,0l0,0l0,0l0,0l0,0l0,0l0,0l0,0l0,0l0,0l0,0l0,0l0,0l0,0l0,0l0,0l0,0l0,0l0,0l0,0l0,0l0,0l0,0l0,0l0,0l0,0
			l0,0l0,0l0,0l0,0l0,0l0,0l0,0l0,0l0,0l0,0l0,0l0,0l0,0l0,0l0,0l0,0l0,0l0,0l0,0l0,0l0,0l0,0l0,0l0,0l0,0l0,0l0,0l0,0l0,0l0,0l0,0
			l0,0l0,0l0,0l0,0l0,0l0,0l0,0l0,0l0,0l0,0l0,0l0,0l0,0l0,0l0,0l0,0l0,0l0,0l0,0l0,0l0,0l0,0l0,0l0,0l0,0l0,0l0,0l0,0l0,0l0,0l0,0
			l0,0l0,0l0,0l0,0l0,0l0,0l0,0l0,0l0,0l0,0l0,0l0,0l0,0l0,0l0,0l0,0l0,0l0,0l0,0l0,0l0,0l0,0l0,0l0,0l0,0l0,0l0,0l0,0l0,0l0,0l0,0
			l0,0l0,0l0,0l0,0l0,0l0,0l0,0l0,0l0,0l0,0l0,0l0,0l0,0l0,0l0,0l0,0l0,0l0,0l0,0l0,0l0,0l0,0l0,0l0,0l0,0l0,0l0,0l0,0l0,0l0,0l0,0
			l0,0l0,0l0,0l0,0l0,0l0,0l0,0l0,0l0,0l0,0l0,0l0,0l0,0l0,0l0,0l0,0l0,0l0,0l0,0l0,0l0,0l0,0l0,0l0,0l0,0l0,0l0,0l0,0l0,0l0,0l0,0
			l0,0l0,0l0,0l0,0l0,0l0,0l0,0l0,0l0,0l0,0l0,0l0,0l0,0l0,0l0,0l0,0l0,0l0,0l0,0l0,0l0,0l0,0l0,0l0,0l0,0l0,0l0,0l0,0l0,0l0,0l0,0
			l0,0l0,0l0,0l0,0l0,0l0,0l0,0l0,0l0,0l0,0l0,0l0,0l0,0l0,0l0,0l0,0l0,0l0,0l0,0l0,0l0,0l0,0l0,0l0,0l0,0l0,0l0,0l0,0l0,0l0,0l0,0
			l0,0l0,0l0,0l0,0l0,0l0,0l0,0l0,0l0,0l0,0l0,0l0,0l0,0l0,0l0,0l0,0l0,0l0,0l0,0l0,0l0,0l0,0l0,0l0,0l0,0l0,0l0,0l0,0l0,0l0,0l0,0
			l0,0l0,0l0,0l0,0l0,0l0,0l0,0l0,0l0,0l0,0l0,0l0,0l0,0v0.3l0,0l0,0l0,0l0,0l0,0l0,0l0,0l0,0l0,0l0,0l0,0l0,0l0,0l0,0l0,0l0,0l0,0
			l0,0l0,0l0,0l0,0l0,0l0,0l0,0l0,0l0,0l0,0l0,0l0,0l0,0l0,0l0,0l0,0l0,0l0,0l0,0l0,0l0,0l0,0l0,0l0,0l0,0l0,0l0,0l0,0l0,0l0,0l0,0
			l0,0l0,0l0,0l0,0l0,0l0,0l0,0l0,0l0,0l0,0l0,0l0,0l0,0l0,0l0,0l0,0l0,0l0,0l0,0l0,0l0,0l0,0l0,0l0,0l0,0l0,0l0,0l0,0l0,0l0,0l0,0
			l0,0l0,0l0,0l0,0l0,0l0,0l0,0l0,0l0,0l0,0l0,0l0,0l0,0l0,0l0,0l0,0l0,0l0,0l0,0l0,0l0,0l0,0l0,0l0,0l0,0l0,0l0,0l0,0l0,0l0,0l0,0
			l0,0l0,0l0,0l0,0l0,0l0,0l0,0l0,0l0,0l0,0l0,0l0,0l0,0l0,0l0,0l0,0l0,0l0,0l0,0l0,0l0,0l0,0l0,0l0,0l0,0l0,0l0,0l0,0l0,0l0,0l0,0
			l0,0l0,0l0,0l0,0l0,0l0,0l0,0l0,0l0,0l0,0l0,0l0,0l0,0l0,0l0,0l0,0l0,0l0,0l0,0l0,0l0,0l0,0l0,0l0,0l0,0l0,0l0,0l0,0l0,0l0,0l0,0
			l0,0l0,0l0,0l0,0l0,0l0,0l0,0l0,0l0,0l0,0l0,0l0,0l0,0l0,0l0,0l0,0l0,0l0,0l0,0l0,0l0,0l0,0l0,0l0,0l0,0l0,0l0,0l0,0l0,0l0,0l0,0
			l0,0l0,0l0,0l0,0l0,0l0,0l0,0l0,0l0,0l0,0l0,0l0,0l0,0l0,0l0,0l0,0l0,0l0,0l0,0l0,0l0,0l0,0l0,0l0,0l0,0l0,0l0,0l0,0l0,0l0,0l0,0
			l0,0l0,0l0,0l0,0l0,0l0,0l0,0l0,0l0,0l0,0l0,0l0,0l0,0l0,0l0,0l0,0l0,0l0,0l0,0l0,0l0,0l0,0l0,0l0,0l0,0l0,0l0,0l0,0l0,0l0,0l0,0
			l0,0l0,0l0,0l0,0l0,0l0,0l0,0l0,0l0,0l0,0l0,0l0,0l0,0l0,0l0,0l0,0l0,0l0,0l0,0l0,0l0,0l0,0l0,0l0,0l0,0l0,0l0,0l0,0l0,0l0,0l0,0
			l0,0l0,0l0,0l0,0l0,0l0,0l0,0l0,0l0,0l0,0l0,0l0,0l0,0l0,0l0,0l0,0l0,0l0,0l0,0l0,0l0,0l0,0l0,0l0,0l0,0l0,0l0,0l0,0l0,0l0,0l0,0
			l0,0l0,0l0,0l0,0l0,0l0,0l0,0l0,0l0,0l0,0l0,0l0,0l0,0l0,0l0,0l0,0l0,0l0,0l0,0l0,0l0,0l0,0l0,0l0,0l0,0l0,0l0,0l0,0l0,0l0,0l0,0
			l0,0l0,0l0,0l0,0l0,0l0,0l0,0l0,0l0,0l0,0l0,0l0,0l0,0l0,0l0,0l0,0l0,0l0,0l0,0l0,0l0,0l0,0l0,0l0,0l0,0l0,0l0,0l0,0l0,0l0,0l0,0
			l0,0l0,0l0,0l0,0l0,0l0,0l0,0l0,0l0,0l0,0l0,0l0,0l0,0l0,0l0,0l0,0l0,0l0,0l0,0l0,0l0,0l0,0l0,0l0,0l0,0l0,0l0,0l0,0l0,0l0,0l0,0
			l0,0l0,0l0,0l0,0l0,0l0,0l0,0l0,0l0,0l0,0l0,0l0,0l0,0l0,0l0,0l0,0l0,0l0,0l0,0l0,0l0,0l0,0l0,0l0,0l0,0l0,0l0,0l0,0l0,0l0,0l0,0
			l0,0l0,0l0,0l0,0l0,0l0,0l0,0l0,0l0,0l0,0l0,0l0,0l0,0l0,0l0,0l0,0l0,0l0,0l0,0l0,0l0,0l0,0l0,0l0,0l0,0l0,0l0,0l0,0l0,0l0,0l0,0
			l0,0l0,0l0,0l0,0l0,0l0,0l0,0l0,0l0,0l0,0l0,0l0,0l0,0l0,0l0,0l0,0l0,0l0,0h0l0,0h-0.3l0,0l0,0h0l0,0l0,0l0,0l0,0l0,0l0,0l0,0l0,0
			l0,0l0,0l0,0l0,0l0,0l0,0l0,0l0,0l0,0l0,0l0,0l0,0l0,0l0,0l0,0l0,0l0,0l0,0l0,0l0,0l0,0l0,0l0,0l0,0l0,0l0,0l0,0l0,0l0,0l0,0l0,0
			l0,0l0,0l0,0l0,0l0,0l0,0l0,0l0,0l0,0l0,0l0,0l0,0l0,0l0,0l0,0l0,0l0,0l0,0l0,0l0,0l0,0l0,0l0,0l0,0l0,0l0,0l0,0l0,0l0,0l0,0l0,0
			l0,0l0,0l0,0l0,0l0,0l0,0l0,0l0,0l0,0l0,0l0,0l0,0l0,0l0,0l0,0l0,0l0,0l0,0l0,0l0,0l0,0l0,0l0,0l0,0l0,0l0,0l0,0l0,0l0,0l0,0l0,0
			l0,0l0,0l0,0l0,0l0,0l0,0l0,0l0,0l0,0l0,0l0,0l0,0l0,0l0,0l0,0l0,0l0,0l0,0l0,0l0,0l0,0l0,0l0,0l0,0l0,0l0,0l0,0l0,0l0,0l0,0l0,0
			l0,0l0,0l0,0l0,0l0,0l0,0l0,0l0,0l0,0l0,0l0,0l0,0l0,0l0,0l0,0l0,0l0,0l0,0l0,0l0,0l0,0l0,0l0,0l0,0l0,0l0,0l0,0l0,0l0,0l0,0l0,0
			l0,0l0,0l0,0l0,0l0,0l0,0l0,0l0,0l0,0l0,0l0,0l0,0l0,0l0,0l0,0l0,0l0,0l0,0l0,0l0,0l0,0l0,0l0,0l0,0l0,0l0,0l0,0l0,0l0,0l0,0l0,0
			l0,0l0,0l0,0l0,0l0,0l0,0l0,0l0,0l0,0l0,0l0,0l0,0l0,0l0,0l0,0l0,0l0,0l0,0l0,0l0,0l0,0l0,0l0,0l0,0l0,0l0,0l0,0l0,0l0,0l0,0l0,0
			l0,0l0,0l0,0l0,0l0,0l0,0l0,0l0,0l0,0l0,0l0,0l0,0l0,0l0,0l0,0l0,0l0,0l0,0l0,0l0,0l0,0l0,0l0,0l0,0l0,0l0,0l0,0l0,0l0,0l0,0l0,0
			l0,0l0,0l0,0l0,0l0,0l0,0l0,0l0,0l0,0l0,0l0,0l0,0l0,0l0,0l0,0l0,0l0,0l0,0l0,0l0,0l0,0l0,0l0,0l0,0l0,0l0,0l0,0l0,0l0,0l0,0l0,0
			l0,0l0,0l0,0l0,0l0,0l0,0l0,0l0,0l0,0l0,0l0,0l0,0l0,0l0,0l0,0l0,0l0,0l0,0l0,0l0,0l0,0l0,0l0,0l0,0l0,0l0,0l0,0l0,0l0,0l0,0l0,0
			l0,0l0,0l0,0l0,0l0,0l0,0l0,0l0,0l0,0l0,0l0,0l0,0l0,0l0,0l0,0l0,0l0,0l0,0l0,0l0,0l0,0l0,0l0,0l0,0l0,0l0,0l0,0l0,0l0,0l0,0l0,0
			l0,0l0,0l0,0l0,0l0,0l0,0l0,0l0,0l0,0l0,0l0,0l0,0l0,0l0,0l0,0l0,0l0,0l0,0l0,0l0,0l0,0l0,0l0,0l0,0l0,0l0,0l0,0l0,0l0,0l0,0l0,0
			l0,0l0,0l0,0l0,0l0,0l0,0l0,0l0,0l0,0l0,0l0,0l0,0l0,0l0,0l0,0l0,0l0,0l0,0l0,0l0,0l0,0l0,0l0,0l0,0l0,0l0,0l0,0l0,0l0,0l0,0l0,0
			l0,0l0,0l0,0l0,0l0,0l0,0l0,0l0,0l0,0l0,0l0,0l0,0l0,0l0,0l0,0l0,0l0,0l0,0l0,0l0,0l0,0l0,0l0,0l0,0l0,0l0,0l0,0l0,0l0,0l0,0l0,0
			l0,0l0,0l0,0l0,0l0,0l0,0l0,0l0,0l0,0l0,0l0,0l0,0l0,0l0,0l0,0l0,0l0,0l0,0l0,0l0,0l0,0l0,0l0,0l0,0l0,0l0,0l0,0l0,0l0,0l0,0l0,0
			l0,0l0,0l0,0l0,0l0,0l0,0l0,0l0,0l0,0l0,0l0,0l0,0l0,0l0,0l0,0l0,0l0,0l0,0l0,0l0,0l0,0l0,0l0,0l0,0l0,0v-0.3l0,0l0,0l0,0l0,0l0,0
			l0,0l0,0l0,0l0,0l0,0l0,0l0,0l0,0l0,0l0,0l0,0l0,0l0,0l0,0l0,0l0,0l0,0l0,0l0,0l0,0l0,0l0,0l0,0l0,0l0,0l0,0l0,0l0,0l0,0l0,0l0,0
			l0,0l0,0l0,0l0,0l0,0l0,0l0,0l0,0l0,0l0,0l0,0l0,0l0,0l0,0l0,0l0,0l0,0l0,0l0,0l0,0l0,0l0,0l0,0l0,0l0,0l0,0l0,0l0,0l0,0l0,0l0,0
			l0,0l0,0l0,0l0,0l0,0l0,0l0,0l0,0l0,0l0,0l0,0l0,0l0,0l0,0l0,0l0,0l0,0l0,0l0,0l0,0l0,0l0,0l0,0l0,0l0,0l0,0l0,0l0,0l0,0l0,0l0,0
			l0,0l0,0l0,0l0,0l0,0l0,0l0,0l0,0l0,0l0,0l0,0l0,0l0,0l0,0l0,0l0,0l0,0l0,0l0,0l0,0l0,0l0,0l0,0l0,0l0,0l0,0l0,0l0,0l0,0l0,0l0,0
			l0,0l0,0l0,0l0,0l0,0l0,0l0,0l0,0l0,0l0,0l0,0l0,0l0,0l0,0l0,0l0,0l0,0l0,0l0,0l0,0l0,0l0,0l0,0l0,0l0,0l0,0l0,0l0,0l0,0l0,0l0,0
			l0,0l0,0l0,0l0,0l0,0l0,0l0,0l0,0l0,0l0,0l0,0l0,0l0,0l0,0l0,0l0,0l0,0l0,0l0,0l0,0l0,0l0,0l0,0l0,0l0,0l0,0l0,0l0,0l0,0l0,0l0,0
			l0,0l0,0l0,0l0,0l0,0l0,0l0,0l0,0l0,0l0,0l0,0l0,0l0,0l0,0l0,0l0,0l0,0l0,0l0,0l0,0l0,0l0,0l0,0l0,0l0,0l0,0l0,0l0,0l0,0l0,0l0,0
			l0,0l0,0l0,0l0,0l0,0l0,0l0,0l0,0l0,0l0,0l0,0l0,0l0,0l0,0l0,0l0,0l0,0l0,0l0,0l0,0l0,0l0,0l0,0l0,0l0,0l0,0l0,0l0,0l0,0l0,0l0,0
			l0,0l0,0l0,0l0,0l0,0l0,0l0,0l0,0l0,0l0,0l0,0l0,0l0,0l0,0l0,0l0,0l0,0l0,0l0,0l0,0l0,0l0,0l0,0l0,0l0,0l0,0l0,0l0,0l0,0l0,0l0,0
			l0,0l0,0l0,0l0,0l0,0l0,0l0,0l0,0l0,0l0,0l0,0l0,0l0,0l0,0l0,0l0,0l0,0l0,0l0,0l0,0l0,0l0,0l0,0l0,0l0,0l0,0l0,0l0,0l0,0l0,0l0,0
			l0,0l0,0l0,0l0,0l0,0l0,0l0,0l0,0l0,0l0,0l0,0l0,0l0,0l0,0l0,0l0,0l0,0l0,0l0,0l0,0l0,0l0,0l0,0l0,0l0,0l0,0l0,0l0,0l0,0l0,0l0,0
			l0,0l0,0l0,0l0,0l0,0l0,0l0,0l0,0l0,0l0,0l0,0l0,0l0,0l0,0l0,0l0,0l0,0l0,0l0,0l0,0l0,0l0,0l0,0l0,0l0,0l0,0l0,0l0,0l0,0l0,0l0,0
			l0,0l0,0l0,0l0,0l0,0l0,0l0,0l0,0l0,0l0,0l0,0l0,0l0,0l0,0l0,0l0,0l0,0l0,0l0,0l0,0l0,0l0,0l0,0l0,0l0,0l0,0l0,0l0,0l0,0l0,0l0,0
			l0,0l0,0l0,0l0,0l0,0l0,0l0,0l0,0l0,0l0,0l0,0l0,0l0,0l0,0l0,0l0,0l0,0l0,0l0,0l0,0l0,0l0,0l0,0l0,0l0,0l0,0l0,0l0,0l0,0l0,0l0,0
			l0,0l0,0l0,0l0,0l0,0l0,0l0,0l0,0l0,0l0,0l0,0l0,0l0,0l0,0l0,0l0,0l0,0l0,0l0,0l0,0l0,0l0,0l0,0l0,0l0,0l0,0l0,0l0,0l0,0l0,0l0,0
			l0,0l0,0l0,0l0,0l0,0l0,0l0,0l0,0l0,0l0,0l0,0l0,0l0,0l0,0l0,0l0,0l0,0l0,0l0,0l0,0l0,0l0,0l0,0l0,0l0,0l0,0l0,0L-16.5,46.4
			C-16.5,46.4-16.5,46.4-16.5,46.4z M-15.7,47L-15.7,47L-15.7,47L-15.7,47L-15.7,47L-15.7,47L-15.7,47l-0.1,0l0,0l0,0l0,0l0,0l0,0
			l0,0l0,0l0,0l0,0l0,0l0,0l0,0l0,0l0,0l0,0l0,0l0,0l0,0l0,0l0,0l0,0l0,0l0,0l0,0l0,0l0,0l0,0l0,0l0,0l0,0l0,0l0,0h-0.3l0,0l0,0l0,0
			l0,0l0,0l0,0l0,0l0,0l0,0l0,0l0,0l0,0l0,0l0,0l0,0l0,0l0,0l0,0l0,0l0,0l0,0l0,0l0,0l0,0l0,0l0,0l0,0l0,0l0,0l0,0l0,0l0,0l0,0l0,0
			l0,0l0,0l0,0l0,0l0,0l0,0l0,0l0,0l0,0l0,0l0,0l0,0l0,0l0,0l0,0l0,0l0,0l0,0l0,0l0,0l0,0l0,0l0,0l0,0l0,0l0,0l0,0l0,0l0,0l0,0l0,0
			l0,0h0l0,0l0,0l0,0l0,0l0,0l0,0l0,0l0,0l0,0l0,0l0,0l0,0l0,0l0,0l0,0l0,0l0,0l0,0l0,0l0,0l0,0l0,0l0,0l0,0l0,0l0,0l0,0l0,0l0,0
			l0,0l0,0l0,0l0,0l0,0l0,0l0,0l0,0l0,0l0,0l0,0l0,0l0,0l0,0l0,0l0,0l0,0l0,0l0,0l0,0l0,0l0,0l0,0l0,0l0,0l0,0l0,0l0,0l0,0l0,0l0,0
			l0,0l0,0l0,0l0,0l0,0l0,0l0,0l0,0l0,0l0,0l0,0l0,0l0,0l0,0l0,0l0,0l0,0l0,0l0,0l0,0l0,0l0,0l0,0l0,0l0,0l0,0l0,0l0,0l0,0l0,0l0,0
			l0,0l0,0l0,0l0,0l0,0l0,0l0,0l0,0l0,0l0,0l0,0l0,0l0,0l0,0l0,0l0,0l0,0l0,0l0,0l0,0l0,0l0,0l0,0l0,0l0,0l0,0l0,0l0,0l0,0l0,0l0,0
			l0,0l0,0l0,0l0,0l0,0l0,0l0,0l0,0l0,0l0,0l0,0l0,0l0,0l0,0l0,0l0,0l0,0l0,0l0,0l0,0l0,0l0,0l0,0l0,0l0,0l0,0l0,0l0,0l0,0l0,0l0,0
			l0,0l0,0l0,0l0,0l0,0l0,0l0,0l0,0l0,0l0,0l0,0l0,0l0,0l0,0l0,0l0,0l0,0l0,0l0,0l0,0l0,0l0,0l0,0l0,0l0,0l0,0l0,0l0,0l0,0l0,0l0,0
			l0,0l0,0l0,0l0,0l0,0l0,0l0,0l0,0l0,0l0,0l0,0l0,0l0,0l0,0l0,0l0,0l0,0l0,0l0,0l0,0l0,0l0,0l0,0l0,0l0,0l0,0l0,0l0,0l0,0l0,0l0,0
			l0,0l0,0l0,0l0,0l0,0l0,0l0,0l0,0l0,0l0,0l0,0l0,0l0,0l0,0l0,0l0,0l0,0l0,0l0,0l0,0l0,0l0,0l0,0l0,0l0,0l0,0l0,0l0,0l0,0l0,0l0,0
			l0,0l0,0l0,0l0,0l0,0l0,0l0,0l0,0l0,0l0,0l0,0l0,0l0,0l0,0l0,0l0,0l0,0l0,0l0,0l0,0l0,0l0,0l0,0l0,0l0,0l0,0l0,0l0,0l0,0l0,0l0,0
			l0,0l0,0l0,0l0,0l0,0l0,0l0,0l0,0l0,0l0,0l0,0l0,0l0,0l0,0l0,0l0,0l0,0l0,0l0,0l0,0l0,0l0,0l0,0l0,0l0,0l0,0l0,0l0,0l0,0l0,0l0,0
			l0,0l0,0l0,0l0,0l0,0l0,0l0,0l0,0l0,0l0,0l0,0l0,0l0,0l0,0l0,0l0,0l0,0l0,0l0,0l0,0l0,0l0,0l0,0l0,0l0,0l0,0l0,0l0,0l0,0l0,0l0,0
			l0,0l0,0l0,0l0,0l0,0l0,0l0,0l0,0l0,0l0,0l0,0l0,0l0,0l0,0l0,0l0,0l0,0l0,0l0,0l0,0l0,0l0,0l0,0l0,0l0,0l0,0l0,0l0,0l0,0l0,0l0,0
			l0,0l0,0l0,0l0,0l0,0l0,0l0,0l0,0l0,0l0,0l0,0l0,0l0,0l0,0l0,0l0,0l0,0l0,0l0,0l0,0l0,0l0,0l0,0l0,0l0,0l0,0l0,0l0,0l0,0l0,0l0,0
			l0,0l0,0l0,0l0,0l0,0l0,0l0,0l0,0l0,0l0,0l0,0l0,0l0,0l0,0l0,0l0,0l0,0l0,0l0,0l0,0l0,0l0,0l0,0l0,0l0,0l0,0l0,0v0.3l0,0l0,0l0,0
			l0,0l0,0l0,0l0,0l0,0l0,0l0,0l0,0l0,0l0,0l0,0l0,0l0,0l0,0l0,0l0,0l0,0l0,0l0,0l0,0l0,0l0,0l0,0l0,0l0,0l0,0l0,0l0,0l0,0l0,0l0,0
			l0,0l0,0l0,0l0,0l0,0l0,0l0,0l0,0l0,0l0,0l0,0l0,0l0,0l0,0l0,0l0,0l0,0l0,0l0,0l0,0l0,0l0,0l0,0l0,0l0,0l0,0l0,0l0,0l0,0l0,0l0,0
			l0,0l0,0l0,0l0,0l0,0l0,0l0,0l0,0l0,0l0,0l0,0l0,0l0,0l0,0l0,0l0,0l0,0l0,0l0,0l0,0l0,0l0,0l0,0l0,0l0,0l0,0l0,0l0,0l0,0l0,0l0,0
			l0,0l0,0l0,0l0,0l0,0l0,0l0,0l0,0l0,0l0,0l0,0l0,0l0,0l0,0l0,0l0,0l0,0l0,0l0,0l0,0l0,0l0,0l0,0l0,0l0,0l0,0l0,0l0,0l0,0l0,0l0,0
			l0,0l0,0l0,0l0,0l0,0l0,0l0,0l0,0l0,0l0,0l0,0l0,0l0,0l0,0l0,0l0,0l0,0l0,0l0,0l0,0l0,0l0,0l0,0l0,0l0,0l0,0l0,0l0,0l0,0l0,0l0,0
			l0,0l0,0l0,0l0,0l0,0l0,0l0,0l0,0l0,0l0,0l0,0l0,0l0,0l0,0l0,0l0,0l0,0l0,0l0,0l0,0l0,0l0,0l0,0l0,0l0,0l0,0l0,0l0,0l0,0l0,0l0,0
			l0,0l0,0l0,0l0,0l0,0l0,0l0,0l0,0l0,0l0,0l0,0l0,0l0,0l0,0l0,0l0,0l0,0l0,0l0,0l0,0l0,0l0,0l0,0l0,0l0,0l0,0l0,0l0,0l0,0l0,0l0,0
			l0,0l0,0l0,0l0,0l0,0l0,0l0,0l0,0l0,0l0,0l0,0l0,0l0,0l0,0l0,0l0,0l0,0l0,0l0,0l0,0l0,0l0,0l0,0l0,0l0,0l0,0l0,0l0,0l0,0l0,0l0,0
			l0,0l0,0l0,0l0,0l0,0l0,0l0,0l0,0l0,0l0,0l0,0l0,0l0,0l0,0l0,0l0,0l0,0l0,0l0,0l0,0l0,0l0,0l0,0l0,0l0,0l0,0l0,0l0,0l0,0l0,0l0,0
			l0,0l0,0l0,0l0,0l0,0l0,0l0,0l0,0l0,0l0,0l0,0l0,0l0,0l0,0l0,0l0,0l0,0l0,0l0,0l0,0l0,0l0,0l0,0l0,0l0,0l0,0l0,0l0,0l0,0l0,0l0,0
			l0,0l0,0l0,0l0,0l0,0l0,0l0,0l0,0l0,0l0,0l0,0l0,0l0,0l0,0l0,0l0,0l0,0l0,0l0,0l0,0l0,0l0,0l0,0l0,0l0,0l0,0l0,0l0,0l0,0l0,0l0,0
			l0,0l0,0l0,0l0,0l0,0l0,0l0,0l0,0l0,0l0,0l0,0l0,0l0,0l0,0l0,0l0,0l0,0l0,0l0,0l0,0l0,0l0,0l0,0l0,0l0,0l0,0l0,0l0,0l0,0l0,0l0,0
			l0,0l0,0l0,0l0,0l0,0l0,0l0,0l0,0l0,0l0,0l0,0l0,0l0,0l0,0l0,0l0,0l0,0l0,0l0,0l0,0l0,0l0,0l0,0l0,0l0,0l0,0l0,0l0,0l0,0l0,0l0,0
			l0,0l0,0l0,0l0,0l0,0l0,0l0,0l0,0l0,0l0,0l0,0l0,0l0,0l0,0l0,0l0,0l0,0l0,0l0,0l0,0l0,0l0,0l0,0l0,0l0,0l0,0l0,0l0,0l0,0l0,0l0,0
			l0,0l0,0l0,0l0,0l0,0l0,0l0,0l0,0l0,0l0,0l0,0l0,0l0,0l0,0l0,0l0,0l0,0l0,0l0,0l0,0l0,0l0,0l0,0l0,0l0,0l0,0l0,0l0,0l0,0l0,0l0,0
			l0,0l0,0l0,0l0,0l0,0l0,0l0,0l0,0l0,0l0,0l0,0l0,0l0,0l0,0l0,0l0,0l0,0l0,0l0,0l0,0l0,0l0,0l0,0l0,0l0,0l0,0l0,0h0l0,0l0,0h0l0,0
			h0.3l0,0h0l0,0l0,0l0,0l0,0l0,0l0,0l0,0l0,0l0,0l0,0l0,0l0,0l0,0l0,0l0,0l0,0l0,0l0,0l0,0l0,0l0,0l0,0l0,0l0,0l0,0l0,0l0,0l0,0
			l0,0l0,0l0,0l0,0l0,0l0,0l0,0l0,0l0,0l0,0l0,0l0,0l0,0l0,0l0,0l0,0l0,0l0,0l0,0l0,0l0,0l0,0l0,0l0,0l0,0l0,0l0,0l0,0l0,0l0,0l0,0
			l0,0l0,0l0,0l0,0l0,0l0,0l0,0l0,0l0,0l0,0l0,0l0,0l0,0l0,0l0,0l0,0l0,0l0,0l0,0l0,0l0,0l0,0l0,0l0,0l0,0l0,0l0,0l0,0l0,0l0,0l0,0
			l0,0l0,0l0,0l0,0l0,0l0,0l0,0l0,0l0,0l0,0l0,0l0,0l0,0l0,0l0,0l0,0l0,0l0,0l0,0l0,0l0,0l0,0l0,0l0,0l0,0l0,0l0,0l0,0l0,0l0,0l0,0
			l0,0l0,0l0,0l0,0l0,0l0,0l0,0l0,0l0,0l0,0l0,0l0,0l0,0l0,0l0,0l0,0l0,0l0,0l0,0l0,0l0,0l0,0l0,0l0,0l0,0l0,0l0,0l0,0l0,0l0,0l0,0
			l0,0l0,0l0,0l0,0l0,0l0,0l0,0l0,0l0,0l0,0l0,0l0,0l0,0l0,0l0,0l0,0l0,0l0,0l0,0l0,0l0,0l0,0l0,0l0,0l0,0l0,0l0,0l0,0l0,0l0,0l0,0
			l0,0l0,0l0,0l0,0l0,0l0,0l0,0l0,0l0,0l0,0l0,0l0,0l0,0l0,0l0,0l0,0l0,0l0,0l0,0l0,0l0,0l0,0l0,0l0,0l0,0l0,0l0,0l0,0l0,0l0,0l0,0
			l0,0l0,0l0,0l0,0l0,0l0,0l0,0l0,0l0,0l0,0l0,0l0,0l0,0l0,0l0,0l0,0l0,0l0,0l0,0l0,0l0,0l0,0l0,0l0,0l0,0l0,0l0,0l0,0l0,0l0,0l0,0
			l0,0l0,0l0,0l0,0l0,0l0,0l0,0l0,0l0,0l0,0l0,0l0,0l0,0l0,0l0,0l0,0l0,0l0,0l0,0l0,0l0,0l0,0l0,0l0,0l0,0l0,0l0,0l0,0l0,0l0,0l0,0
			l0,0l0,0l0,0l0,0l0,0l0,0l0,0l0,0l0,0l0,0l0,0l0,0l0,0l0,0l0,0l0,0l0,0l0,0l0,0l0,0l0,0l0,0l0,0l0,0l0,0l0,0l0,0l0,0l0,0l0,0l0,0
			l0,0l0,0l0,0l0,0l0,0l0,0l0,0l0,0l0,0l0,0l0,0l0,0l0,0l0,0l0,0l0,0l0,0l0,0l0,0l0,0l0,0l0,0l0,0l0,0l0,0l0,0l0,0l0,0l0,0l0,0l0,0
			l0,0l0,0l0,0l0,0l0,0l0,0l0,0l0,0l0,0l0,0l0,0l0,0l0,0l0,0l0,0l0,0l0,0l0,0l0,0l0,0l0,0l0,0l0,0l0,0l0,0l0,0l0,0l0,0l0,0l0,0l0,0
			l0,0l0,0l0,0l0,0l0,0l0,0l0,0l0,0l0,0l0,0l0,0l0,0l0,0l0,0l0,0l0,0l0,0l0,0l0,0l0,0l0,0l0,0l0,0l0,0l0,0l0,0l0,0l0,0l0,0l0,0l0,0
			l0,0l0,0l0,0l0,0l0,0l0,0l0,0l0,0l0,0l0,0l0,0l0,0l0,0l0,0l0,0l0,0l0,0l0,0l0,0l0,0l0,0l0,0l0,0l0,0l0,0l0,0l0,0l0,0l0,0l0,0l0,0
			l0,0l0,0l0,0l0,0l0,0l0,0l0,0l0,0l0,0l0,0l0,0l0,0l0,0l0,0l0,0l0,0l0,0l0,0l0,0l0,0l0,0l0,0l0,0l0,0l0,0l0,0l0,0l0,0l0,0l0,0l0,0
			l0,0l0,0l0,0l0,0l0,0l0,0l0,0l0,0l0,0l0,0l0,0l0,0l0,0l0,0l0,0l0,0l0,0l0,0l0,0l0,0l0,0l0,0l0,0l0,0l0,0l0,0l0,0l0,0l0,0l0,0v-0.3
			l0,0l0,0l0,0l0,0l0,0l0,0l0,0l0,0l0,0l0,0l0,0l0,0l0,0l0,0l0,0l0,0l0,0l0,0l0,0l0,0l0,0l0,0l0,0l0,0l0,0l0,0l0,0l0,0l0,0l0,0l0,0
			l0,0l0,0l0,0l0,0l0,0l0,0l0,0l0,0l0,0l0,0l0,0l0,0l0,0l0,0l0,0l0,0l0,0l0,0l0,0l0,0l0,0l0,0l0,0l0,0l0,0l0,0l0,0l0,0l0,0l0,0l0,0
			l0,0l0,0l0,0l0,0l0,0l0,0l0,0l0,0l0,0l0,0l0,0l0,0l0,0l0,0l0,0l0,0l0,0l0,0l0,0l0,0l0,0l0,0l0,0l0,0l0,0l0,0l0,0l0,0l0,0l0,0l0,0
			l0,0l0,0l0,0l0,0l0,0l0,0l0,0l0,0l0,0l0,0l0,0l0,0l0,0l0,0l0,0l0,0l0,0l0,0l0,0l0,0l0,0l0,0l0,0l0,0l0,0l0,0l0,0l0,0l0,0l0,0l0,0
			l0,0l0,0l0,0l0,0l0,0l0,0l0,0l0,0l0,0l0,0l0,0l0,0l0,0l0,0l0,0l0,0l0,0l0,0l0,0l0,0l0,0l0,0l0,0l0,0l0,0l0,0l0,0l0,0l0,0l0,0l0,0
			l0,0l0,0l0,0l0,0l0,0l0,0l0,0l0,0l0,0l0,0l0,0l0,0l0,0l0,0l0,0l0,0l0,0l0,0l0,0l0,0l0,0l0,0l0,0l0,0l0,0l0,0l0,0l0,0l0,0l0,0l0,0
			l0,0l0,0l0,0l0,0l0,0l0,0l0,0l0,0l0,0l0,0l0,0l0,0l0,0l0,0l0,0l0,0l0,0l0,0l0,0l0,0l0,0l0,0l0,0l0,0l0,0l0,0l0,0l0,0l0,0l0,0l0,0
			l0,0l0,0l0,0l0,0l0,0l0,0l0,0l0,0l0,0l0,0l0,0l0,0l0,0l0,0l0,0l0,0l0,0l0,0l0,0l0,0l0,0l0,0l0,0l0,0l0,0l0,0l0,0l0,0l0,0l0,0l0,0
			l0,0l0,0l0,0l0,0l0,0l0,0l0,0l0,0l0,0l0,0l0,0l0,0l0,0l0,0l0,0l0,0l0,0l0,0l0,0l0,0l0,0l0,0l0,0l0,0l0,0l0,0l0,0l0,0l0,0l0,0l0,0
			l0,0l0,0l0,0l0,0l0,0l0,0l0,0l0,0l0,0l0,0l0,0l0,0l0,0l0,0l0,0l0,0l0,0l0,0l0,0l0,0l0,0l0,0l0,0l0,0l0,0l0,0l0,0l0,0l0,0l0,0l0,0
			l0,0l0,0l0,0l0,0l0,0l0,0l0,0l0,0l0,0l0,0l0,0l0,0l0,0l0,0l0,0l0,0l0,0l0,0l0,0l0,0l0,0l0,0l0,0l0,0l0,0l0,0l0,0l0,0l0,0l0,0l0,0
			l0,0l0,0l0,0l0,0l0,0l0,0l0,0l0,0l0,0l0,0l0,0l0,0l0,0l0,0l0,0l0,0l0,0l0,0l0,0l0,0l0,0l0,0l0,0l0,0l0,0l0,0l0,0l0,0l0,0l0,0l0,0
			l0,0l0,0l0,0l0,0l0,0l0,0l0,0l0,0l0,0l0,0l0,0l0,0l0,0l0,0l0,0l0,0l0,0l0,0l0,0l0,0l0,0l0,0l0,0l0,0l0,0l0,0l0,0l0,0l0,0l0,0l0,0
			l0,0l0,0l0,0l0,0l0,0l0,0l0,0l0,0l0,0l0,0l0,0l0,0l0,0l0,0l0,0l0,0l0,0l0,0l0,0l0,0l0,0l0,0l0,0l0,0l0,0l0,0l0,0l0,0l0,0l0,0l0,0
			l0,0l0,0l0,0l0,0l0,0l0,0l0,0l0,0l0,0l0,0l0,0l0,0l0,0l0,0l0,0l0,0l0,0l0,0l0,0l0,0l0,0l0,0l0,0l0,0l0,0l0,0L-15.7,47L-15.7,47
			L-15.7,47L-15.7,47L-15.7,47L-15.7,47L-15.7,47z"/>
		<ellipse id="ellipse57" class="st3" cx="-13.1" cy="51.2" rx="1.4" ry="0.8"/>
		<path id="path59" class="st3" d="M-13,50.1L-13,50.1L-13,50.1L-13,50.1L-13,50.1L-13,50.1L-13,50.1L-13,50.1L-13,50.1L-13,50.1
			l0.1,0l0,0l0,0l0,0l0,0l0,0l0,0l0,0l0,0l0,0l0,0l0,0l0,0l0,0l0,0l0,0l0,0l0,0l0,0l0,0l0,0l0,0l0,0l0,0l0,0l0,0l0,0l0,0l0,0l0,0
			l0,0l0,0l0,0l0,0l0,0l0,0l0,0l0,0l0,0l0,0l0,0l0,0l0,0l0,0l0,0l0,0l0,0l0,0l0,0l0,0l0,0l0,0l0,0l0,0l0,0l0,0l0,0l0,0l0,0l0,0l0,0
			l0,0l0,0l0,0l0,0l0,0l0,0l0,0l0,0l0,0l0,0l0,0l0,0l0,0l0,0l0,0l0,0l0,0l0,0l0,0l0,0l0,0l0,0l0,0l0,0l0,0l0,0l0,0l0,0l0,0l0,0l0,0
			l0,0l0,0l0,0l0,0l0,0l0,0l0,0l0,0l0,0l0,0l0,0l0,0l0,0l0,0l0,0l0,0l0,0l0,0l0,0l0,0l0,0l0,0l0,0l0,0l0,0l0,0l0,0l0,0l0,0l0,0l0,0
			l0,0l0,0l0,0l0,0l0,0l0,0l0,0l0,0l0,0l0,0l0,0l0,0l0,0l0,0l0,0l0,0l0,0l0,0l0,0l0,0l0,0l0,0l0,0l0,0l0,0l0,0l0,0l0,0l0,0l0,0l0,0
			l0,0l0,0l0,0l0,0l0,0l0,0l0,0l0,0l0,0l0,0l0,0l0,0l0,0l0,0l0,0l0,0l0,0l0,0l0,0l0,0l0,0l0,0l0,0l0,0l0,0l0,0l0,0l0,0l0,0l0,0l0,0
			l0,0l0,0l0,0l0,0l0,0l0,0l0,0l0,0l0,0l0,0l0,0l0,0l0,0l0,0l0,0l0,0l0,0l0,0l0,0l0,0l0,0l0,0l0,0l0,0l0,0l0,0l0,0l0,0l0,0l0,0l0,0
			l0,0l0,0l0,0l0,0l0,0l0,0l0,0l0,0l0,0l0,0l0,0l0,0l0,0l0,0l0,0l0,0l0,0l0,0l0,0l0,0l0,0l0,0l0,0v0.1l0,0l0,0l0,0l0,0l0,0l0,0l0,0
			l0,0l0,0l0,0l0,0l0,0l0,0l0,0l0,0l0,0l0,0l0,0l0,0l0,0l0,0l0,0l0,0l0,0l0,0l0,0l0,0l0,0l0,0l0,0l0,0l0,0l0,0l0,0l0,0l0,0l0,0l0,0
			l0,0l0,0l0,0l0,0l0,0l0,0l0,0l0,0l0,0l0,0l0,0l0,0l0,0l0,0l0,0l0,0l0,0l0,0l0,0l0,0l0,0l0,0l0,0l0,0l0,0l0,0l0,0l0,0l0,0l0,0l0,0
			l0,0l0,0l0,0l0,0l0,0l0,0l0,0l0,0l0,0l0,0l0,0l0,0l0,0l0,0l0,0l0,0l0,0l0,0l0,0l0,0l0,0l0,0l0,0l0,0l0,0l0,0l0,0l0,0l0,0l0,0l0,0
			l0,0l0,0l0,0l0,0l0,0l0,0l0,0l0,0l0,0l0,0l0,0l0,0l0,0l0,0l0,0l0,0l0,0l0,0l0,0l0,0l0,0l0,0l0,0l0,0l0,0l0,0l0,0l0,0l0,0l0,0l0,0
			l0,0l0,0l0,0l0,0l0,0l0,0l0,0l0,0l0-0.1l0,0l0,0l0,0l0,0l0,0l0,0l0,0l0,0l0,0l0,0l0,0l0,0l0,0l0,0l0,0l0,0l0,0l0,0l0,0l0,0l0,0
			l0,0l0,0l0,0l0,0l0,0l0,0l0,0l0,0l0,0l0,0l0,0l0,0l0,0l0,0l0,0l0,0l0,0l0,0l0,0l0,0l0,0l0,0l0,0l0,0l0,0l0,0l0,0l0,0l0,0l0,0l0,0
			l0,0l0,0l0,0l0,0l0,0l0,0l0,0l0,0l0,0l0,0l0,0l0,0l0,0l0,0l0,0l0,0l0,0l0,0l0,0l0,0l0,0l0,0l0,0l0,0l0,0l0,0l0,0l0,0l0,0l0,0l0,0
			l0,0l0,0l0,0l0,0l0,0l0,0l0,0l0,0l0,0l0,0l0,0l0,0l0,0l0,0l0,0l0,0l0,0l0,0l0,0l0,0l0,0h-0.3l0,0l0,0l0,0l0,0l0,0l0,0l0,0l0,0l0,0
			l0,0l0,0l0,0l0,0l0,0l0,0l0,0l0,0l0,0l0,0l0,0l0,0l0,0l0,0l0,0l0,0l0,0l0,0l0,0l0,0l0,0l0,0l0,0l0,0l0,0l0,0l0,0l0,0l0,0l0,0l0,0
			l0,0l0,0l0,0l0,0l0,0l0,0l0,0l0,0l0,0l0,0l0,0l0,0l0,0l0,0l0,0l0,0l0,0l0,0l0,0l0,0l0,0l0,0l0,0l0,0l0,0l0,0l0,0l0,0l0,0h0l0,0
			l0,0l0,0l0,0l0,0l0,0l0,0l0,0l0,0l0,0l0,0l0,0l0,0l0,0l0,0l0,0l0,0l0,0l0,0l0,0l0,0l0,0l0,0l0,0l0,0l0,0l0,0l0,0l0,0l0,0l0,0l0,0
			l0,0l0,0l0,0l0,0l0,0l0,0l0,0l0,0l0,0l0,0l0,0l0,0l0,0l0,0l0,0l0,0l0,0l0,0l0,0l0,0l0,0l0,0l0,0l0,0l0,0l0,0l0,0l0,0l0,0l0,0l0,0
			l0,0l0,0l0,0l0,0l0,0l0,0l0,0l0,0l0,0l0,0l0,0l0,0l0,0l0,0l0,0l0,0l0,0l0,0l0,0l0,0l0,0l0,0l0,0l0,0l0,0l0,0l0,0l0,0l0,0l0,0l0,0
			l0,0l0,0l0,0l0,0l0,0l0,0l0,0l0,0l0,0l0,0l0,0l0,0l0,0l0,0l0,0l0,0l0,0l0,0l0,0l0,0l0,0l0,0l0,0l0,0l0,0l0,0l0,0l0,0l0,0l0,0l0,0
			l0,0l0,0l0,0l0,0l0,0l0,0l0,0l0,0l0,0l0,0l0,0l0,0l0,0l0,0l0,0l0,0l0,0l0,0l0,0l0,0l0,0l0,0l0,0l0,0l0,0l0,0l0,0l0,0l0,0l0,0l0,0
			l0,0l0,0l0,0l0,0l0,0l0,0l0,0l0,0v-0.1l0,0l0,0l0,0l0,0l0,0l0,0l0,0l0,0l0,0l0,0l0,0l0,0l0,0l0,0l0,0l0,0l0,0l0,0l0,0l0,0l0,0l0,0
			l0,0l0,0l0,0l0,0l0,0l0,0l0,0l0,0l0,0l0,0l0,0l0,0l0,0l0,0l0,0l0,0l0,0l0,0l0,0l0,0l0,0l0,0l0,0l0,0l0,0l0,0l0,0l0,0l0,0l0,0l0,0
			l0,0l0,0l0,0l0,0l0,0l0,0l0,0l0,0l0,0l0,0l0,0l0,0l0,0l0,0l0,0l0,0l0,0l0,0l0,0l0,0l0,0l0,0l0,0l0,0l0,0l0,0l0,0l0,0l0,0l0,0l0,0
			l0,0l0,0l0,0l0,0l0,0l0,0l0,0l0,0l0,0l0,0l0,0l0,0l0,0l0,0l0,0l0,0l0,0l0,0l0,0l0,0l0,0l0,0l0,0l0,0l0,0l0,0l0,0l0,0l0,0l0,0l0,0
			l0,0l0,0l0,0l0,0l0,0l0,0l0,0l0,0l0,0l0,0l0,0l0,0l0,0l0,0l0,0l0,0l0,0l0,0l0,0l0,0l0,0l0,0l0,0l0,0l0,0l0,0l0,0.1l0,0l0,0l0,0
			l0,0l0,0l0,0l0,0l0,0l0,0l0,0l0,0l0,0l0,0l0,0l0,0l0,0l0,0l0,0l0,0l0,0l0,0l0,0l0,0l0,0l0,0l0,0l0,0l0,0l0,0l0,0l0,0l0,0l0,0l0,0
			l0,0l0,0l0,0l0,0l0,0l0,0l0,0l0,0l0,0l0,0l0,0l0,0l0,0l0,0l0,0l0,0l0,0l0,0l0,0l0,0l0,0l0,0l0,0l0,0l0,0l0,0l0,0l0,0l0,0l0,0l0,0
			l0,0l0,0l0,0l0,0l0,0l0,0l0,0l0,0l0,0l0,0l0,0l0,0l0,0l0,0l0,0l0,0l0,0l0,0l0,0l0,0l0,0l0,0l0,0l0,0l0,0l0,0l0,0l0,0l0,0l0,0l0,0
			l0,0l0,0L-13,50.1L-13,50.1L-13,50.1L-13,50.1L-13,50.1L-13,50.1C-13.1,50.1-13,50.1-13,50.1z M-13.1,50.7h-0.2l0,0l0,0l0,0l0,0
			l0,0l0,0l0,0l0,0l0,0l0,0l0,0l0,0l0,0l0,0l0,0l0,0l0,0l0,0l0,0l0,0l0,0l0,0l0,0h0l0,0l0,0l0,0l0,0l0,0l0,0l0,0l0,0l0,0l0,0l0,0
			l0,0l0,0l0,0l0,0l0,0l0,0l0,0l0,0l0,0l0,0l0,0l0,0l0,0l0,0l0,0l0,0l0,0l0,0l0,0l0,0l0,0l0,0l0,0l0,0l0,0l0,0l0,0l0,0l0,0l0,0l0,0
			l0,0l0,0l0,0l0,0l0,0l0,0l0,0l0,0l0,0l0,0l0,0l0,0l0,0l0,0l0,0l0,0l0,0l0,0l0,0l0,0l0,0l0,0l0,0l0,0l0,0l0,0l0,0l0,0l0,0l0,0l0,0
			l0,0l0,0l0,0l0,0l0,0l0,0l0,0l0,0l0,0l0,0l0,0l0,0l0,0l0,0l0,0l0,0l0,0l0,0l0,0l0,0l0,0l0,0l0,0l0,0l0,0l0,0l0,0l0,0l0,0l0,0l0,0
			l0,0l0,0l0,0l0,0l0,0l0,0l0,0l0,0l0,0l0,0l0,0l0,0l0,0l0,0l0,0l0,0l0,0l0,0l0,0l0,0l0,0l0,0l0,0l0,0l0,0l0,0l0,0l0,0l0,0l0,0l0,0
			l0,0l0,0l0,0l0,0l0,0l0,0l0,0l0,0l0,0l0,0l0,0l0,0l0,0l0,0l0,0l0,0l0,0l0,0l0,0l0,0l0,0v0l0,0l0,0l0,0l0,0l0,0l0,0l0,0l0,0l0,0
			l0,0l0,0l0,0l0,0l0,0l0,0l0,0l0,0l0,0l0,0l0,0l0,0l0,0l0,0l0,0l0,0l0,0l0,0l0,0l0,0l0,0l0,0l0,0l0,0l0,0l0,0l0,0l0,0v0.1l0,0l0,0
			l0,0l0,0l0,0l0,0l0,0l0,0l0,0l0,0l0,0l0,0l0,0l0,0l0,0l0,0l0,0l0,0l0,0l0,0l0,0l0,0l0,0l0,0l0,0l0,0l0,0l0,0l0,0l0,0l0,0l0,0l0,0
			l0,0l0,0l0,0l0,0l0,0l0,0l0,0l0,0l0,0l0,0l0,0l0,0l0,0l0,0l0,0l0,0l0,0l0,0l0,0l0,0l0,0l0,0l0,0l0,0l0,0l0,0l0,0l0,0l0,0l0,0l0,0
			l0,0l0,0l0,0l0,0l0,0l0,0l0,0l0,0l0,0l0,0l0,0l0,0l0,0l0,0l0,0l0,0l0,0l0,0l0,0l0,0l0,0l0,0l0,0l0,0l0,0l0,0l0,0l0,0l0,0l0,0l0,0
			l0,0l0,0l0,0l0,0l0,0l0,0l0,0l0,0l0,0l0,0l0,0l0,0l0,0l0,0l0,0l0,0l0,0l0,0l0,0l0,0l0,0l0,0l0,0l0,0l0,0l0,0l0,0l0,0l0,0l0,0l0,0
			l0,0l0,0l0,0l0,0l0,0l0,0l0,0l0,0l0,0l0,0l0,0l0,0l0,0l0,0l0,0l0,0l0,0l0,0l0,0l0,0l0,0h0l0,0l0,0l0,0l0,0l0,0l0,0l0,0l0,0l0,0
			l0,0l0,0l0,0l0,0l0,0l0,0l0,0l0,0l0,0l0,0l0,0l0,0l0,0l0,0l0,0l0,0l0,0l0,0l0,0l0,0l0,0l0,0l0,0l0,0l0,0l0,0l0,0l0,0l0,0l0,0l0,0
			l0,0l0,0l0,0l0,0l0,0l0,0l0,0l0,0l0,0l0,0l0,0l0,0l0,0l0,0l0,0l0,0l0,0l0,0l0,0l0,0l0,0l0,0l0,0l0,0l0,0l0,0l0,0l0,0l0,0l0,0l0,0
			l0,0l0,0h0l0,0h0.3l0,0l0,0l0,0l0,0l0,0l0,0l0,0l0,0l0,0l0,0l0,0l0,0l0,0l0,0l0,0l0,0l0,0l0,0l0,0l0,0l0,0l0,0l0,0l0,0l0,0l0,0
			l0,0l0,0l0,0l0,0l0,0l0,0l0,0l0,0l0,0l0,0l0,0l0,0l0,0l0,0l0,0l0,0l0,0l0,0l0,0l0,0l0,0l0,0l0,0l0,0l0,0l0,0l0,0l0,0l0,0l0,0l0,0
			l0,0l0,0l0,0l0,0l0,0l0,0l0,0l0,0l0,0l0,0l0,0l0,0l0,0l0,0l0,0l0,0l0,0l0,0l0,0l0,0l0,0l0,0l0,0l0,0l0,0l0,0l0,0l0,0l0,0l0,0l0,0
			l0,0l0,0l0,0l0,0l0,0l0,0l0,0l0,0l0,0l0,0l0,0l0,0l0,0l0,0l0,0l0,0l0,0l0,0l0,0l0,0l0,0l0,0l0,0l0,0l0,0l0,0l0,0l0,0l0,0l0,0l0,0
			l0,0l0,0l0,0l0,0l0,0l0,0l0,0l0,0l0,0l0,0l0,0l0,0l0,0l0,0l0,0l0,0l0,0l0,0l0,0l0,0l0,0l0,0l0,0l0,0l0,0l0,0l0,0l0,0l0,0l0,0l0,0
			l0,0l0,0l0,0l0,0l0,0l0,0l0,0l0,0l0,0l0,0l0,0l0,0l0,0l0,0l0,0l0,0l0,0l0,0l0,0l0,0l0,0l0,0l0,0l0,0l0,0l0,0l0,0l0,0l0,0l0,0l0,0
			l0,0l0,0l0,0l0,0l0,0l0,0l0,0l0,0l0,0l0,0l0,0l0,0l0,0l0,0l0,0l0,0l0,0l0,0l0,0l0,0l0,0l0,0l0,0l0,0l0,0l0,0l0,0l0,0l0,0l0,0l0,0
			l0,0l0,0l0,0l0,0l0,0l0,0l0,0l0,0v0l0,0v0V51v0l0,0v0l0,0v0l0,0l0,0l0,0l0,0l0,0l0,0l0,0l0,0l0,0l0,0l0,0l0,0l0,0l0,0l0,0l0,0l0,0
			l0,0l0,0l0,0l0,0l0,0l0,0l0,0l0,0l0,0l0,0l0,0l0,0l0,0l0,0l0,0l0,0l0,0l0,0l0,0l0,0l0,0l0,0l0,0l0,0l0,0l0,0l0,0l0,0l0,0l0,0l0,0
			l0,0l0,0l0,0l0,0l0,0l0,0l0,0l0,0l0,0l0,0l0,0l0,0l0,0l0,0l0,0l0,0l0,0l0,0l0,0l0,0l0,0l0,0l0,0l0,0l0,0l0,0l0,0l0,0l0,0l0,0l0,0
			l0,0l0,0l0,0l0,0l0,0l0,0l0,0l0,0l0,0l0,0l0,0l0,0l0,0l0,0l0,0l0,0l0,0l0,0l0,0l0,0l0,0l0,0l0,0l0,0l0,0l0,0l0,0l0,0l0,0l0,0l0,0
			l0,0l0,0l0,0l0,0l0,0l0,0l0,0l0,0l0,0l0,0l0,0l0,0l0,0l0,0l0,0l0,0l0,0l0,0l0,0l0,0l0,0l0,0l0,0l0,0l0,0l0,0l0,0l0,0l0,0l0,0l0,0
			l0,0l0,0l0,0l0,0l0,0l0,0l0,0l0,0l0,0l0,0l0,0l0,0l0,0l0,0l0,0l0,0l0,0l0,0l0,0l0,0l0,0l0,0l0,0l0,0l0,0l0,0l0,0l0,0l0,0l0,0l0,0
			l0,0l0,0l0,0l0,0l0,0l0,0l0,0l0,0l0,0l0,0l0,0l0,0l0,0l0,0l0,0l0,0l0,0l0,0l0,0l0,0l0,0l0,0l0,0l0,0l0,0l0,0l0,0l0,0l0,0l0,0l0,0
			l0,0l0,0l0,0l0,0l0,0l0,0l0,0l0,0l0,0l0,0l0,0l0,0L-13.1,50.7L-13.1,50.7L-13.1,50.7z"/>
		
			<ellipse id="ellipse64" transform="matrix(0.3056 -0.9522 0.9522 0.3056 -57.562 23.3066)" class="st7" cx="-12.8" cy="51.1" rx="0.4" ry="1.1"/>
		<path id="path66" class="st3" d="M-12.6,50.5L-12.6,50.5L-12.6,50.5L-12.6,50.5L-12.6,50.5L-12.6,50.5L-12.6,50.5L-12.6,50.5
			l0.1,0.1l0,0l0,0l0,0l0,0l0,0l0,0l0,0l0,0l0,0l0,0l0,0l0,0l0,0l0,0l0,0l0,0l0,0l0,0l0,0l0,0l0,0l0,0l0,0l0,0l0,0l0,0l0,0l0,0l0,0
			l0,0l0,0l0,0l0,0l0,0l0,0l0,0l0,0l0,0l0,0l0,0l0,0l0,0l0,0l0,0l0,0l0,0l0,0l0,0l0,0l0,0l0,0l0,0l0,0l0,0l0,0l0,0l0,0l0,0l0,0l0,0
			l0,0l0,0l0,0l0,0l0,0l0,0l0,0l0,0l0,0l0,0l0,0l0,0l0,0l0,0l0,0l0,0l0,0l0,0l0,0l0,0l0,0l0,0l0,0l0,0l0,0l0,0l0,0l0,0l0,0l0,0l0,0
			l0,0l0,0l0,0l0,0l0,0l0,0l0,0l0,0l0,0l0,0l0,0l0,0l0,0l0,0l0,0l0,0l0,0l0,0l0,0l0,0l0,0l0,0l0,0l0,0l0,0l0,0l0,0l0,0l0,0l0,0l0,0
			v0.1l0,0l0,0l0,0l0,0l0,0l0,0l0,0l0,0l0,0l0,0l0,0l0,0l0,0l0,0l0,0l0,0l0,0l0,0l0,0l0,0l0,0l0,0l0,0l0,0l0,0l0,0l0,0l0,0l0,0l0,0
			l0,0l0,0l0,0l0,0l0,0l0,0l0,0l0,0l0,0l0,0l0,0l0,0l0,0l0,0l0,0l0,0l0,0l0,0l0,0l0,0l0,0l0,0l0,0l0,0l0,0l0,0l0,0l0,0l0,0l0,0l0,0
			l0,0l0,0l0,0l0,0l0,0l0,0l0,0l0,0l0,0l0,0l0,0l0,0l0,0l0,0l0,0l0,0l0,0l0,0l0,0l0,0l0,0l0,0l0,0l0,0l0,0l0,0l0,0l0,0l0,0l0,0l0,0
			l0,0l0,0l0,0h0l0,0l0,0l0,0l0,0l0,0l0,0l0,0l0,0l0,0l0,0l0,0h-0.1l0,0l0,0l0,0l0,0l0,0l0,0l0,0l0,0h0l0,0l0,0l0,0l0,0l0,0l0,0l0,0
			l0,0l0,0l0,0l0,0l0,0l0,0l0,0l0,0l0,0l0,0l0,0l0,0l0,0l0,0l0,0l0,0l0,0l0,0l0,0l0,0l0,0l0,0l0,0l0,0l0,0l0,0l0,0l0,0l0,0l0,0l0,0
			l0,0l0,0l0,0l0,0l0,0l0,0l0,0l0,0l0,0l0,0l0,0l0,0l0,0l0,0l0,0l0,0l0,0l0,0l0,0l0,0l0,0l0,0l0,0l0,0l0,0l0,0l0,0l0,0l0,0l0,0l0,0
			l0,0l0,0l0,0l0,0l0,0l0,0l0,0l0,0l0,0l0,0l0,0l0,0l0,0l0,0l0,0l0,0l0,0l0,0l0,0l0,0l0,0l0,0l0,0l0,0l0,0l0,0l0,0l0,0l0,0l0,0l0,0
			l0,0l0,0l0,0l0,0l0,0l0,0l0,0l0,0l0,0l0,0l0,0l0,0l0,0l0,0l0,0l0,0l0,0l0,0l0,0l0,0l0,0l0,0l0,0l0,0l0,0l0,0l0,0l0,0l0,0l0,0l0,0
			l0,0l0,0l0,0l0,0l0,0l0,0l0,0l0,0l0,0l0,0l0,0l0,0l0,0l0,0l0,0l0,0l0,0l0,0l0,0l0,0l0,0l0,0l0,0l0,0l0,0l0,0l0,0l0,0l0,0l0,0l0,0
			l0,0l0,0l0,0l0,0l0,0l0,0l0,0l0,0l0,0l0,0l0,0l0,0l0,0l0,0l0,0l0,0l0,0l0,0v-0.1l0,0l0,0l0,0l0,0l0,0l0,0l0,0l0,0l0,0l0,0l0,0l0,0
			l0,0l0,0l0,0l0,0l0,0l0,0l0,0l0,0l0,0l0,0l0,0l0,0l0,0l0,0l0,0l0,0l0,0l0,0l0,0l0,0l0,0l0,0l0,0l0,0l0,0l0,0l0,0l0,0l0,0l0,0l0,0
			l0,0l0,0l0,0l0,0l0,0l0,0l0,0l0,0l0,0l0,0l0,0l0,0l0,0l0,0l0,0l0,0l0,0l0,0l0,0l0,0l0,0l0,0l0,0l0,0l0,0l0,0l0,0l0,0l0,0l0,0l0,0
			l0,0l0,0l0,0l0,0l0,0l0,0l0,0l0,0l0,0l0,0l0,0l0,0l0,0l0,0l0,0l0,0l0,0l0,0l0,0l0,0l0,0l0,0l0,0l0,0l0,0l0,0l0,0l0,0l0,0l0,0l0,0
			l0,0l0,0l0,0l0,0l0,0l0,0l0,0l0,0l0,0l0,0h0.2l0,0l0,0l0,0l0,0l0,0l0,0l0,0l0,0l0,0l0,0l0,0l0,0l0,0l0,0l0,0l0,0l0,0l0,0l0,0l0,0
			h0l0,0l0,0l0,0l0,0l0,0l0,0l0,0l0,0l0,0l0,0l0,0l0,0l0,0l0,0l0,0l0,0L-12.6,50.5L-12.6,50.5L-12.6,50.5L-12.6,50.5L-12.6,50.5
			L-12.6,50.5L-12.6,50.5L-12.6,50.5L-12.6,50.5L-12.6,50.5z M-12.8,51L-12.8,51L-12.8,51L-12.8,51L-12.8,51L-12.8,51L-12.8,51
			L-12.8,51L-12.8,51l-0.1,0l0,0l0,0l0,0l0,0l0,0l0,0l0,0l0,0l0,0l0,0l0,0l0,0l0,0h0l0,0l0,0l0,0l0,0l0,0l0,0l0,0l0,0l0,0l0,0l0,0
			l0,0l0,0l0,0l0,0l0,0l0,0l0,0l0,0l0,0l0,0l0,0l0,0l0,0l0,0l0,0l0,0l0,0l0,0l0,0l0,0l0,0l0,0h-0.1l0,0l0,0l0,0l0,0l0,0l0,0l0,0l0,0
			l0,0l0,0l0,0l0,0l0,0l0,0l0,0l0,0l0,0l0,0l0,0l0,0l0,0l0,0l0,0h0l0,0l0,0h0l0,0l0,0l0,0l0,0l0,0l0,0l0,0l0,0l0,0l0,0l0,0l0,0l0,0
			l0,0l0,0l0,0l0,0l0,0l0,0l0,0l0,0l0,0l0,0l0,0l0,0l0,0l0,0l0,0l0,0l0,0l0,0l0,0l0,0l0,0l0,0l0,0l0,0l0,0l0,0l0,0l0,0l0,0l0,0l0,0
			l0,0l0,0l0,0l0,0l0,0l0,0l0,0l0,0l0,0l0,0l0,0l0,0l0,0l0,0l0,0l0,0l0,0l0,0l0,0l0,0l0,0l0,0l0,0l0,0l0,0l0,0l0,0l0,0l0,0l0,0l0,0
			l0,0l0,0l0,0l0,0l0,0l0,0l0,0l0,0l0,0l0,0l0,0l0,0l0,0l0,0l0,0l0,0l0,0l0,0l0,0l0,0l0,0l0,0l0,0l0,0l0,0l0,0l0,0l0,0l0,0l0,0l0,0
			l0,0l0,0l0,0l0,0l0,0l0,0l0,0l0,0l0,0l0,0l0,0l0,0l0,0l0,0l0,0l0,0l0,0l0,0l0,0l0,0l0,0l0,0l0,0l0,0l0,0l0,0l0,0l0,0l0,0l0,0l0,0
			l0,0l0,0l0,0l0,0l0,0h0.1l0,0l0,0l0,0l0,0l0,0l0,0l0,0l0,0l0,0l0,0l0,0l0,0l0,0l0,0l0,0l0,0l0,0l0,0h0l0,0l0,0l0,0l0,0l0,0l0,0
			l0,0l0,0l0,0l0,0l0,0l0,0l0,0l0,0l0,0l0,0l0,0l0,0l0,0l0,0l0,0l0,0l0,0l0,0l0,0l0,0l0,0l0,0v0l0,0v0l0,0l0,0l0,0l0,0l0,0l0,0l0,0
			l0,0l0,0l0,0l0,0l0,0l0,0l0,0l0,0v0l0,0l0,0l0,0l0,0l0,0l0,0l0,0l0,0l0,0l0,0l0,0l0,0l0,0l0,0l0,0l0,0l0,0l0,0l0,0l0,0l0,0l0,0
			l0,0l0,0l0,0l0,0l0,0l0,0l0,0l0,0l0,0l0,0l0,0l0,0l0,0l0,0l0,0l0,0l0,0l0,0l0,0l0,0l0,0l0,0l0,0l0,0l0,0l0,0l0,0l0,0l0,0l0,0l0,0
			l0,0l0,0l0,0l0,0l0,0l0,0l0,0l0,0l0,0l0,0l0,0l0,0l0,0l0,0l0,0l0,0l0,0l0,0l0,0l0,0l0,0l0,0l0,0l0,0l0,0l0,0l0,0l0,0l0,0l0,0l0,0
			l0,0l0,0l0,0l0,0l0,0l0,0l0,0l0,0l0,0l0,0l0,0l0,0l0,0l0,0l0,0l0,0l0,0l0,0l0,0l0,0l0,0L-12.8,51L-12.8,51L-12.8,51L-12.8,51
			L-12.8,51L-12.8,51L-12.8,51L-12.8,51L-12.8,51L-12.8,51z M-12,51.4L-12,51.4L-12,51.4z M-12,51.4L-12,51.4L-12,51.4z M-12,51.4
			L-12,51.4L-12,51.4z M-12,51.4L-12,51.4L-12,51.4z M-12,51.4L-12,51.4L-12,51.4L-12,51.4L-12,51.4L-12,51.4L-12,51.4L-12,51.4
			L-12,51.4L-12,51.4L-12,51.4L-12,51.4L-12,51.4L-12,51.4L-12,51.4L-12,51.4L-12,51.4L-12,51.4L-12,51.4L-12,51.4L-12,51.4
			L-12,51.4L-12,51.4L-12,51.4L-12,51.4L-12,51.4L-12,51.4L-12,51.4L-12,51.4L-12,51.4L-12,51.4L-12,51.4L-12,51.4L-12,51.4
			L-12,51.4L-12,51.4L-12,51.4L-12,51.4L-12,51.4L-12,51.4L-12,51.4L-12,51.4L-12,51.4L-12,51.4L-12,51.4L-12,51.4L-12,51.4
			L-12,51.4L-12,51.4L-12,51.4L-12,51.4L-12,51.4L-12,51.4L-12,51.4L-12,51.4L-12,51.4L-12,51.4L-12,51.4L-12,51.4L-12,51.4
			L-12,51.4L-12,51.4L-12,51.4L-12,51.4L-12,51.4L-12,51.4L-12,51.4L-12,51.4L-12,51.4L-12,51.4L-12,51.4L-12,51.4
			C-12,51.4-12,51.4-12,51.4z M-13.6,50.8L-13.6,50.8L-13.6,50.8L-13.6,50.8L-13.6,50.8L-13.6,50.8L-13.6,50.8L-13.6,50.8
			L-13.6,50.8L-13.6,50.8L-13.6,50.8L-13.6,50.8L-13.6,50.8L-13.6,50.8L-13.6,50.8L-13.6,50.8L-13.6,50.8L-13.6,50.8L-13.6,50.8
			L-13.6,50.8L-13.6,50.8L-13.6,50.8L-13.6,50.8L-13.6,50.8L-13.6,50.8L-13.6,50.8L-13.6,50.8L-13.6,50.8L-13.6,50.8L-13.6,50.8
			L-13.6,50.8L-13.6,50.8L-13.6,50.8L-13.6,50.8L-13.6,50.8L-13.6,50.8L-13.6,50.8L-13.6,50.8L-13.6,50.8L-13.6,50.8L-13.6,50.8
			L-13.6,50.8L-13.6,50.8L-13.6,50.8C-13.6,50.9-13.6,50.8-13.6,50.8z"/>
		<path id="path70" class="st9" d="M-16.2,44.8c1.2,1.1,3.2,2,3.4,2.1c0.3,0.2,3.7,2.4,3.2,6.7"/>
		<path id="path79" class="st3" d="M-16.1,44.6L-16.1,44.6l0.1,0.1l0,0l0,0l0,0l0,0l0,0l0,0l0,0l0,0l0,0l0,0l0,0l0,0l0,0l0,0l0,0
			l0,0l0,0l0,0l0,0l0,0l0,0l0,0l0,0l0,0l0,0l0,0l0,0l0,0l0,0l0,0l0,0l0,0l0,0l0,0l0,0l0,0l0,0l0,0l0,0l0,0l0,0l0,0l0,0l0,0l0,0l0,0
			l0,0l0,0l0,0l0,0l0,0l0,0l0,0l0,0l0,0l0,0l0,0l0,0l0,0l0,0l0,0l0,0l0,0l0,0l0,0l0,0l0,0l0,0l0,0l0,0l0,0l0,0l0,0l0,0l0,0l0,0l0,0
			l0,0l0,0l0,0l0,0l0,0l0,0l0,0l0,0l0,0l0,0l0,0l0,0l0,0l0,0l0,0l0,0l0,0l0,0l0,0l0,0l0,0l0,0l0,0l0,0l0,0l0,0l0,0l0,0l0,0l0,0l0,0
			l0,0l0,0l0,0l0,0l0,0l0,0l0,0l0,0l0,0l0,0l0,0l0,0l0,0l0,0l0,0l0.1,0l0.1,0l0.1,0l0.1,0l0,0l0,0l0,0l0.1,0l0,0l0,0l0,0l0,0l0,0
			l0,0l0,0l0,0l0,0l0,0l0,0l0,0l0,0l0,0l0,0l0,0l0,0l0,0l0,0l0,0l0,0l0,0l0,0l0,0l0,0l0,0l0,0l0,0l0,0l0,0l0,0l0,0l0,0l0,0l0,0l0,0
			l0,0l0,0l0,0l0,0l0,0l0,0l0,0l0,0l0,0l0,0l0,0l0,0l0,0l0,0l0,0l0,0l0,0l0,0l0,0l0,0l0,0l0,0l0,0l0,0l0,0l0,0l0,0l0,0l0,0l0,0l0,0
			l0,0l0,0l0,0l0,0l0,0l0,0l0,0l0,0l0,0l0,0l0,0l0,0l0,0l0,0l0,0l0,0l0,0l0,0l0,0l0,0l0,0l0,0l0,0l0,0l0,0l0,0l0,0l0,0l0,0l0,0l0,0
			l0,0l0,0l0,0l0,0l0,0l0,0l0,0l0,0l0,0l0,0l0,0l0,0l0,0l0,0l0,0l0,0l0,0l0,0l0,0l0,0l0,0l0,0l0,0l0,0l0,0l0,0l0,0l0,0l0,0l0,0l0,0
			l0,0l0,0l0,0l0,0l0,0l0,0l0,0l0,0l0,0l0,0l0,0l0,0l0,0l0,0l0,0l0,0l0,0l0,0l0,0l0,0l0,0l0,0l0,0l0,0l0,0l0,0l0,0l0,0l0,0l0,0l0,0
			l0,0l0,0l0,0l0,0l0,0l0,0l0,0l0,0l0,0l0,0l0,0l0,0l0,0l0,0l0,0l0,0l0,0l0,0l0,0l0,0l0,0l0,0l0,0l0,0l0,0l0,0l0,0l0,0l0,0l0,0l0,0
			l0,0l0,0l0,0l0,0l0,0l0,0l0,0l0,0l0,0l0,0l0,0l0,0l0,0l0,0l0,0l0,0l0,0l0,0l0,0l0,0l0,0l0,0l0,0l0,0l0,0l0,0l0,0l0,0l0,0l0,0l0,0
			l0,0l0,0l0,0l0,0l0,0l0,0l0,0l0,0l0,0l0,0l0,0l0,0l0,0l0,0l0,0l0,0l0,0l0,0l0,0l0,0l0,0l0,0l0,0l0,0l0,0l0,0l0,0l0,0l0,0l0,0l0,0
			l0,0l0,0l0,0l0,0l0,0l0,0l0,0l0,0l0,0l0,0l0,0l0,0l0,0l0,0l0,0l0,0l0,0l0,0l0,0l0,0l0,0l0,0l0,0l0,0l0,0l0,0l0,0l0,0l0,0l0,0l0,0
			l0,0l0,0l0,0l0,0l0,0l0,0l0,0l0,0l0,0l0,0l0,0l0,0l0,0l0,0l0,0l0,0l0,0l0,0l0,0l0,0l0,0l0,0l0,0l0,0l0,0l0,0l0,0l0,0l0,0l0,0l0,0
			l0,0l0,0l0,0l0,0l0,0l0,0l0,0l0,0l0,0l0,0l0,0l0,0l0,0l0,0l0,0l0,0l0,0l0,0l0,0l0,0l0,0l0,0l0,0l0,0l0,0l0,0l0,0l0,0l0,0l0,0l0,0
			l0,0l0,0l0,0l0,0l0,0l0,0l0,0l0,0l0,0l0,0l0,0l0,0l0,0l0,0l0,0l0,0l0,0l0,0l0,0l0,0l0,0l0,0l0,0l0,0l0,0l0,0l0,0l0,0v0.3l0,0l0,0
			l0,0l0,0l0,0l0,0l0,0l0,0l0,0l0,0l0,0l0,0l0,0l0,0l0,0l0,0l0,0l0,0l0,0l0,0l0,0l0,0l0,0l0,0l0,0.1l-0.1,0.1l-0.1,0l-0.1,0h0
			l-0.1,0l-0.1-0.1l0-0.1l0-0.1l0,0l0,0l0,0l0,0l0,0l0,0l0,0l0,0l0,0l0,0l0,0l0,0l0,0l0,0l0,0l0,0l0,0l0,0l0,0l0,0l0,0l0,0l0,0l0,0
			l0,0l0,0l0,0l0,0l0,0l0,0l0,0v0l0,0l0,0l0,0l0,0v-0.3l0,0v0l0,0l0,0l0,0l0,0l0,0l0,0l0,0l0,0l0,0l0,0l0,0l0,0l0,0l0,0l0,0l0,0l0,0
			l0,0l0,0l0,0l0,0l0,0l0,0l0,0l0,0l0,0l0,0l0,0l0,0l0,0l0,0l0,0l0,0l0,0l0,0l0,0l0,0l0,0l0,0l0,0l0,0l0,0l0,0l0,0l0,0l0,0l0,0l0,0
			l0,0l0,0l0,0l0,0l0,0l0,0l0,0l0,0l0,0l0,0l0,0l0,0l0,0l0,0l0,0l0,0l0,0l0,0l0,0l0,0l0,0l0,0l0,0l0,0l0,0l0,0l0,0l0,0l0,0l0,0l0,0
			l0,0l0,0l0,0l0,0l0,0l0,0l0,0l0,0l0,0l0,0l0,0l0,0l0,0l0,0l0,0l0,0l0,0l0,0l0,0l0,0l0,0l0,0l0,0l0,0l0,0l0,0l0,0l0,0l0,0l0,0l0,0
			l0,0l0,0l0,0l0,0l0,0l0,0l0,0l0,0l0,0l0,0l0,0l0,0l0,0l0,0l0,0l0,0l0,0l0,0l0,0l0,0l0,0l0,0l0,0l0,0l0,0l0,0l0,0l0,0l0,0l0,0l0,0
			l0,0l0,0l0,0l0,0l0,0l0,0l0,0l0,0l0,0l0,0l0,0l0,0l0,0l0,0l0,0l0,0l0,0l0,0l0,0l0,0l0,0l0,0l0,0l0,0l0,0l0,0l0,0l0,0l0,0l0,0l0,0
			l0,0l0,0l0,0l0,0l0,0l0,0l0,0l0,0l0,0l0,0l0,0l0,0l0,0l0,0l0,0l0,0l0,0l0,0l0,0l0,0l0,0l0,0l0,0l0,0l0,0l0,0l0,0l0,0l0,0l0,0l0,0
			l0,0l0,0l0,0l0,0l0,0l0,0l0,0l0,0l0,0l0,0l0,0l0,0l0,0l0,0l0,0l0,0l0,0l0,0l0,0l0,0l0,0l0,0l0,0l0,0l0,0l0,0l0,0l0,0l0,0l0,0l0,0
			l0,0l0,0l0,0l0,0l0,0l0,0l0,0l0,0l0,0l0,0l0,0l0,0l0,0l0,0l0,0l0,0l0,0l0,0l0,0l0,0l0,0l0,0l0,0l0,0l0,0l0,0l0,0l0,0l0,0l0,0l0,0
			l0,0l0,0l0,0l0,0l0,0l0,0l0,0l0,0l0,0l0,0l0,0l0,0l0,0l0,0l0,0l0,0l0,0l0,0l0,0l0,0l0,0l0,0l0,0l0,0l0,0l0,0l0,0l0,0l0,0l0,0l0,0
			l0,0l0,0l0,0l0,0l0,0l0,0l0,0l0,0l0,0l0,0l0,0l0,0l0,0l0,0l0,0l0,0l0,0l0,0l0,0l0,0l0,0l0,0l0,0l0,0l0,0l0,0l0,0l0,0l0,0l0,0l0,0
			l0,0l0,0l0,0l0,0l0,0l0,0l0,0l0,0l0,0l0,0l0,0l0,0l0,0l0,0l0,0l0,0l0,0l0,0l0,0l0,0l0,0l0,0l0,0l0,0l0,0l0,0l0,0l0,0l0,0l0,0l0,0
			l0,0l0,0l0,0l-0.1,0l0,0l0,0l0,0l-0.1,0l-0.1,0l-0.1,0l-0.1,0l0,0l0,0l0,0l0,0l0,0l0,0l0,0l0,0l0,0l0,0l0,0l0,0l0,0l0,0l0,0l0,0
			l0,0l0,0l0,0l0,0l0,0l0,0l0,0l0,0l0,0l0,0l0,0l0,0l0,0l0,0l0,0l0,0l0,0l0,0l0,0l0,0l0,0l0,0l0,0l0,0l0,0l0,0l0,0l0,0l0,0l0,0l0,0
			l0,0l0,0l0,0l0,0l0,0l0,0l0,0l0,0l0,0l0,0l0,0l0,0l0,0l0,0l0,0l0,0l0,0l0,0l0,0l0,0l0,0l0,0l0,0l0,0l0,0l0,0l0,0l0,0l0,0l0,0l0,0
			l0,0l0,0l0,0l0,0l0,0l0,0l0,0l0,0l0,0l0,0l0,0l0,0l0,0l0,0l0,0l0,0l0,0l0,0l0,0l0,0l0,0l0,0l0,0l0,0l0,0l0,0l0,0l0,0l0,0l0,0l0,0
			l0,0l0,0l0,0l0,0l0,0l0,0l0,0l0,0l0,0l0,0l0,0l0,0l0,0l0,0l0,0l-0.1-0.1l0-0.1l0-0.1l0.1-0.1l0,0l0.1-0.1l0.1,0L-16.1,44.6
			L-16.1,44.6z"/>
		<ellipse id="ellipse83" class="st7" cx="-12.7" cy="51.2" rx="0.3" ry="0.2"/>
		<path id="path85" class="st3" d="M-12.6,50.7L-12.6,50.7L-12.6,50.7L-12.6,50.7L-12.6,50.7L-12.6,50.7L-12.6,50.7L-12.6,50.7
			L-12.6,50.7L-12.6,50.7L-12.6,50.7L-12.6,50.7L-12.6,50.7L-12.6,50.7L-12.6,50.7L-12.6,50.7L-12.6,50.7L-12.6,50.7l0.1,0l0,0l0,0
			l0,0l0,0l0,0l0,0l0,0l0,0l0,0l0,0l0,0l0,0l0,0l0,0l0,0l0,0l0,0l0,0l0,0l0,0l0,0l0,0l0,0l0,0l0,0l0,0l0,0l0,0l0,0l0,0l0,0l0,0l0,0
			l0,0l0,0l0,0l0,0l0,0l0,0l0,0l0,0l0,0l0,0l0,0l0,0l0,0l0,0l0,0l0,0l0,0l0,0l0,0l0,0l0,0l0,0l0,0l0,0l0,0l0,0l0,0l0,0l0,0l0,0l0,0
			l0,0l0,0l0,0l0,0l0,0l0,0l0,0l0,0l0,0l0,0l0,0l0,0l0,0l0,0l0,0l0,0l0,0l0,0l0,0l0,0l0,0l0,0l0,0l0,0l0,0l0,0l0,0l0,0l0,0l0,0l0,0
			l0,0l0,0l0,0l0,0v0.1l0,0l0,0l0,0l0,0l0,0l0,0l0,0l0,0l0,0l0,0l0,0l0,0l0,0l0,0l0,0l0,0l0,0l0,0l0,0l0,0l0,0l0,0l0,0l0,0l0,0l0,0
			l0,0l0,0l0,0l0,0l0,0l0,0l0,0l0,0l0,0l0,0l0,0l0,0l0,0l0,0l0,0l0,0l0,0l0,0l0,0l0,0l0,0l0,0l0,0l0,0l0,0l0,0l0,0l0,0l0,0l0,0l0,0
			l0,0l0,0l0,0l0,0l0,0l0,0l0,0l0,0l0,0l0,0l0,0l0,0l0,0l0,0l0,0l0,0l0,0l0,0l0,0l0,0l0,0l0,0l0,0l0,0l0,0l0,0l0,0l0,0l0,0l0,0l0,0
			l0,0l0,0l0,0l0,0l0,0l0,0l0,0l0,0l0,0l0,0l0,0l0,0l0,0l0,0l0,0l0,0h0l0,0l0,0l0,0l0,0l0,0l0,0l0,0l0,0l0,0l0,0l0,0l0,0l0,0l0,0
			l0,0l0,0l0,0l0,0h-0.1l0,0l0,0l0,0l0,0l0,0l0,0l0,0l0,0l0,0l0,0l0,0l0,0l0,0l0,0l0,0l0,0l0,0l0,0l0,0l0,0l0,0l0,0l0,0l0,0l0,0l0,0
			l0,0l0,0l0,0l0,0l0,0l0,0l0,0l0,0l0,0l0,0l0,0l0,0l0,0l0,0l0,0l0,0l0,0l0,0l0,0l0,0l0,0l0,0l0,0l0,0l0,0l0,0l0,0l0,0l0,0l0,0l0,0
			l0,0l0,0l0,0l0,0l0,0l0,0l0,0l0,0l0,0l0,0l0,0l0,0l0,0l0,0l0,0l0,0l0,0l0,0l0,0l0,0l0,0l0,0l0,0l0,0l0,0l0,0l0,0v0l0,0l0,0l0,0
			l0,0l0,0l0,0l0,0l0,0l0,0l0,0l0,0l0,0l0,0l0,0l0,0l0,0l0,0l0,0l0,0l0,0l0,0l0,0l0,0l0,0l0,0l0,0l0,0V51l0,0l0,0l0,0l0,0l0,0l0,0
			l0,0v0l0,0l0,0l0,0l0,0l0,0l0,0l0,0l0,0l0,0l0,0l0,0l0,0l0,0l0,0l0,0l0,0l0,0l0,0l0,0l0,0l0,0l0,0l0,0l0,0l0,0l0,0l0,0l0,0l0,0
			l0,0l0,0l0,0l0,0l0,0l0,0l0,0l0,0l0,0l0,0l0,0l0,0l0,0l0,0l0,0l0,0l0,0l0,0l0,0l0,0l0,0l0,0l0,0l0,0l0,0l0,0l0,0l0,0l0,0l0,0l0,0
			l0,0l0,0l0,0l0,0l0,0l0,0l0,0l0,0l0,0l0,0l0,0l0,0l0,0l0,0l0,0l0,0l0,0l0,0l0,0l0,0l0,0l0,0l0,0l0,0l0,0l0,0l0,0l0,0l0,0l0,0l0,0
			l0,0l0,0l0,0l0,0L-12.6,50.7L-12.6,50.7L-12.6,50.7L-12.6,50.7L-12.6,50.7L-12.6,50.7L-12.6,50.7L-12.6,50.7L-12.6,50.7
			L-12.6,50.7L-12.6,50.7L-12.6,50.7L-12.6,50.7L-12.6,50.7L-12.6,50.7L-12.6,50.7z M-12.7,51.2L-12.7,51.2L-12.7,51.2L-12.7,51.2
			L-12.7,51.2L-12.7,51.2L-12.7,51.2L-12.7,51.2L-12.7,51.2L-12.7,51.2L-12.7,51.2L-12.7,51.2L-12.7,51.2L-12.7,51.2L-12.7,51.2
			L-12.7,51.2L-12.7,51.2L-12.7,51.2L-12.7,51.2L-12.7,51.2L-12.7,51.2L-12.7,51.2L-12.7,51.2L-12.7,51.2L-12.7,51.2L-12.7,51.2
			L-12.7,51.2L-12.7,51.2L-12.7,51.2L-12.7,51.2L-12.7,51.2L-12.7,51.2L-12.7,51.2L-12.7,51.2L-12.7,51.2L-12.7,51.2L-12.7,51.2
			L-12.7,51.2L-12.7,51.2L-12.7,51.2L-12.7,51.2L-12.7,51.2L-12.7,51.2L-12.7,51.2L-12.7,51.2L-12.7,51.2L-12.7,51.2L-12.7,51.2
			L-12.7,51.2L-12.7,51.2L-12.7,51.2L-12.7,51.2L-12.7,51.2L-12.7,51.2L-12.7,51.2L-12.7,51.2L-12.7,51.2L-12.7,51.2L-12.7,51.2
			L-12.7,51.2L-12.7,51.2L-12.7,51.2L-12.7,51.2L-12.7,51.2L-12.7,51.2L-12.7,51.2L-12.7,51.2L-12.7,51.2L-12.7,51.2L-12.7,51.2
			L-12.7,51.2L-12.7,51.2L-12.7,51.2L-12.7,51.2L-12.7,51.2L-12.7,51.2L-12.7,51.2L-12.7,51.2L-12.7,51.2L-12.7,51.2L-12.7,51.2
			L-12.7,51.2L-12.7,51.2L-12.7,51.2L-12.7,51.2L-12.7,51.2L-12.7,51.2L-12.7,51.2L-12.7,51.2L-12.7,51.2L-12.7,51.2L-12.7,51.2
			L-12.7,51.2L-12.7,51.2L-12.7,51.2L-12.7,51.2L-12.7,51.2L-12.7,51.2L-12.7,51.2L-12.7,51.2L-12.7,51.2L-12.7,51.2L-12.7,51.2
			L-12.7,51.2L-12.7,51.2L-12.7,51.2L-12.7,51.2L-12.7,51.2L-12.7,51.2L-12.7,51.2L-12.7,51.2L-12.7,51.2L-12.7,51.2L-12.7,51.2
			L-12.7,51.2L-12.7,51.2L-12.7,51.2L-12.7,51.2L-12.7,51.2L-12.7,51.2L-12.7,51.2L-12.7,51.2L-12.7,51.2L-12.7,51.2L-12.7,51.2
			L-12.7,51.2L-12.7,51.2L-12.7,51.2L-12.7,51.2L-12.7,51.2L-12.7,51.2L-12.7,51.2L-12.7,51.2L-12.7,51.2L-12.7,51.2L-12.7,51.2
			L-12.7,51.2L-12.7,51.2L-12.7,51.2L-12.7,51.2L-12.7,51.2L-12.7,51.2L-12.7,51.2L-12.7,51.2L-12.7,51.2L-12.7,51.2L-12.7,51.2
			L-12.7,51.2L-12.7,51.2L-12.7,51.2L-12.7,51.2L-12.7,51.2L-12.7,51.2L-12.7,51.2L-12.7,51.2L-12.7,51.2L-12.7,51.2L-12.7,51.2
			L-12.7,51.2L-12.7,51.2L-12.7,51.2L-12.7,51.2L-12.7,51.2L-12.7,51.2L-12.7,51.2L-12.7,51.2L-12.7,51.2L-12.7,51.2L-12.7,51.2
			L-12.7,51.2L-12.7,51.2L-12.7,51.2L-12.7,51.2L-12.7,51.2L-12.7,51.2L-12.7,51.2L-12.7,51.2L-12.7,51.2L-12.7,51.2L-12.7,51.2
			L-12.7,51.2L-12.7,51.2L-12.7,51.2L-12.7,51.2L-12.7,51.2L-12.7,51.2L-12.7,51.2L-12.7,51.2L-12.7,51.2L-12.7,51.2L-12.7,51.2
			L-12.7,51.2L-12.7,51.2L-12.7,51.2L-12.7,51.2L-12.7,51.2L-12.7,51.2L-12.7,51.2L-12.7,51.2L-12.7,51.2L-12.7,51.2L-12.7,51.2
			L-12.7,51.2L-12.7,51.2L-12.7,51.2L-12.7,51.2L-12.7,51.2L-12.7,51.2L-12.7,51.2L-12.7,51.2L-12.7,51.2L-12.7,51.2L-12.7,51.2
			L-12.7,51.2L-12.7,51.2L-12.7,51.2L-12.7,51.2L-12.7,51.2L-12.7,51.2L-12.7,51.2L-12.7,51.2L-12.7,51.2L-12.7,51.2L-12.7,51.2
			L-12.7,51.2L-12.7,51.2L-12.7,51.2L-12.7,51.2L-12.7,51.2L-12.7,51.2L-12.7,51.2L-12.7,51.2L-12.7,51.2L-12.7,51.2L-12.7,51.2
			L-12.7,51.2L-12.7,51.2L-12.7,51.2L-12.7,51.2L-12.7,51.2L-12.7,51.2L-12.7,51.2L-12.7,51.2L-12.7,51.2L-12.7,51.2L-12.7,51.2
			L-12.7,51.2L-12.7,51.2L-12.7,51.2L-12.7,51.2L-12.7,51.2L-12.7,51.2L-12.7,51.2L-12.7,51.2L-12.7,51.2L-12.7,51.2L-12.7,51.2
			L-12.7,51.2L-12.7,51.2L-12.7,51.2L-12.7,51.2L-12.7,51.2L-12.7,51.2L-12.7,51.2L-12.7,51.2L-12.7,51.2L-12.7,51.2L-12.7,51.2
			L-12.7,51.2L-12.7,51.2L-12.7,51.2L-12.7,51.2L-12.7,51.2L-12.7,51.2L-12.7,51.2L-12.7,51.2L-12.7,51.2L-12.7,51.2L-12.7,51.2
			L-12.7,51.2L-12.7,51.2L-12.7,51.2L-12.7,51.2L-12.7,51.2L-12.7,51.2L-12.7,51.2L-12.7,51.2L-12.7,51.2L-12.7,51.2L-12.7,51.2
			L-12.7,51.2L-12.7,51.2L-12.7,51.2L-12.7,51.2L-12.7,51.2L-12.7,51.2L-12.7,51.2L-12.7,51.2L-12.7,51.2L-12.7,51.2L-12.7,51.2
			L-12.7,51.2L-12.7,51.2L-12.7,51.2L-12.7,51.2L-12.7,51.2L-12.7,51.2L-12.7,51.2L-12.7,51.2L-12.7,51.2L-12.7,51.2L-12.7,51.2
			L-12.7,51.2L-12.7,51.2L-12.7,51.2L-12.7,51.2L-12.7,51.2L-12.7,51.2L-12.7,51.2L-12.7,51.2L-12.7,51.2L-12.7,51.2L-12.7,51.2
			L-12.7,51.2L-12.7,51.2L-12.7,51.2L-12.7,51.2L-12.7,51.2L-12.7,51.2L-12.7,51.2L-12.7,51.2L-12.7,51.2L-12.7,51.2L-12.7,51.2
			L-12.7,51.2L-12.7,51.2L-12.7,51.2L-12.7,51.2L-12.7,51.2L-12.7,51.2L-12.7,51.2L-12.7,51.2L-12.7,51.2L-12.7,51.2L-12.7,51.2
			L-12.7,51.2L-12.7,51.2L-12.7,51.2L-12.7,51.2L-12.7,51.2L-12.7,51.2L-12.7,51.2L-12.7,51.2L-12.7,51.2L-12.7,51.2L-12.7,51.2
			L-12.7,51.2L-12.7,51.2L-12.7,51.2L-12.7,51.2L-12.7,51.2L-12.7,51.2L-12.7,51.2L-12.7,51.2L-12.7,51.2L-12.7,51.2L-12.7,51.2
			L-12.7,51.2L-12.7,51.2L-12.7,51.2L-12.7,51.2L-12.7,51.2L-12.7,51.2L-12.7,51.2L-12.7,51.2L-12.7,51.2L-12.7,51.2L-12.7,51.2
			L-12.7,51.2L-12.7,51.2L-12.7,51.2L-12.7,51.2L-12.7,51.2L-12.7,51.2L-12.7,51.2L-12.7,51.2L-12.7,51.2L-12.7,51.2L-12.7,51.2
			L-12.7,51.2L-12.7,51.2L-12.7,51.2L-12.7,51.2L-12.7,51.2L-12.7,51.2L-12.7,51.2L-12.7,51.2L-12.7,51.2L-12.7,51.2L-12.7,51.2
			L-12.7,51.2L-12.7,51.2L-12.7,51.2L-12.7,51.2L-12.7,51.2L-12.7,51.2L-12.7,51.2L-12.7,51.2L-12.7,51.2L-12.7,51.2L-12.7,51.2
			L-12.7,51.2L-12.7,51.2L-12.7,51.2L-12.7,51.2L-12.7,51.2L-12.7,51.2L-12.7,51.2L-12.7,51.2L-12.7,51.2L-12.7,51.2L-12.7,51.2
			L-12.7,51.2L-12.7,51.2L-12.7,51.2L-12.7,51.2L-12.7,51.2L-12.7,51.2L-12.7,51.2L-12.7,51.2L-12.7,51.2L-12.7,51.2L-12.7,51.2
			L-12.7,51.2L-12.7,51.2L-12.7,51.2L-12.7,51.2L-12.7,51.2L-12.7,51.2L-12.7,51.2L-12.7,51.2L-12.7,51.2L-12.7,51.2L-12.7,51.2
			L-12.7,51.2L-12.7,51.2L-12.7,51.2L-12.7,51.2L-12.7,51.2L-12.7,51.2L-12.7,51.2L-12.7,51.2L-12.7,51.2L-12.7,51.2L-12.7,51.2
			L-12.7,51.2L-12.7,51.2L-12.7,51.2L-12.7,51.2L-12.7,51.2L-12.7,51.2L-12.7,51.2L-12.7,51.2L-12.7,51.2L-12.7,51.2L-12.7,51.2
			L-12.7,51.2L-12.7,51.2L-12.7,51.2L-12.7,51.2L-12.7,51.2L-12.7,51.2L-12.7,51.2L-12.7,51.2L-12.7,51.2L-12.7,51.2L-12.7,51.2
			L-12.7,51.2L-12.7,51.2L-12.7,51.2L-12.7,51.2L-12.7,51.2L-12.7,51.2L-12.7,51.2L-12.7,51.2L-12.7,51.2L-12.7,51.2L-12.7,51.2
			L-12.7,51.2L-12.7,51.2L-12.7,51.2L-12.7,51.2L-12.7,51.2L-12.7,51.2L-12.7,51.2L-12.7,51.2L-12.7,51.2L-12.7,51.2L-12.7,51.2
			L-12.7,51.2L-12.7,51.2L-12.7,51.2L-12.7,51.2L-12.7,51.2L-12.7,51.2L-12.7,51.2L-12.7,51.2L-12.7,51.2L-12.7,51.2L-12.7,51.2
			L-12.7,51.2L-12.7,51.2L-12.7,51.2L-12.7,51.2L-12.7,51.2L-12.7,51.2L-12.7,51.2L-12.7,51.2L-12.7,51.2L-12.7,51.2L-12.7,51.2
			L-12.7,51.2L-12.7,51.2L-12.7,51.2L-12.7,51.2L-12.7,51.2L-12.7,51.2L-12.7,51.2C-12.6,51.2-12.7,51.2-12.7,51.2z"/>
	</g>
	<g id="g4732">
		<ellipse id="path4711" class="st10" cx="31.5" cy="34.3" rx="1" ry="0.9"/>
		<ellipse id="path4711-5" class="st11" cx="31.8" cy="34.3" rx="0.5" ry="0.4"/>
	</g>
</g>
</svg>
